<?xml version="1.0" encoding="UTF-8"?>
<!DOCTYPE svg PUBLIC "-//W3C//DTD SVG 1.1//EN" "http://www.w3.org/Graphics/SVG/1.1/DTD/svg11.dtd">
<svg version="1.2" width="215.9mm" height="279.4mm" viewBox="0 0 21590 27940" preserveAspectRatio="xMidYMid" fill-rule="evenodd" clip-path="url(#presentation_clip_path)" stroke-width="28.222" stroke-linejoin="round" xmlns="http://www.w3.org/2000/svg" xmlns:ooo="http://xml.openoffice.org/svg/export" xmlns:xlink="http://www.w3.org/1999/xlink" xml:space="preserve">
 <defs class="ClipPathGroup">
  <clipPath id="presentation_clip_path" clipPathUnits="userSpaceOnUse">
   <rect x="0" y="0" width="21590" height="27940"/>
  </clipPath>
 </defs>
 <defs class="TextShapeIndex">
  <g ooo:slide="id1" ooo:id-list="id3 id4 id5 id6 id7 id8 id9 id10 id11 id12 id13 id14"/>
 </defs>
 <defs class="EmbeddedBulletChars">
  <g id="bullet-char-template(57356)" transform="scale(0.00048828125,-0.00048828125)">
   <path d="M 580,1141 L 1163,571 580,0 -4,571 580,1141 Z"/>
  </g>
  <g id="bullet-char-template(57354)" transform="scale(0.00048828125,-0.00048828125)">
   <path d="M 8,1128 L 1137,1128 1137,0 8,0 8,1128 Z"/>
  </g>
  <g id="bullet-char-template(10146)" transform="scale(0.00048828125,-0.00048828125)">
   <path d="M 174,0 L 602,739 174,1481 1456,739 174,0 Z M 1358,739 L 309,1346 659,739 1358,739 Z"/>
  </g>
  <g id="bullet-char-template(10132)" transform="scale(0.00048828125,-0.00048828125)">
   <path d="M 2015,739 L 1276,0 717,0 1260,543 174,543 174,936 1260,936 717,1481 1274,1481 2015,739 Z"/>
  </g>
  <g id="bullet-char-template(10007)" transform="scale(0.00048828125,-0.00048828125)">
   <path d="M 0,-2 C -7,14 -16,27 -25,37 L 356,567 C 262,823 215,952 215,954 215,979 228,992 255,992 264,992 276,990 289,987 310,991 331,999 354,1012 L 381,999 492,748 772,1049 836,1024 860,1049 C 881,1039 901,1025 922,1006 886,937 835,863 770,784 769,783 710,716 594,584 L 774,223 C 774,196 753,168 711,139 L 727,119 C 717,90 699,76 672,76 641,76 570,178 457,381 L 164,-76 C 142,-110 111,-127 72,-127 30,-127 9,-110 8,-76 1,-67 -2,-52 -2,-32 -2,-23 -1,-13 0,-2 Z"/>
  </g>
  <g id="bullet-char-template(10004)" transform="scale(0.00048828125,-0.00048828125)">
   <path d="M 285,-33 C 182,-33 111,30 74,156 52,228 41,333 41,471 41,549 55,616 82,672 116,743 169,778 240,778 293,778 328,747 346,684 L 369,508 C 377,444 397,411 428,410 L 1163,1116 C 1174,1127 1196,1133 1229,1133 1271,1133 1292,1118 1292,1087 L 1292,965 C 1292,929 1282,901 1262,881 L 442,47 C 390,-6 338,-33 285,-33 Z"/>
  </g>
  <g id="bullet-char-template(9679)" transform="scale(0.00048828125,-0.00048828125)">
   <path d="M 813,0 C 632,0 489,54 383,161 276,268 223,411 223,592 223,773 276,916 383,1023 489,1130 632,1184 813,1184 992,1184 1136,1130 1245,1023 1353,916 1407,772 1407,592 1407,412 1353,268 1245,161 1136,54 992,0 813,0 Z"/>
  </g>
  <g id="bullet-char-template(8226)" transform="scale(0.00048828125,-0.00048828125)">
   <path d="M 346,457 C 273,457 209,483 155,535 101,586 74,649 74,723 74,796 101,859 155,911 209,963 273,989 346,989 419,989 480,963 531,910 582,859 608,796 608,723 608,648 583,586 532,535 482,483 420,457 346,457 Z"/>
  </g>
  <g id="bullet-char-template(8211)" transform="scale(0.00048828125,-0.00048828125)">
   <path d="M -4,459 L 1135,459 1135,606 -4,606 -4,459 Z"/>
  </g>
 </defs>
 <defs class="TextEmbeddedBitmaps"/>
 <g>
  <g id="id2" class="Master_Slide">
   <g id="bg-id2" class="Background"/>
   <g id="bo-id2" class="BackgroundObjects"/>
  </g>
 </g>
 <g class="SlideGroup">
  <g>
   <g id="id1" class="Slide" clip-path="url(#presentation_clip_path)">
    <g class="Page">
     <g class="com.sun.star.drawing.TextShape">
      <g id="id3">
       <text class="TextShape"><tspan class="TextParagraph" font-family="Arial, sans-serif" font-size="388px" font-style="italic" font-weight="400"><tspan class="TextPosition" x="1291" y="3569"><tspan fill="rgb(0,0,0)" stroke="none">fahr_to_celsius</tspan></tspan></tspan></text>
      </g>
     </g>
     <g class="com.sun.star.drawing.LineShape">
      <g id="id4">
       <path fill="none" stroke="rgb(0,0,0)" d="M 7300,5300 L 8770,5300"/>
       <path fill="rgb(0,0,0)" stroke="none" d="M 9200,5300 L 8750,5150 8750,5450 9200,5300 Z"/>
      </g>
     </g>
     <g class="com.sun.star.drawing.TextShape">
      <g id="id5">
       <path fill="rgb(192,192,192)" stroke="none" d="M 6223,5700 L 5345,5700 5345,5017 7100,5017 7100,5700 6223,5700 Z"/>
       <text class="TextShape"><tspan class="TextParagraph" font-family="Arial, sans-serif" font-size="388px" font-weight="400"><tspan class="TextPosition" x="5595" y="5493"><tspan fill="rgb(0,0,0)" stroke="none">original</tspan></tspan></tspan></text>
      </g>
     </g>
     <g class="com.sun.star.drawing.TextShape">
      <g id="id6">
       <path fill="none" stroke="rgb(0,0,0)" stroke-width="50" d="M 9892,5700 L 9400,5700 9400,4967 10384,4967 10384,5700 9892,5700 Z"/>
       <text class="TextShape"><tspan class="TextParagraph" font-family="Arial, sans-serif" font-size="388px" font-weight="400"><tspan class="TextPosition" x="9675" y="5468"><tspan fill="rgb(0,0,0)" stroke="none">32</tspan></tspan></tspan></text>
      </g>
     </g>
     <g class="com.sun.star.drawing.LineShape">
      <g id="id7">
       <path fill="none" stroke="rgb(0,0,0)" stroke-width="50" d="M 8000,7100 L 8000,7049"/>
       <path fill="none" stroke="rgb(0,0,0)" stroke-width="50" d="M 8000,6998 L 8000,6947"/>
       <path fill="none" stroke="rgb(0,0,0)" stroke-width="50" d="M 8000,6896 L 8000,6845"/>
       <path fill="none" stroke="rgb(0,0,0)" stroke-width="50" d="M 8000,6794 L 8000,6743"/>
       <path fill="none" stroke="rgb(0,0,0)" stroke-width="50" d="M 8000,6692 L 8000,6641"/>
       <path fill="none" stroke="rgb(0,0,0)" stroke-width="50" d="M 8000,6590 L 8000,6539"/>
       <path fill="none" stroke="rgb(0,0,0)" stroke-width="50" d="M 8000,6488 L 8000,6437"/>
       <path fill="none" stroke="rgb(0,0,0)" stroke-width="50" d="M 8000,6386 L 8000,6335"/>
       <path fill="none" stroke="rgb(0,0,0)" stroke-width="50" d="M 8000,6284 L 8000,6233"/>
       <path fill="none" stroke="rgb(0,0,0)" stroke-width="50" d="M 8000,6182 L 8000,6131"/>
       <path fill="none" stroke="rgb(0,0,0)" stroke-width="50" d="M 8000,6080 L 8000,6029"/>
       <path fill="none" stroke="rgb(0,0,0)" stroke-width="50" d="M 8000,5978 L 8000,5927"/>
       <path fill="none" stroke="rgb(0,0,0)" stroke-width="50" d="M 8000,5876 L 8000,5825"/>
       <path fill="none" stroke="rgb(0,0,0)" stroke-width="50" d="M 8000,5774 L 8000,5723"/>
       <path fill="none" stroke="rgb(0,0,0)" stroke-width="50" d="M 8000,5672 L 8000,5621"/>
       <path fill="none" stroke="rgb(0,0,0)" stroke-width="50" d="M 8000,5570 L 8000,5519"/>
       <path fill="none" stroke="rgb(0,0,0)" stroke-width="50" d="M 8000,5468 L 8000,5417"/>
       <path fill="none" stroke="rgb(0,0,0)" stroke-width="50" d="M 8000,5366 L 8000,5315"/>
       <path fill="none" stroke="rgb(0,0,0)" stroke-width="50" d="M 8000,5264 L 8000,5213"/>
       <path fill="none" stroke="rgb(0,0,0)" stroke-width="50" d="M 8000,5162 L 8000,5111"/>
       <path fill="none" stroke="rgb(0,0,0)" stroke-width="50" d="M 8000,5060 L 8000,5009"/>
       <path fill="none" stroke="rgb(0,0,0)" stroke-width="50" d="M 8000,4958 L 8000,4907"/>
       <path fill="none" stroke="rgb(0,0,0)" stroke-width="50" d="M 8000,4856 L 8000,4805"/>
       <path fill="none" stroke="rgb(0,0,0)" stroke-width="50" d="M 8000,4754 L 8000,4703"/>
       <path fill="none" stroke="rgb(0,0,0)" stroke-width="50" d="M 8000,4652 L 8000,4601"/>
       <path fill="none" stroke="rgb(0,0,0)" stroke-width="50" d="M 8000,4550 L 8000,4499"/>
       <path fill="none" stroke="rgb(0,0,0)" stroke-width="50" d="M 8000,4448 L 8000,4397"/>
       <path fill="none" stroke="rgb(0,0,0)" stroke-width="50" d="M 8000,4346 L 8000,4295"/>
       <path fill="none" stroke="rgb(0,0,0)" stroke-width="50" d="M 8000,4244 L 8000,4193"/>
       <path fill="none" stroke="rgb(0,0,0)" stroke-width="50" d="M 8000,4142 L 8000,4091"/>
       <path fill="none" stroke="rgb(0,0,0)" stroke-width="50" d="M 8000,4040 L 8000,3989"/>
       <path fill="none" stroke="rgb(0,0,0)" stroke-width="50" d="M 8000,3938 L 8000,3887"/>
       <path fill="none" stroke="rgb(0,0,0)" stroke-width="50" d="M 8000,3836 L 8000,3785"/>
       <path fill="none" stroke="rgb(0,0,0)" stroke-width="50" d="M 8000,3734 L 8000,3683"/>
       <path fill="none" stroke="rgb(0,0,0)" stroke-width="50" d="M 8000,3632 L 8000,3581"/>
       <path fill="none" stroke="rgb(0,0,0)" stroke-width="50" d="M 8000,3530 L 8000,3479"/>
       <path fill="none" stroke="rgb(0,0,0)" stroke-width="50" d="M 8000,3428 L 8000,3377"/>
       <path fill="none" stroke="rgb(0,0,0)" stroke-width="50" d="M 8000,3326 L 8000,3275"/>
       <path fill="none" stroke="rgb(0,0,0)" stroke-width="50" d="M 8000,3224 L 8000,3173"/>
       <path fill="none" stroke="rgb(0,0,0)" stroke-width="50" d="M 8000,3122 L 8000,3071"/>
       <path fill="none" stroke="rgb(0,0,0)" stroke-width="50" d="M 8000,3020 L 8000,2969"/>
       <path fill="none" stroke="rgb(0,0,0)" stroke-width="50" d="M 8000,2918 L 8000,2867"/>
       <path fill="none" stroke="rgb(0,0,0)" stroke-width="50" d="M 8000,2816 L 8000,2765"/>
       <path fill="none" stroke="rgb(0,0,0)" stroke-width="50" d="M 8000,2714 L 8000,2663"/>
       <path fill="none" stroke="rgb(0,0,0)" stroke-width="50" d="M 8000,2612 L 8000,2561"/>
       <path fill="none" stroke="rgb(0,0,0)" stroke-width="50" d="M 8000,2510 L 8000,2459"/>
       <path fill="none" stroke="rgb(0,0,0)" stroke-width="50" d="M 8000,2408 L 8000,2357"/>
       <path fill="none" stroke="rgb(0,0,0)" stroke-width="50" d="M 8000,2306 L 8000,2255"/>
       <path fill="none" stroke="rgb(0,0,0)" stroke-width="50" d="M 8000,2204 L 8000,2153"/>
       <path fill="none" stroke="rgb(0,0,0)" stroke-width="50" d="M 8000,2102 L 8000,2051"/>
       <path fill="none" stroke="rgb(0,0,0)" stroke-width="50" d="M 8000,2000 L 8000,1949"/>
       <path fill="none" stroke="rgb(0,0,0)" stroke-width="50" d="M 8000,1898 L 8000,1847"/>
       <path fill="none" stroke="rgb(0,0,0)" stroke-width="50" d="M 8000,1796 L 8000,1745"/>
       <path fill="none" stroke="rgb(0,0,0)" stroke-width="50" d="M 8000,1694 L 8000,1643"/>
       <path fill="none" stroke="rgb(0,0,0)" stroke-width="50" d="M 8000,1592 L 8000,1541"/>
       <path fill="none" stroke="rgb(0,0,0)" stroke-width="50" d="M 8000,1490 L 8000,1439"/>
       <path fill="none" stroke="rgb(0,0,0)" stroke-width="50" d="M 8000,1388 L 8000,1337"/>
      </g>
     </g>
     <g class="com.sun.star.drawing.LineShape">
      <g id="id8">
       <path fill="none" stroke="rgb(0,0,0)" stroke-width="50" d="M 11300,6100 L 11249,6100"/>
       <path fill="none" stroke="rgb(0,0,0)" stroke-width="50" d="M 11198,6100 L 11147,6100"/>
       <path fill="none" stroke="rgb(0,0,0)" stroke-width="50" d="M 11096,6100 L 11045,6100"/>
       <path fill="none" stroke="rgb(0,0,0)" stroke-width="50" d="M 10994,6100 L 10943,6100"/>
       <path fill="none" stroke="rgb(0,0,0)" stroke-width="50" d="M 10892,6100 L 10841,6100"/>
       <path fill="none" stroke="rgb(0,0,0)" stroke-width="50" d="M 10790,6100 L 10739,6100"/>
       <path fill="none" stroke="rgb(0,0,0)" stroke-width="50" d="M 10688,6100 L 10637,6100"/>
       <path fill="none" stroke="rgb(0,0,0)" stroke-width="50" d="M 10586,6100 L 10535,6100"/>
       <path fill="none" stroke="rgb(0,0,0)" stroke-width="50" d="M 10484,6100 L 10433,6100"/>
       <path fill="none" stroke="rgb(0,0,0)" stroke-width="50" d="M 10382,6100 L 10331,6100"/>
       <path fill="none" stroke="rgb(0,0,0)" stroke-width="50" d="M 10280,6100 L 10229,6100"/>
       <path fill="none" stroke="rgb(0,0,0)" stroke-width="50" d="M 10178,6100 L 10127,6100"/>
       <path fill="none" stroke="rgb(0,0,0)" stroke-width="50" d="M 10076,6100 L 10025,6100"/>
       <path fill="none" stroke="rgb(0,0,0)" stroke-width="50" d="M 9974,6100 L 9923,6100"/>
       <path fill="none" stroke="rgb(0,0,0)" stroke-width="50" d="M 9872,6100 L 9821,6100"/>
       <path fill="none" stroke="rgb(0,0,0)" stroke-width="50" d="M 9770,6100 L 9719,6100"/>
       <path fill="none" stroke="rgb(0,0,0)" stroke-width="50" d="M 9668,6100 L 9617,6100"/>
       <path fill="none" stroke="rgb(0,0,0)" stroke-width="50" d="M 9566,6100 L 9515,6100"/>
       <path fill="none" stroke="rgb(0,0,0)" stroke-width="50" d="M 9464,6100 L 9413,6100"/>
       <path fill="none" stroke="rgb(0,0,0)" stroke-width="50" d="M 9362,6100 L 9311,6100"/>
       <path fill="none" stroke="rgb(0,0,0)" stroke-width="50" d="M 9260,6100 L 9209,6100"/>
       <path fill="none" stroke="rgb(0,0,0)" stroke-width="50" d="M 9158,6100 L 9107,6100"/>
       <path fill="none" stroke="rgb(0,0,0)" stroke-width="50" d="M 9056,6100 L 9005,6100"/>
       <path fill="none" stroke="rgb(0,0,0)" stroke-width="50" d="M 8954,6100 L 8903,6100"/>
       <path fill="none" stroke="rgb(0,0,0)" stroke-width="50" d="M 8852,6100 L 8801,6100"/>
       <path fill="none" stroke="rgb(0,0,0)" stroke-width="50" d="M 8750,6100 L 8699,6100"/>
       <path fill="none" stroke="rgb(0,0,0)" stroke-width="50" d="M 8648,6100 L 8597,6100"/>
       <path fill="none" stroke="rgb(0,0,0)" stroke-width="50" d="M 8546,6100 L 8495,6100"/>
       <path fill="none" stroke="rgb(0,0,0)" stroke-width="50" d="M 8444,6100 L 8393,6100"/>
       <path fill="none" stroke="rgb(0,0,0)" stroke-width="50" d="M 8342,6100 L 8291,6100"/>
       <path fill="none" stroke="rgb(0,0,0)" stroke-width="50" d="M 8240,6100 L 8189,6100"/>
       <path fill="none" stroke="rgb(0,0,0)" stroke-width="50" d="M 8138,6100 L 8087,6100"/>
       <path fill="none" stroke="rgb(0,0,0)" stroke-width="50" d="M 8036,6100 L 7985,6100"/>
       <path fill="none" stroke="rgb(0,0,0)" stroke-width="50" d="M 7934,6100 L 7883,6100"/>
       <path fill="none" stroke="rgb(0,0,0)" stroke-width="50" d="M 7832,6100 L 7781,6100"/>
       <path fill="none" stroke="rgb(0,0,0)" stroke-width="50" d="M 7730,6100 L 7679,6100"/>
       <path fill="none" stroke="rgb(0,0,0)" stroke-width="50" d="M 7628,6100 L 7577,6100"/>
       <path fill="none" stroke="rgb(0,0,0)" stroke-width="50" d="M 7526,6100 L 7475,6100"/>
       <path fill="none" stroke="rgb(0,0,0)" stroke-width="50" d="M 7424,6100 L 7373,6100"/>
       <path fill="none" stroke="rgb(0,0,0)" stroke-width="50" d="M 7322,6100 L 7271,6100"/>
       <path fill="none" stroke="rgb(0,0,0)" stroke-width="50" d="M 7220,6100 L 7169,6100"/>
       <path fill="none" stroke="rgb(0,0,0)" stroke-width="50" d="M 7118,6100 L 7067,6100"/>
       <path fill="none" stroke="rgb(0,0,0)" stroke-width="50" d="M 7016,6100 L 6965,6100"/>
       <path fill="none" stroke="rgb(0,0,0)" stroke-width="50" d="M 6914,6100 L 6863,6100"/>
       <path fill="none" stroke="rgb(0,0,0)" stroke-width="50" d="M 6812,6100 L 6761,6100"/>
       <path fill="none" stroke="rgb(0,0,0)" stroke-width="50" d="M 6710,6100 L 6659,6100"/>
       <path fill="none" stroke="rgb(0,0,0)" stroke-width="50" d="M 6608,6100 L 6557,6100"/>
       <path fill="none" stroke="rgb(0,0,0)" stroke-width="50" d="M 6506,6100 L 6455,6100"/>
       <path fill="none" stroke="rgb(0,0,0)" stroke-width="50" d="M 6404,6100 L 6353,6100"/>
       <path fill="none" stroke="rgb(0,0,0)" stroke-width="50" d="M 6302,6100 L 6251,6100"/>
       <path fill="none" stroke="rgb(0,0,0)" stroke-width="50" d="M 6200,6100 L 6149,6100"/>
       <path fill="none" stroke="rgb(0,0,0)" stroke-width="50" d="M 6098,6100 L 6047,6100"/>
       <path fill="none" stroke="rgb(0,0,0)" stroke-width="50" d="M 5996,6100 L 5945,6100"/>
       <path fill="none" stroke="rgb(0,0,0)" stroke-width="50" d="M 5894,6100 L 5843,6100"/>
       <path fill="none" stroke="rgb(0,0,0)" stroke-width="50" d="M 5792,6100 L 5741,6100"/>
       <path fill="none" stroke="rgb(0,0,0)" stroke-width="50" d="M 5690,6100 L 5639,6100"/>
       <path fill="none" stroke="rgb(0,0,0)" stroke-width="50" d="M 5588,6100 L 5537,6100"/>
       <path fill="none" stroke="rgb(0,0,0)" stroke-width="50" d="M 5486,6100 L 5435,6100"/>
       <path fill="none" stroke="rgb(0,0,0)" stroke-width="50" d="M 5384,6100 L 5333,6100"/>
       <path fill="none" stroke="rgb(0,0,0)" stroke-width="50" d="M 5282,6100 L 5231,6100"/>
       <path fill="none" stroke="rgb(0,0,0)" stroke-width="50" d="M 5180,6100 L 5129,6100"/>
       <path fill="none" stroke="rgb(0,0,0)" stroke-width="50" d="M 5078,6100 L 5027,6100"/>
       <path fill="none" stroke="rgb(0,0,0)" stroke-width="50" d="M 4976,6100 L 4925,6100"/>
       <path fill="none" stroke="rgb(0,0,0)" stroke-width="50" d="M 4874,6100 L 4823,6100"/>
       <path fill="none" stroke="rgb(0,0,0)" stroke-width="50" d="M 4772,6100 L 4721,6100"/>
       <path fill="none" stroke="rgb(0,0,0)" stroke-width="50" d="M 4670,6100 L 4619,6100"/>
       <path fill="none" stroke="rgb(0,0,0)" stroke-width="50" d="M 4568,6100 L 4517,6100"/>
      </g>
     </g>
     <g class="com.sun.star.drawing.TextShape">
      <g id="id9">
       <text class="TextShape"><tspan class="TextParagraph" font-family="Arial, sans-serif" font-size="388px" font-weight="400"><tspan class="TextPosition" x="5391" y="6768"><tspan fill="rgb(0,0,0)" stroke="none">Variables</tspan></tspan></tspan></text>
      </g>
     </g>
     <g class="com.sun.star.drawing.TextShape">
      <g id="id10">
       <text class="TextShape"><tspan class="TextParagraph" font-family="Arial, sans-serif" font-size="388px" font-weight="400"><tspan class="TextPosition" x="9291" y="6769"><tspan fill="rgb(0,0,0)" stroke="none">Values</tspan></tspan></tspan></text>
      </g>
     </g>
     <g class="com.sun.star.drawing.LineShape">
      <g id="id11">
       <path fill="none" stroke="rgb(0,0,0)" stroke-width="50" d="M 11300,4500 L 11249,4500"/>
       <path fill="none" stroke="rgb(0,0,0)" stroke-width="50" d="M 11198,4500 L 11147,4500"/>
       <path fill="none" stroke="rgb(0,0,0)" stroke-width="50" d="M 11096,4500 L 11045,4500"/>
       <path fill="none" stroke="rgb(0,0,0)" stroke-width="50" d="M 10994,4500 L 10943,4500"/>
       <path fill="none" stroke="rgb(0,0,0)" stroke-width="50" d="M 10892,4500 L 10841,4500"/>
       <path fill="none" stroke="rgb(0,0,0)" stroke-width="50" d="M 10790,4500 L 10739,4500"/>
       <path fill="none" stroke="rgb(0,0,0)" stroke-width="50" d="M 10688,4500 L 10637,4500"/>
       <path fill="none" stroke="rgb(0,0,0)" stroke-width="50" d="M 10586,4500 L 10535,4500"/>
       <path fill="none" stroke="rgb(0,0,0)" stroke-width="50" d="M 10484,4500 L 10433,4500"/>
       <path fill="none" stroke="rgb(0,0,0)" stroke-width="50" d="M 10382,4500 L 10331,4500"/>
       <path fill="none" stroke="rgb(0,0,0)" stroke-width="50" d="M 10280,4500 L 10229,4500"/>
       <path fill="none" stroke="rgb(0,0,0)" stroke-width="50" d="M 10178,4500 L 10127,4500"/>
       <path fill="none" stroke="rgb(0,0,0)" stroke-width="50" d="M 10076,4500 L 10025,4500"/>
       <path fill="none" stroke="rgb(0,0,0)" stroke-width="50" d="M 9974,4500 L 9923,4500"/>
       <path fill="none" stroke="rgb(0,0,0)" stroke-width="50" d="M 9872,4500 L 9821,4500"/>
       <path fill="none" stroke="rgb(0,0,0)" stroke-width="50" d="M 9770,4500 L 9719,4500"/>
       <path fill="none" stroke="rgb(0,0,0)" stroke-width="50" d="M 9668,4500 L 9617,4500"/>
       <path fill="none" stroke="rgb(0,0,0)" stroke-width="50" d="M 9566,4500 L 9515,4500"/>
       <path fill="none" stroke="rgb(0,0,0)" stroke-width="50" d="M 9464,4500 L 9413,4500"/>
       <path fill="none" stroke="rgb(0,0,0)" stroke-width="50" d="M 9362,4500 L 9311,4500"/>
       <path fill="none" stroke="rgb(0,0,0)" stroke-width="50" d="M 9260,4500 L 9209,4500"/>
       <path fill="none" stroke="rgb(0,0,0)" stroke-width="50" d="M 9158,4500 L 9107,4500"/>
       <path fill="none" stroke="rgb(0,0,0)" stroke-width="50" d="M 9056,4500 L 9005,4500"/>
       <path fill="none" stroke="rgb(0,0,0)" stroke-width="50" d="M 8954,4500 L 8903,4500"/>
       <path fill="none" stroke="rgb(0,0,0)" stroke-width="50" d="M 8852,4500 L 8801,4500"/>
       <path fill="none" stroke="rgb(0,0,0)" stroke-width="50" d="M 8750,4500 L 8699,4500"/>
       <path fill="none" stroke="rgb(0,0,0)" stroke-width="50" d="M 8648,4500 L 8597,4500"/>
       <path fill="none" stroke="rgb(0,0,0)" stroke-width="50" d="M 8546,4500 L 8495,4500"/>
       <path fill="none" stroke="rgb(0,0,0)" stroke-width="50" d="M 8444,4500 L 8393,4500"/>
       <path fill="none" stroke="rgb(0,0,0)" stroke-width="50" d="M 8342,4500 L 8291,4500"/>
       <path fill="none" stroke="rgb(0,0,0)" stroke-width="50" d="M 8240,4500 L 8189,4500"/>
       <path fill="none" stroke="rgb(0,0,0)" stroke-width="50" d="M 8138,4500 L 8087,4500"/>
       <path fill="none" stroke="rgb(0,0,0)" stroke-width="50" d="M 8036,4500 L 7985,4500"/>
       <path fill="none" stroke="rgb(0,0,0)" stroke-width="50" d="M 7934,4500 L 7883,4500"/>
       <path fill="none" stroke="rgb(0,0,0)" stroke-width="50" d="M 7832,4500 L 7781,4500"/>
       <path fill="none" stroke="rgb(0,0,0)" stroke-width="50" d="M 7730,4500 L 7679,4500"/>
       <path fill="none" stroke="rgb(0,0,0)" stroke-width="50" d="M 7628,4500 L 7577,4500"/>
       <path fill="none" stroke="rgb(0,0,0)" stroke-width="50" d="M 7526,4500 L 7475,4500"/>
       <path fill="none" stroke="rgb(0,0,0)" stroke-width="50" d="M 7424,4500 L 7373,4500"/>
       <path fill="none" stroke="rgb(0,0,0)" stroke-width="50" d="M 7322,4500 L 7271,4500"/>
       <path fill="none" stroke="rgb(0,0,0)" stroke-width="50" d="M 7220,4500 L 7169,4500"/>
       <path fill="none" stroke="rgb(0,0,0)" stroke-width="50" d="M 7118,4500 L 7067,4500"/>
       <path fill="none" stroke="rgb(0,0,0)" stroke-width="50" d="M 7016,4500 L 6965,4500"/>
       <path fill="none" stroke="rgb(0,0,0)" stroke-width="50" d="M 6914,4500 L 6863,4500"/>
       <path fill="none" stroke="rgb(0,0,0)" stroke-width="50" d="M 6812,4500 L 6761,4500"/>
       <path fill="none" stroke="rgb(0,0,0)" stroke-width="50" d="M 6710,4500 L 6659,4500"/>
       <path fill="none" stroke="rgb(0,0,0)" stroke-width="50" d="M 6608,4500 L 6557,4500"/>
       <path fill="none" stroke="rgb(0,0,0)" stroke-width="50" d="M 6506,4500 L 6455,4500"/>
       <path fill="none" stroke="rgb(0,0,0)" stroke-width="50" d="M 6404,4500 L 6353,4500"/>
       <path fill="none" stroke="rgb(0,0,0)" stroke-width="50" d="M 6302,4500 L 6251,4500"/>
       <path fill="none" stroke="rgb(0,0,0)" stroke-width="50" d="M 6200,4500 L 6149,4500"/>
       <path fill="none" stroke="rgb(0,0,0)" stroke-width="50" d="M 6098,4500 L 6047,4500"/>
       <path fill="none" stroke="rgb(0,0,0)" stroke-width="50" d="M 5996,4500 L 5945,4500"/>
       <path fill="none" stroke="rgb(0,0,0)" stroke-width="50" d="M 5894,4500 L 5843,4500"/>
       <path fill="none" stroke="rgb(0,0,0)" stroke-width="50" d="M 5792,4500 L 5741,4500"/>
       <path fill="none" stroke="rgb(0,0,0)" stroke-width="50" d="M 5690,4500 L 5639,4500"/>
       <path fill="none" stroke="rgb(0,0,0)" stroke-width="50" d="M 5588,4500 L 5537,4500"/>
       <path fill="none" stroke="rgb(0,0,0)" stroke-width="50" d="M 5486,4500 L 5435,4500"/>
       <path fill="none" stroke="rgb(0,0,0)" stroke-width="50" d="M 5384,4500 L 5333,4500"/>
       <path fill="none" stroke="rgb(0,0,0)" stroke-width="50" d="M 5282,4500 L 5231,4500"/>
       <path fill="none" stroke="rgb(0,0,0)" stroke-width="50" d="M 5180,4500 L 5129,4500"/>
       <path fill="none" stroke="rgb(0,0,0)" stroke-width="50" d="M 5078,4500 L 5027,4500"/>
       <path fill="none" stroke="rgb(0,0,0)" stroke-width="50" d="M 4976,4500 L 4925,4500"/>
       <path fill="none" stroke="rgb(0,0,0)" stroke-width="50" d="M 4874,4500 L 4823,4500"/>
       <path fill="none" stroke="rgb(0,0,0)" stroke-width="50" d="M 4772,4500 L 4721,4500"/>
       <path fill="none" stroke="rgb(0,0,0)" stroke-width="50" d="M 4670,4500 L 4619,4500"/>
       <path fill="none" stroke="rgb(0,0,0)" stroke-width="50" d="M 4568,4500 L 4517,4500"/>
      </g>
     </g>
     <g class="com.sun.star.drawing.CustomShape">
      <g id="id12">
       <path fill="none" stroke="rgb(0,0,0)" stroke-width="50" d="M 4159,2800 C 4129,2800 4098,2858 4098,2916 L 4098,3383 C 4098,3442 4068,3500 4038,3500 4068,3500 4098,3558 4098,3617 L 4098,4084 C 4098,4142 4129,4200 4159,4200"/>
       <path fill="none" stroke="rgb(0,0,0)" stroke-width="50" d="M 4038,2800 L 4038,2800 Z"/>
       <path fill="none" stroke="rgb(0,0,0)" stroke-width="50" d="M 4160,4201 L 4160,4201 Z"/>
      </g>
     </g>
     <g class="com.sun.star.drawing.TextShape">
      <g id="id13">
       <path fill="rgb(192,192,192)" stroke="none" d="M 6229,3801 L 5546,3801 5546,3118 6912,3118 6912,3801 6229,3801 Z"/>
       <text class="TextShape"><tspan class="TextParagraph" font-family="Arial, sans-serif" font-size="388px" font-weight="400"><tspan class="TextPosition" x="5796" y="3594"><tspan fill="rgb(0,0,0)" stroke="none">temp</tspan></tspan></tspan></text>
      </g>
     </g>
     <g class="com.sun.star.drawing.LineShape">
      <g id="id14">
       <path fill="none" stroke="rgb(0,0,0)" d="M 7200,3500 L 8864,4831"/>
       <path fill="rgb(0,0,0)" stroke="none" d="M 9200,5100 L 8942,4702 8755,4936 9200,5100 Z"/>
      </g>
     </g>
    </g>
   </g>
  </g>
 </g>
</svg>