<?xml version="1.0" encoding="UTF-8"?>
<!DOCTYPE svg PUBLIC "-//W3C//DTD SVG 1.1//EN" "http://www.w3.org/Graphics/SVG/1.1/DTD/svg11.dtd">
<svg version="1.2" width="215.9mm" height="279.4mm" viewBox="0 0 21590 27940" preserveAspectRatio="xMidYMid" fill-rule="evenodd" clip-path="url(#presentation_clip_path)" stroke-width="28.222" stroke-linejoin="round" xmlns="http://www.w3.org/2000/svg" xmlns:ooo="http://xml.openoffice.org/svg/export" xmlns:xlink="http://www.w3.org/1999/xlink" xml:space="preserve">
 <defs class="ClipPathGroup">
  <clipPath id="presentation_clip_path" clipPathUnits="userSpaceOnUse">
   <rect x="0" y="0" width="21590" height="27940"/>
  </clipPath>
 </defs>
 <defs class="TextShapeIndex">
  <g ooo:slide="id1" ooo:id-list="id3 id4 id5 id6 id7 id8 id9 id10 id11 id12 id13 id14 id15 id16 id17 id18 id19 id20 id21 id22 id23 id24 id25 id26"/>
 </defs>
 <defs class="EmbeddedBulletChars">
  <g id="bullet-char-template(57356)" transform="scale(0.00048828125,-0.00048828125)">
   <path d="M 580,1141 L 1163,571 580,0 -4,571 580,1141 Z"/>
  </g>
  <g id="bullet-char-template(57354)" transform="scale(0.00048828125,-0.00048828125)">
   <path d="M 8,1128 L 1137,1128 1137,0 8,0 8,1128 Z"/>
  </g>
  <g id="bullet-char-template(10146)" transform="scale(0.00048828125,-0.00048828125)">
   <path d="M 174,0 L 602,739 174,1481 1456,739 174,0 Z M 1358,739 L 309,1346 659,739 1358,739 Z"/>
  </g>
  <g id="bullet-char-template(10132)" transform="scale(0.00048828125,-0.00048828125)">
   <path d="M 2015,739 L 1276,0 717,0 1260,543 174,543 174,936 1260,936 717,1481 1274,1481 2015,739 Z"/>
  </g>
  <g id="bullet-char-template(10007)" transform="scale(0.00048828125,-0.00048828125)">
   <path d="M 0,-2 C -7,14 -16,27 -25,37 L 356,567 C 262,823 215,952 215,954 215,979 228,992 255,992 264,992 276,990 289,987 310,991 331,999 354,1012 L 381,999 492,748 772,1049 836,1024 860,1049 C 881,1039 901,1025 922,1006 886,937 835,863 770,784 769,783 710,716 594,584 L 774,223 C 774,196 753,168 711,139 L 727,119 C 717,90 699,76 672,76 641,76 570,178 457,381 L 164,-76 C 142,-110 111,-127 72,-127 30,-127 9,-110 8,-76 1,-67 -2,-52 -2,-32 -2,-23 -1,-13 0,-2 Z"/>
  </g>
  <g id="bullet-char-template(10004)" transform="scale(0.00048828125,-0.00048828125)">
   <path d="M 285,-33 C 182,-33 111,30 74,156 52,228 41,333 41,471 41,549 55,616 82,672 116,743 169,778 240,778 293,778 328,747 346,684 L 369,508 C 377,444 397,411 428,410 L 1163,1116 C 1174,1127 1196,1133 1229,1133 1271,1133 1292,1118 1292,1087 L 1292,965 C 1292,929 1282,901 1262,881 L 442,47 C 390,-6 338,-33 285,-33 Z"/>
  </g>
  <g id="bullet-char-template(9679)" transform="scale(0.00048828125,-0.00048828125)">
   <path d="M 813,0 C 632,0 489,54 383,161 276,268 223,411 223,592 223,773 276,916 383,1023 489,1130 632,1184 813,1184 992,1184 1136,1130 1245,1023 1353,916 1407,772 1407,592 1407,412 1353,268 1245,161 1136,54 992,0 813,0 Z"/>
  </g>
  <g id="bullet-char-template(8226)" transform="scale(0.00048828125,-0.00048828125)">
   <path d="M 346,457 C 273,457 209,483 155,535 101,586 74,649 74,723 74,796 101,859 155,911 209,963 273,989 346,989 419,989 480,963 531,910 582,859 608,796 608,723 608,648 583,586 532,535 482,483 420,457 346,457 Z"/>
  </g>
  <g id="bullet-char-template(8211)" transform="scale(0.00048828125,-0.00048828125)">
   <path d="M -4,459 L 1135,459 1135,606 -4,606 -4,459 Z"/>
  </g>
 </defs>
 <defs class="TextEmbeddedBitmaps"/>
 <g>
  <g id="id2" class="Master_Slide">
   <g id="bg-id2" class="Background"/>
   <g id="bo-id2" class="BackgroundObjects"/>
  </g>
 </g>
 <g class="SlideGroup">
  <g>
   <g id="id1" class="Slide" clip-path="url(#presentation_clip_path)">
    <g class="Page">
     <g class="com.sun.star.drawing.TextShape">
      <g id="id3">
       <text class="TextShape"><tspan class="TextParagraph" font-family="Arial, sans-serif" font-size="388px" font-weight="400"><tspan class="TextPosition" x="1150" y="1976"><tspan fill="rgb(0,0,0)" stroke="none">-3.0</tspan></tspan></tspan></text>
      </g>
     </g>
     <g class="com.sun.star.drawing.LineShape">
      <g id="id4">
       <path fill="none" stroke="rgb(0,0,0)" stroke-width="50" d="M 2000,2000 L 10000,2000"/>
      </g>
     </g>
     <g class="com.sun.star.drawing.LineShape">
      <g id="id5">
       <path fill="none" stroke="rgb(0,0,0)" stroke-width="50" d="M 2000,1700 L 2000,2000"/>
      </g>
     </g>
     <g class="com.sun.star.drawing.LineShape">
      <g id="id6">
       <path fill="none" stroke="rgb(0,0,0)" stroke-width="50" d="M 10000,1700 L 10000,2000"/>
      </g>
     </g>
     <g class="com.sun.star.drawing.TextShape">
      <g id="id7">
       <text class="TextShape"><tspan class="TextParagraph" font-family="Arial, sans-serif" font-size="388px" font-weight="400"><tspan class="TextPosition" x="10251" y="1977"><tspan fill="rgb(0,0,0)" stroke="none">5.0</tspan></tspan></tspan></text>
      </g>
     </g>
     <g class="com.sun.star.drawing.TextShape">
      <g id="id8">
       <text class="TextShape"><tspan class="TextParagraph" font-family="Arial, sans-serif" font-size="388px" font-weight="400"><tspan class="TextPosition" x="4250" y="2976"><tspan fill="rgb(0,0,0)" stroke="none">0.0</tspan></tspan></tspan></text>
      </g>
     </g>
     <g class="com.sun.star.drawing.LineShape">
      <g id="id9">
       <path fill="none" stroke="rgb(0,0,0)" stroke-width="50" d="M 5000,3000 L 9500,3000"/>
      </g>
     </g>
     <g class="com.sun.star.drawing.LineShape">
      <g id="id10">
       <path fill="none" stroke="rgb(0,0,0)" stroke-width="50" d="M 5000,2700 L 5000,3000"/>
      </g>
     </g>
     <g class="com.sun.star.drawing.LineShape">
      <g id="id11">
       <path fill="none" stroke="rgb(0,0,0)" stroke-width="50" d="M 9500,2700 L 9500,3000"/>
      </g>
     </g>
     <g class="com.sun.star.drawing.TextShape">
      <g id="id12">
       <text class="TextShape"><tspan class="TextParagraph" font-family="Arial, sans-serif" font-size="388px" font-weight="400"><tspan class="TextPosition" x="9751" y="2977"><tspan fill="rgb(0,0,0)" stroke="none">4.5</tspan></tspan></tspan></text>
      </g>
     </g>
     <g class="com.sun.star.drawing.TextShape">
      <g id="id13">
       <text class="TextShape"><tspan class="TextParagraph" font-family="Arial, sans-serif" font-size="388px" font-weight="400"><tspan class="TextPosition" x="2609" y="3976"><tspan fill="rgb(0,0,0)" stroke="none">-1.5</tspan></tspan></tspan></text>
      </g>
     </g>
     <g class="com.sun.star.drawing.LineShape">
      <g id="id14">
       <path fill="none" stroke="rgb(0,0,0)" stroke-width="50" d="M 3500,4000 L 7000,4000"/>
      </g>
     </g>
     <g class="com.sun.star.drawing.LineShape">
      <g id="id15">
       <path fill="none" stroke="rgb(0,0,0)" stroke-width="50" d="M 3500,3700 L 3500,4000"/>
      </g>
     </g>
     <g class="com.sun.star.drawing.LineShape">
      <g id="id16">
       <path fill="none" stroke="rgb(0,0,0)" stroke-width="50" d="M 7000,3700 L 7000,4000"/>
      </g>
     </g>
     <g class="com.sun.star.drawing.TextShape">
      <g id="id17">
       <text class="TextShape"><tspan class="TextParagraph" font-family="Arial, sans-serif" font-size="388px" font-weight="400"><tspan class="TextPosition" x="7210" y="3977"><tspan fill="rgb(0,0,0)" stroke="none">2.0</tspan></tspan></tspan></text>
      </g>
     </g>
     <g class="com.sun.star.drawing.LineShape">
      <g id="id18">
       <path fill="none" stroke="rgb(192,192,192)" stroke-width="50" d="M 5000,1400 L 5000,1451"/>
       <path fill="none" stroke="rgb(192,192,192)" stroke-width="50" d="M 5000,1502 L 5000,1553"/>
       <path fill="none" stroke="rgb(192,192,192)" stroke-width="50" d="M 5000,1604 L 5000,1655"/>
       <path fill="none" stroke="rgb(192,192,192)" stroke-width="50" d="M 5000,1706 L 5000,1757"/>
       <path fill="none" stroke="rgb(192,192,192)" stroke-width="50" d="M 5000,1808 L 5000,1859"/>
       <path fill="none" stroke="rgb(192,192,192)" stroke-width="50" d="M 5000,1910 L 5000,1961"/>
       <path fill="none" stroke="rgb(192,192,192)" stroke-width="50" d="M 5000,2012 L 5000,2063"/>
       <path fill="none" stroke="rgb(192,192,192)" stroke-width="50" d="M 5000,2114 L 5000,2165"/>
       <path fill="none" stroke="rgb(192,192,192)" stroke-width="50" d="M 5000,2216 L 5000,2267"/>
       <path fill="none" stroke="rgb(192,192,192)" stroke-width="50" d="M 5000,2318 L 5000,2369"/>
       <path fill="none" stroke="rgb(192,192,192)" stroke-width="50" d="M 5000,2420 L 5000,2471"/>
       <path fill="none" stroke="rgb(192,192,192)" stroke-width="50" d="M 5000,2522 L 5000,2573"/>
       <path fill="none" stroke="rgb(192,192,192)" stroke-width="50" d="M 5000,2624 L 5000,2675"/>
       <path fill="none" stroke="rgb(192,192,192)" stroke-width="50" d="M 5000,2726 L 5000,2777"/>
       <path fill="none" stroke="rgb(192,192,192)" stroke-width="50" d="M 5000,2828 L 5000,2879"/>
       <path fill="none" stroke="rgb(192,192,192)" stroke-width="50" d="M 5000,2930 L 5000,2981"/>
       <path fill="none" stroke="rgb(192,192,192)" stroke-width="50" d="M 5000,3032 L 5000,3083"/>
       <path fill="none" stroke="rgb(192,192,192)" stroke-width="50" d="M 5000,3134 L 5000,3185"/>
       <path fill="none" stroke="rgb(192,192,192)" stroke-width="50" d="M 5000,3236 L 5000,3287"/>
       <path fill="none" stroke="rgb(192,192,192)" stroke-width="50" d="M 5000,3338 L 5000,3389"/>
       <path fill="none" stroke="rgb(192,192,192)" stroke-width="50" d="M 5000,3440 L 5000,3491"/>
       <path fill="none" stroke="rgb(192,192,192)" stroke-width="50" d="M 5000,3542 L 5000,3593"/>
       <path fill="none" stroke="rgb(192,192,192)" stroke-width="50" d="M 5000,3644 L 5000,3695"/>
       <path fill="none" stroke="rgb(192,192,192)" stroke-width="50" d="M 5000,3746 L 5000,3797"/>
       <path fill="none" stroke="rgb(192,192,192)" stroke-width="50" d="M 5000,3848 L 5000,3899"/>
       <path fill="none" stroke="rgb(192,192,192)" stroke-width="50" d="M 5000,3950 L 5000,4001"/>
       <path fill="none" stroke="rgb(192,192,192)" stroke-width="50" d="M 5000,4052 L 5000,4103"/>
       <path fill="none" stroke="rgb(192,192,192)" stroke-width="50" d="M 5000,4154 L 5000,4205"/>
       <path fill="none" stroke="rgb(192,192,192)" stroke-width="50" d="M 5000,4256 L 5000,4307"/>
       <path fill="none" stroke="rgb(192,192,192)" stroke-width="50" d="M 5000,4358 L 5000,4409"/>
       <path fill="none" stroke="rgb(192,192,192)" stroke-width="50" d="M 5000,4460 L 5000,4511"/>
       <path fill="none" stroke="rgb(192,192,192)" stroke-width="50" d="M 5000,4562 L 5000,4613"/>
       <path fill="none" stroke="rgb(192,192,192)" stroke-width="50" d="M 5000,4664 L 5000,4715"/>
       <path fill="none" stroke="rgb(192,192,192)" stroke-width="50" d="M 5000,4766 L 5000,4817"/>
       <path fill="none" stroke="rgb(192,192,192)" stroke-width="50" d="M 5000,4868 L 5000,4919"/>
       <path fill="none" stroke="rgb(192,192,192)" stroke-width="50" d="M 5000,4970 L 5000,5021"/>
       <path fill="none" stroke="rgb(192,192,192)" stroke-width="50" d="M 5000,5072 L 5000,5123"/>
       <path fill="none" stroke="rgb(192,192,192)" stroke-width="50" d="M 5000,5174 L 5000,5225"/>
       <path fill="none" stroke="rgb(192,192,192)" stroke-width="50" d="M 5000,5276 L 5000,5327"/>
       <path fill="none" stroke="rgb(192,192,192)" stroke-width="50" d="M 5000,5378 L 5000,5429"/>
       <path fill="none" stroke="rgb(192,192,192)" stroke-width="50" d="M 5000,5480 L 5000,5531"/>
       <path fill="none" stroke="rgb(192,192,192)" stroke-width="50" d="M 5000,5582 L 5000,5633"/>
       <path fill="none" stroke="rgb(192,192,192)" stroke-width="50" d="M 5000,5684 L 5000,5700"/>
      </g>
     </g>
     <g class="com.sun.star.drawing.LineShape">
      <g id="id19">
       <path fill="none" stroke="rgb(192,192,192)" stroke-width="50" d="M 7000,1400 L 7000,1451"/>
       <path fill="none" stroke="rgb(192,192,192)" stroke-width="50" d="M 7000,1502 L 7000,1553"/>
       <path fill="none" stroke="rgb(192,192,192)" stroke-width="50" d="M 7000,1604 L 7000,1655"/>
       <path fill="none" stroke="rgb(192,192,192)" stroke-width="50" d="M 7000,1706 L 7000,1757"/>
       <path fill="none" stroke="rgb(192,192,192)" stroke-width="50" d="M 7000,1808 L 7000,1859"/>
       <path fill="none" stroke="rgb(192,192,192)" stroke-width="50" d="M 7000,1910 L 7000,1961"/>
       <path fill="none" stroke="rgb(192,192,192)" stroke-width="50" d="M 7000,2012 L 7000,2063"/>
       <path fill="none" stroke="rgb(192,192,192)" stroke-width="50" d="M 7000,2114 L 7000,2165"/>
       <path fill="none" stroke="rgb(192,192,192)" stroke-width="50" d="M 7000,2216 L 7000,2267"/>
       <path fill="none" stroke="rgb(192,192,192)" stroke-width="50" d="M 7000,2318 L 7000,2369"/>
       <path fill="none" stroke="rgb(192,192,192)" stroke-width="50" d="M 7000,2420 L 7000,2471"/>
       <path fill="none" stroke="rgb(192,192,192)" stroke-width="50" d="M 7000,2522 L 7000,2573"/>
       <path fill="none" stroke="rgb(192,192,192)" stroke-width="50" d="M 7000,2624 L 7000,2675"/>
       <path fill="none" stroke="rgb(192,192,192)" stroke-width="50" d="M 7000,2726 L 7000,2777"/>
       <path fill="none" stroke="rgb(192,192,192)" stroke-width="50" d="M 7000,2828 L 7000,2879"/>
       <path fill="none" stroke="rgb(192,192,192)" stroke-width="50" d="M 7000,2930 L 7000,2981"/>
       <path fill="none" stroke="rgb(192,192,192)" stroke-width="50" d="M 7000,3032 L 7000,3083"/>
       <path fill="none" stroke="rgb(192,192,192)" stroke-width="50" d="M 7000,3134 L 7000,3185"/>
       <path fill="none" stroke="rgb(192,192,192)" stroke-width="50" d="M 7000,3236 L 7000,3287"/>
       <path fill="none" stroke="rgb(192,192,192)" stroke-width="50" d="M 7000,3338 L 7000,3389"/>
       <path fill="none" stroke="rgb(192,192,192)" stroke-width="50" d="M 7000,3440 L 7000,3491"/>
       <path fill="none" stroke="rgb(192,192,192)" stroke-width="50" d="M 7000,3542 L 7000,3593"/>
       <path fill="none" stroke="rgb(192,192,192)" stroke-width="50" d="M 7000,3644 L 7000,3695"/>
       <path fill="none" stroke="rgb(192,192,192)" stroke-width="50" d="M 7000,3746 L 7000,3797"/>
       <path fill="none" stroke="rgb(192,192,192)" stroke-width="50" d="M 7000,3848 L 7000,3899"/>
       <path fill="none" stroke="rgb(192,192,192)" stroke-width="50" d="M 7000,3950 L 7000,4001"/>
       <path fill="none" stroke="rgb(192,192,192)" stroke-width="50" d="M 7000,4052 L 7000,4103"/>
       <path fill="none" stroke="rgb(192,192,192)" stroke-width="50" d="M 7000,4154 L 7000,4205"/>
       <path fill="none" stroke="rgb(192,192,192)" stroke-width="50" d="M 7000,4256 L 7000,4307"/>
       <path fill="none" stroke="rgb(192,192,192)" stroke-width="50" d="M 7000,4358 L 7000,4409"/>
       <path fill="none" stroke="rgb(192,192,192)" stroke-width="50" d="M 7000,4460 L 7000,4511"/>
       <path fill="none" stroke="rgb(192,192,192)" stroke-width="50" d="M 7000,4562 L 7000,4613"/>
       <path fill="none" stroke="rgb(192,192,192)" stroke-width="50" d="M 7000,4664 L 7000,4715"/>
       <path fill="none" stroke="rgb(192,192,192)" stroke-width="50" d="M 7000,4766 L 7000,4817"/>
       <path fill="none" stroke="rgb(192,192,192)" stroke-width="50" d="M 7000,4868 L 7000,4919"/>
       <path fill="none" stroke="rgb(192,192,192)" stroke-width="50" d="M 7000,4970 L 7000,5021"/>
       <path fill="none" stroke="rgb(192,192,192)" stroke-width="50" d="M 7000,5072 L 7000,5123"/>
       <path fill="none" stroke="rgb(192,192,192)" stroke-width="50" d="M 7000,5174 L 7000,5225"/>
       <path fill="none" stroke="rgb(192,192,192)" stroke-width="50" d="M 7000,5276 L 7000,5327"/>
       <path fill="none" stroke="rgb(192,192,192)" stroke-width="50" d="M 7000,5378 L 7000,5429"/>
       <path fill="none" stroke="rgb(192,192,192)" stroke-width="50" d="M 7000,5480 L 7000,5531"/>
       <path fill="none" stroke="rgb(192,192,192)" stroke-width="50" d="M 7000,5582 L 7000,5633"/>
       <path fill="none" stroke="rgb(192,192,192)" stroke-width="50" d="M 7000,5684 L 7000,5700"/>
      </g>
     </g>
     <g class="com.sun.star.drawing.LineShape">
      <g id="id20">
       <path fill="none" stroke="rgb(0,0,0)" stroke-width="50" d="M 5000,5700 L 7000,5700"/>
      </g>
     </g>
     <g class="com.sun.star.drawing.LineShape">
      <g id="id21">
       <path fill="none" stroke="rgb(0,0,0)" stroke-width="50" d="M 5000,5400 L 5000,5700"/>
      </g>
     </g>
     <g class="com.sun.star.drawing.LineShape">
      <g id="id22">
       <path fill="none" stroke="rgb(0,0,0)" stroke-width="50" d="M 7000,5400 L 7000,5700"/>
      </g>
     </g>
     <g class="com.sun.star.drawing.TextShape">
      <g id="id23">
       <text class="TextShape"><tspan class="TextParagraph" font-family="Arial, sans-serif" font-size="388px" font-weight="400"><tspan class="TextPosition" x="4250" y="5677"><tspan fill="rgb(0,0,0)" stroke="none">0.0</tspan></tspan></tspan></text>
      </g>
     </g>
     <g class="com.sun.star.drawing.LineShape">
      <g id="id24">
       <path fill="none" stroke="rgb(0,0,0)" stroke-width="50" d="M 7000,5401 L 7000,5701"/>
      </g>
     </g>
     <g class="com.sun.star.drawing.TextShape">
      <g id="id25">
       <text class="TextShape"><tspan class="TextParagraph" font-family="Arial, sans-serif" font-size="388px" font-weight="400"><tspan class="TextPosition" x="7210" y="5678"><tspan fill="rgb(0,0,0)" stroke="none">2.0</tspan></tspan></tspan></text>
      </g>
     </g>
     <g class="com.sun.star.drawing.LineShape">
      <g id="id26">
       <path fill="none" stroke="rgb(192,192,192)" stroke-width="50" d="M 1600,4800 L 1651,4800"/>
       <path fill="none" stroke="rgb(192,192,192)" stroke-width="50" d="M 1702,4800 L 1753,4800"/>
       <path fill="none" stroke="rgb(192,192,192)" stroke-width="50" d="M 1804,4800 L 1855,4800"/>
       <path fill="none" stroke="rgb(192,192,192)" stroke-width="50" d="M 1906,4800 L 1957,4800"/>
       <path fill="none" stroke="rgb(192,192,192)" stroke-width="50" d="M 2008,4800 L 2059,4800"/>
       <path fill="none" stroke="rgb(192,192,192)" stroke-width="50" d="M 2110,4800 L 2161,4800"/>
       <path fill="none" stroke="rgb(192,192,192)" stroke-width="50" d="M 2212,4800 L 2263,4800"/>
       <path fill="none" stroke="rgb(192,192,192)" stroke-width="50" d="M 2314,4800 L 2365,4800"/>
       <path fill="none" stroke="rgb(192,192,192)" stroke-width="50" d="M 2416,4800 L 2467,4800"/>
       <path fill="none" stroke="rgb(192,192,192)" stroke-width="50" d="M 2518,4800 L 2569,4800"/>
       <path fill="none" stroke="rgb(192,192,192)" stroke-width="50" d="M 2620,4800 L 2671,4800"/>
       <path fill="none" stroke="rgb(192,192,192)" stroke-width="50" d="M 2722,4800 L 2773,4800"/>
       <path fill="none" stroke="rgb(192,192,192)" stroke-width="50" d="M 2824,4800 L 2875,4800"/>
       <path fill="none" stroke="rgb(192,192,192)" stroke-width="50" d="M 2926,4800 L 2977,4800"/>
       <path fill="none" stroke="rgb(192,192,192)" stroke-width="50" d="M 3028,4800 L 3079,4800"/>
       <path fill="none" stroke="rgb(192,192,192)" stroke-width="50" d="M 3130,4800 L 3181,4800"/>
       <path fill="none" stroke="rgb(192,192,192)" stroke-width="50" d="M 3232,4800 L 3283,4800"/>
       <path fill="none" stroke="rgb(192,192,192)" stroke-width="50" d="M 3334,4800 L 3385,4800"/>
       <path fill="none" stroke="rgb(192,192,192)" stroke-width="50" d="M 3436,4800 L 3487,4800"/>
       <path fill="none" stroke="rgb(192,192,192)" stroke-width="50" d="M 3538,4800 L 3589,4800"/>
       <path fill="none" stroke="rgb(192,192,192)" stroke-width="50" d="M 3640,4800 L 3691,4800"/>
       <path fill="none" stroke="rgb(192,192,192)" stroke-width="50" d="M 3742,4800 L 3793,4800"/>
       <path fill="none" stroke="rgb(192,192,192)" stroke-width="50" d="M 3844,4800 L 3895,4800"/>
       <path fill="none" stroke="rgb(192,192,192)" stroke-width="50" d="M 3946,4800 L 3997,4800"/>
       <path fill="none" stroke="rgb(192,192,192)" stroke-width="50" d="M 4048,4800 L 4099,4800"/>
       <path fill="none" stroke="rgb(192,192,192)" stroke-width="50" d="M 4150,4800 L 4201,4800"/>
       <path fill="none" stroke="rgb(192,192,192)" stroke-width="50" d="M 4252,4800 L 4303,4800"/>
       <path fill="none" stroke="rgb(192,192,192)" stroke-width="50" d="M 4354,4800 L 4405,4800"/>
       <path fill="none" stroke="rgb(192,192,192)" stroke-width="50" d="M 4456,4800 L 4507,4800"/>
       <path fill="none" stroke="rgb(192,192,192)" stroke-width="50" d="M 4558,4800 L 4609,4800"/>
       <path fill="none" stroke="rgb(192,192,192)" stroke-width="50" d="M 4660,4800 L 4711,4800"/>
       <path fill="none" stroke="rgb(192,192,192)" stroke-width="50" d="M 4762,4800 L 4813,4800"/>
       <path fill="none" stroke="rgb(192,192,192)" stroke-width="50" d="M 4864,4800 L 4915,4800"/>
       <path fill="none" stroke="rgb(192,192,192)" stroke-width="50" d="M 4966,4800 L 5017,4800"/>
       <path fill="none" stroke="rgb(192,192,192)" stroke-width="50" d="M 5068,4800 L 5119,4800"/>
       <path fill="none" stroke="rgb(192,192,192)" stroke-width="50" d="M 5170,4800 L 5221,4800"/>
       <path fill="none" stroke="rgb(192,192,192)" stroke-width="50" d="M 5272,4800 L 5323,4800"/>
       <path fill="none" stroke="rgb(192,192,192)" stroke-width="50" d="M 5374,4800 L 5425,4800"/>
       <path fill="none" stroke="rgb(192,192,192)" stroke-width="50" d="M 5476,4800 L 5527,4800"/>
       <path fill="none" stroke="rgb(192,192,192)" stroke-width="50" d="M 5578,4800 L 5629,4800"/>
       <path fill="none" stroke="rgb(192,192,192)" stroke-width="50" d="M 5680,4800 L 5731,4800"/>
       <path fill="none" stroke="rgb(192,192,192)" stroke-width="50" d="M 5782,4800 L 5833,4800"/>
       <path fill="none" stroke="rgb(192,192,192)" stroke-width="50" d="M 5884,4800 L 5935,4800"/>
       <path fill="none" stroke="rgb(192,192,192)" stroke-width="50" d="M 5986,4800 L 6037,4800"/>
       <path fill="none" stroke="rgb(192,192,192)" stroke-width="50" d="M 6088,4800 L 6139,4800"/>
       <path fill="none" stroke="rgb(192,192,192)" stroke-width="50" d="M 6190,4800 L 6241,4800"/>
       <path fill="none" stroke="rgb(192,192,192)" stroke-width="50" d="M 6292,4800 L 6343,4800"/>
       <path fill="none" stroke="rgb(192,192,192)" stroke-width="50" d="M 6394,4800 L 6445,4800"/>
       <path fill="none" stroke="rgb(192,192,192)" stroke-width="50" d="M 6496,4800 L 6547,4800"/>
       <path fill="none" stroke="rgb(192,192,192)" stroke-width="50" d="M 6598,4800 L 6649,4800"/>
       <path fill="none" stroke="rgb(192,192,192)" stroke-width="50" d="M 6700,4800 L 6751,4800"/>
       <path fill="none" stroke="rgb(192,192,192)" stroke-width="50" d="M 6802,4800 L 6853,4800"/>
       <path fill="none" stroke="rgb(192,192,192)" stroke-width="50" d="M 6904,4800 L 6955,4800"/>
       <path fill="none" stroke="rgb(192,192,192)" stroke-width="50" d="M 7006,4800 L 7057,4800"/>
       <path fill="none" stroke="rgb(192,192,192)" stroke-width="50" d="M 7108,4800 L 7159,4800"/>
       <path fill="none" stroke="rgb(192,192,192)" stroke-width="50" d="M 7210,4800 L 7261,4800"/>
       <path fill="none" stroke="rgb(192,192,192)" stroke-width="50" d="M 7312,4800 L 7363,4800"/>
       <path fill="none" stroke="rgb(192,192,192)" stroke-width="50" d="M 7414,4800 L 7465,4800"/>
       <path fill="none" stroke="rgb(192,192,192)" stroke-width="50" d="M 7516,4800 L 7567,4800"/>
       <path fill="none" stroke="rgb(192,192,192)" stroke-width="50" d="M 7618,4800 L 7669,4800"/>
       <path fill="none" stroke="rgb(192,192,192)" stroke-width="50" d="M 7720,4800 L 7771,4800"/>
       <path fill="none" stroke="rgb(192,192,192)" stroke-width="50" d="M 7822,4800 L 7873,4800"/>
       <path fill="none" stroke="rgb(192,192,192)" stroke-width="50" d="M 7924,4800 L 7975,4800"/>
       <path fill="none" stroke="rgb(192,192,192)" stroke-width="50" d="M 8026,4800 L 8077,4800"/>
       <path fill="none" stroke="rgb(192,192,192)" stroke-width="50" d="M 8128,4800 L 8179,4800"/>
       <path fill="none" stroke="rgb(192,192,192)" stroke-width="50" d="M 8230,4800 L 8281,4800"/>
       <path fill="none" stroke="rgb(192,192,192)" stroke-width="50" d="M 8332,4800 L 8383,4800"/>
       <path fill="none" stroke="rgb(192,192,192)" stroke-width="50" d="M 8434,4800 L 8485,4800"/>
       <path fill="none" stroke="rgb(192,192,192)" stroke-width="50" d="M 8536,4800 L 8587,4800"/>
       <path fill="none" stroke="rgb(192,192,192)" stroke-width="50" d="M 8638,4800 L 8689,4800"/>
       <path fill="none" stroke="rgb(192,192,192)" stroke-width="50" d="M 8740,4800 L 8791,4800"/>
       <path fill="none" stroke="rgb(192,192,192)" stroke-width="50" d="M 8842,4800 L 8893,4800"/>
       <path fill="none" stroke="rgb(192,192,192)" stroke-width="50" d="M 8944,4800 L 8995,4800"/>
       <path fill="none" stroke="rgb(192,192,192)" stroke-width="50" d="M 9046,4800 L 9097,4800"/>
       <path fill="none" stroke="rgb(192,192,192)" stroke-width="50" d="M 9148,4800 L 9199,4800"/>
       <path fill="none" stroke="rgb(192,192,192)" stroke-width="50" d="M 9250,4800 L 9301,4800"/>
       <path fill="none" stroke="rgb(192,192,192)" stroke-width="50" d="M 9352,4800 L 9403,4800"/>
       <path fill="none" stroke="rgb(192,192,192)" stroke-width="50" d="M 9454,4800 L 9505,4800"/>
       <path fill="none" stroke="rgb(192,192,192)" stroke-width="50" d="M 9556,4800 L 9607,4800"/>
       <path fill="none" stroke="rgb(192,192,192)" stroke-width="50" d="M 9658,4800 L 9709,4800"/>
       <path fill="none" stroke="rgb(192,192,192)" stroke-width="50" d="M 9760,4800 L 9811,4800"/>
       <path fill="none" stroke="rgb(192,192,192)" stroke-width="50" d="M 9862,4800 L 9913,4800"/>
       <path fill="none" stroke="rgb(192,192,192)" stroke-width="50" d="M 9964,4800 L 10015,4800"/>
       <path fill="none" stroke="rgb(192,192,192)" stroke-width="50" d="M 10066,4800 L 10117,4800"/>
       <path fill="none" stroke="rgb(192,192,192)" stroke-width="50" d="M 10168,4800 L 10219,4800"/>
       <path fill="none" stroke="rgb(192,192,192)" stroke-width="50" d="M 10270,4800 L 10321,4800"/>
       <path fill="none" stroke="rgb(192,192,192)" stroke-width="50" d="M 10372,4800 L 10423,4800"/>
       <path fill="none" stroke="rgb(192,192,192)" stroke-width="50" d="M 10474,4800 L 10525,4800"/>
       <path fill="none" stroke="rgb(192,192,192)" stroke-width="50" d="M 10576,4800 L 10627,4800"/>
       <path fill="none" stroke="rgb(192,192,192)" stroke-width="50" d="M 10678,4800 L 10729,4800"/>
       <path fill="none" stroke="rgb(192,192,192)" stroke-width="50" d="M 10780,4800 L 10800,4800"/>
      </g>
     </g>
    </g>
   </g>
  </g>
 </g>
</svg>