<?xml version="1.0" encoding="UTF-8"?>
<!DOCTYPE svg PUBLIC "-//W3C//DTD SVG 1.1//EN" "http://www.w3.org/Graphics/SVG/1.1/DTD/svg11.dtd">
<svg version="1.2" width="215.9mm" height="279.4mm" viewBox="0 0 21590 27940" preserveAspectRatio="xMidYMid" fill-rule="evenodd" clip-path="url(#presentation_clip_path)" stroke-width="28.222" stroke-linejoin="round" xmlns="http://www.w3.org/2000/svg" xmlns:ooo="http://xml.openoffice.org/svg/export" xmlns:xlink="http://www.w3.org/1999/xlink" xml:space="preserve">
 <defs class="ClipPathGroup">
  <clipPath id="presentation_clip_path" clipPathUnits="userSpaceOnUse">
   <rect x="0" y="0" width="21590" height="27940"/>
  </clipPath>
 </defs>
 <defs class="TextShapeIndex">
  <g ooo:slide="id1" ooo:id-list="id3 id4 id5 id6 id7 id8 id9"/>
 </defs>
 <defs class="EmbeddedBulletChars">
  <g id="bullet-char-template(57356)" transform="scale(0.00048828125,-0.00048828125)">
   <path d="M 580,1141 L 1163,571 580,0 -4,571 580,1141 Z"/>
  </g>
  <g id="bullet-char-template(57354)" transform="scale(0.00048828125,-0.00048828125)">
   <path d="M 8,1128 L 1137,1128 1137,0 8,0 8,1128 Z"/>
  </g>
  <g id="bullet-char-template(10146)" transform="scale(0.00048828125,-0.00048828125)">
   <path d="M 174,0 L 602,739 174,1481 1456,739 174,0 Z M 1358,739 L 309,1346 659,739 1358,739 Z"/>
  </g>
  <g id="bullet-char-template(10132)" transform="scale(0.00048828125,-0.00048828125)">
   <path d="M 2015,739 L 1276,0 717,0 1260,543 174,543 174,936 1260,936 717,1481 1274,1481 2015,739 Z"/>
  </g>
  <g id="bullet-char-template(10007)" transform="scale(0.00048828125,-0.00048828125)">
   <path d="M 0,-2 C -7,14 -16,27 -25,37 L 356,567 C 262,823 215,952 215,954 215,979 228,992 255,992 264,992 276,990 289,987 310,991 331,999 354,1012 L 381,999 492,748 772,1049 836,1024 860,1049 C 881,1039 901,1025 922,1006 886,937 835,863 770,784 769,783 710,716 594,584 L 774,223 C 774,196 753,168 711,139 L 727,119 C 717,90 699,76 672,76 641,76 570,178 457,381 L 164,-76 C 142,-110 111,-127 72,-127 30,-127 9,-110 8,-76 1,-67 -2,-52 -2,-32 -2,-23 -1,-13 0,-2 Z"/>
  </g>
  <g id="bullet-char-template(10004)" transform="scale(0.00048828125,-0.00048828125)">
   <path d="M 285,-33 C 182,-33 111,30 74,156 52,228 41,333 41,471 41,549 55,616 82,672 116,743 169,778 240,778 293,778 328,747 346,684 L 369,508 C 377,444 397,411 428,410 L 1163,1116 C 1174,1127 1196,1133 1229,1133 1271,1133 1292,1118 1292,1087 L 1292,965 C 1292,929 1282,901 1262,881 L 442,47 C 390,-6 338,-33 285,-33 Z"/>
  </g>
  <g id="bullet-char-template(9679)" transform="scale(0.00048828125,-0.00048828125)">
   <path d="M 813,0 C 632,0 489,54 383,161 276,268 223,411 223,592 223,773 276,916 383,1023 489,1130 632,1184 813,1184 992,1184 1136,1130 1245,1023 1353,916 1407,772 1407,592 1407,412 1353,268 1245,161 1136,54 992,0 813,0 Z"/>
  </g>
  <g id="bullet-char-template(8226)" transform="scale(0.00048828125,-0.00048828125)">
   <path d="M 346,457 C 273,457 209,483 155,535 101,586 74,649 74,723 74,796 101,859 155,911 209,963 273,989 346,989 419,989 480,963 531,910 582,859 608,796 608,723 608,648 583,586 532,535 482,483 420,457 346,457 Z"/>
  </g>
  <g id="bullet-char-template(8211)" transform="scale(0.00048828125,-0.00048828125)">
   <path d="M -4,459 L 1135,459 1135,606 -4,606 -4,459 Z"/>
  </g>
 </defs>
 <defs class="TextEmbeddedBitmaps"/>
 <g>
  <g id="id2" class="Master_Slide">
   <g id="bg-id2" class="Background"/>
   <g id="bo-id2" class="BackgroundObjects"/>
  </g>
 </g>
 <g class="SlideGroup">
  <g>
   <g id="id1" class="Slide" clip-path="url(#presentation_clip_path)">
    <g class="Page">
     <g class="com.sun.star.drawing.LineShape">
      <g id="id3">
       <path fill="none" stroke="rgb(0,0,0)" d="M 3900,5300 L 5370,5300"/>
       <path fill="rgb(0,0,0)" stroke="none" d="M 5800,5300 L 5350,5150 5350,5450 5800,5300 Z"/>
      </g>
     </g>
     <g class="com.sun.star.drawing.TextShape">
      <g id="id4">
       <path fill="rgb(192,192,192)" stroke="none" d="M 2823,5700 L 1945,5700 1945,5017 3700,5017 3700,5700 2823,5700 Z"/>
       <text class="TextShape"><tspan class="TextParagraph" font-family="Arial, sans-serif" font-size="388px" font-weight="400"><tspan class="TextPosition" x="2195" y="5493"><tspan fill="rgb(0,0,0)" stroke="none">original</tspan></tspan></tspan></text>
      </g>
     </g>
     <g class="com.sun.star.drawing.TextShape">
      <g id="id5">
       <path fill="none" stroke="rgb(0,0,0)" stroke-width="50" d="M 6492,5700 L 6000,5700 6000,4967 6984,4967 6984,5700 6492,5700 Z"/>
       <text class="TextShape"><tspan class="TextParagraph" font-family="Arial, sans-serif" font-size="388px" font-weight="400"><tspan class="TextPosition" x="6275" y="5468"><tspan fill="rgb(0,0,0)" stroke="none">32</tspan></tspan></tspan></text>
      </g>
     </g>
     <g class="com.sun.star.drawing.LineShape">
      <g id="id6">
       <path fill="none" stroke="rgb(0,0,0)" stroke-width="50" d="M 4600,7100 L 4600,7049"/>
       <path fill="none" stroke="rgb(0,0,0)" stroke-width="50" d="M 4600,6998 L 4600,6947"/>
       <path fill="none" stroke="rgb(0,0,0)" stroke-width="50" d="M 4600,6896 L 4600,6845"/>
       <path fill="none" stroke="rgb(0,0,0)" stroke-width="50" d="M 4600,6794 L 4600,6743"/>
       <path fill="none" stroke="rgb(0,0,0)" stroke-width="50" d="M 4600,6692 L 4600,6641"/>
       <path fill="none" stroke="rgb(0,0,0)" stroke-width="50" d="M 4600,6590 L 4600,6539"/>
       <path fill="none" stroke="rgb(0,0,0)" stroke-width="50" d="M 4600,6488 L 4600,6437"/>
       <path fill="none" stroke="rgb(0,0,0)" stroke-width="50" d="M 4600,6386 L 4600,6335"/>
       <path fill="none" stroke="rgb(0,0,0)" stroke-width="50" d="M 4600,6284 L 4600,6233"/>
       <path fill="none" stroke="rgb(0,0,0)" stroke-width="50" d="M 4600,6182 L 4600,6131"/>
       <path fill="none" stroke="rgb(0,0,0)" stroke-width="50" d="M 4600,6080 L 4600,6029"/>
       <path fill="none" stroke="rgb(0,0,0)" stroke-width="50" d="M 4600,5978 L 4600,5927"/>
       <path fill="none" stroke="rgb(0,0,0)" stroke-width="50" d="M 4600,5876 L 4600,5825"/>
       <path fill="none" stroke="rgb(0,0,0)" stroke-width="50" d="M 4600,5774 L 4600,5723"/>
       <path fill="none" stroke="rgb(0,0,0)" stroke-width="50" d="M 4600,5672 L 4600,5621"/>
       <path fill="none" stroke="rgb(0,0,0)" stroke-width="50" d="M 4600,5570 L 4600,5519"/>
       <path fill="none" stroke="rgb(0,0,0)" stroke-width="50" d="M 4600,5468 L 4600,5417"/>
       <path fill="none" stroke="rgb(0,0,0)" stroke-width="50" d="M 4600,5366 L 4600,5315"/>
       <path fill="none" stroke="rgb(0,0,0)" stroke-width="50" d="M 4600,5264 L 4600,5213"/>
       <path fill="none" stroke="rgb(0,0,0)" stroke-width="50" d="M 4600,5162 L 4600,5111"/>
       <path fill="none" stroke="rgb(0,0,0)" stroke-width="50" d="M 4600,5060 L 4600,5009"/>
       <path fill="none" stroke="rgb(0,0,0)" stroke-width="50" d="M 4600,4958 L 4600,4907"/>
       <path fill="none" stroke="rgb(0,0,0)" stroke-width="50" d="M 4600,4856 L 4600,4805"/>
       <path fill="none" stroke="rgb(0,0,0)" stroke-width="50" d="M 4600,4754 L 4600,4703"/>
       <path fill="none" stroke="rgb(0,0,0)" stroke-width="50" d="M 4600,4652 L 4600,4601"/>
       <path fill="none" stroke="rgb(0,0,0)" stroke-width="50" d="M 4600,4550 L 4600,4499"/>
       <path fill="none" stroke="rgb(0,0,0)" stroke-width="50" d="M 4600,4448 L 4600,4397"/>
       <path fill="none" stroke="rgb(0,0,0)" stroke-width="50" d="M 4600,4346 L 4600,4295"/>
       <path fill="none" stroke="rgb(0,0,0)" stroke-width="50" d="M 4600,4244 L 4600,4193"/>
       <path fill="none" stroke="rgb(0,0,0)" stroke-width="50" d="M 4600,4142 L 4600,4091"/>
       <path fill="none" stroke="rgb(0,0,0)" stroke-width="50" d="M 4600,4040 L 4600,3989"/>
       <path fill="none" stroke="rgb(0,0,0)" stroke-width="50" d="M 4600,3938 L 4600,3887"/>
       <path fill="none" stroke="rgb(0,0,0)" stroke-width="50" d="M 4600,3836 L 4600,3785"/>
       <path fill="none" stroke="rgb(0,0,0)" stroke-width="50" d="M 4600,3734 L 4600,3683"/>
       <path fill="none" stroke="rgb(0,0,0)" stroke-width="50" d="M 4600,3632 L 4600,3581"/>
       <path fill="none" stroke="rgb(0,0,0)" stroke-width="50" d="M 4600,3530 L 4600,3479"/>
       <path fill="none" stroke="rgb(0,0,0)" stroke-width="50" d="M 4600,3428 L 4600,3377"/>
       <path fill="none" stroke="rgb(0,0,0)" stroke-width="50" d="M 4600,3326 L 4600,3275"/>
       <path fill="none" stroke="rgb(0,0,0)" stroke-width="50" d="M 4600,3224 L 4600,3173"/>
       <path fill="none" stroke="rgb(0,0,0)" stroke-width="50" d="M 4600,3122 L 4600,3071"/>
       <path fill="none" stroke="rgb(0,0,0)" stroke-width="50" d="M 4600,3020 L 4600,2969"/>
       <path fill="none" stroke="rgb(0,0,0)" stroke-width="50" d="M 4600,2918 L 4600,2867"/>
       <path fill="none" stroke="rgb(0,0,0)" stroke-width="50" d="M 4600,2816 L 4600,2765"/>
       <path fill="none" stroke="rgb(0,0,0)" stroke-width="50" d="M 4600,2714 L 4600,2663"/>
       <path fill="none" stroke="rgb(0,0,0)" stroke-width="50" d="M 4600,2612 L 4600,2561"/>
       <path fill="none" stroke="rgb(0,0,0)" stroke-width="50" d="M 4600,2510 L 4600,2459"/>
       <path fill="none" stroke="rgb(0,0,0)" stroke-width="50" d="M 4600,2408 L 4600,2357"/>
       <path fill="none" stroke="rgb(0,0,0)" stroke-width="50" d="M 4600,2306 L 4600,2255"/>
       <path fill="none" stroke="rgb(0,0,0)" stroke-width="50" d="M 4600,2204 L 4600,2153"/>
       <path fill="none" stroke="rgb(0,0,0)" stroke-width="50" d="M 4600,2102 L 4600,2051"/>
       <path fill="none" stroke="rgb(0,0,0)" stroke-width="50" d="M 4600,2000 L 4600,1949"/>
       <path fill="none" stroke="rgb(0,0,0)" stroke-width="50" d="M 4600,1898 L 4600,1847"/>
       <path fill="none" stroke="rgb(0,0,0)" stroke-width="50" d="M 4600,1796 L 4600,1745"/>
       <path fill="none" stroke="rgb(0,0,0)" stroke-width="50" d="M 4600,1694 L 4600,1643"/>
       <path fill="none" stroke="rgb(0,0,0)" stroke-width="50" d="M 4600,1592 L 4600,1541"/>
       <path fill="none" stroke="rgb(0,0,0)" stroke-width="50" d="M 4600,1490 L 4600,1439"/>
       <path fill="none" stroke="rgb(0,0,0)" stroke-width="50" d="M 4600,1388 L 4600,1337"/>
      </g>
     </g>
     <g class="com.sun.star.drawing.LineShape">
      <g id="id7">
       <path fill="none" stroke="rgb(0,0,0)" stroke-width="50" d="M 7900,6100 L 7849,6100"/>
       <path fill="none" stroke="rgb(0,0,0)" stroke-width="50" d="M 7798,6100 L 7747,6100"/>
       <path fill="none" stroke="rgb(0,0,0)" stroke-width="50" d="M 7696,6100 L 7645,6100"/>
       <path fill="none" stroke="rgb(0,0,0)" stroke-width="50" d="M 7594,6100 L 7543,6100"/>
       <path fill="none" stroke="rgb(0,0,0)" stroke-width="50" d="M 7492,6100 L 7441,6100"/>
       <path fill="none" stroke="rgb(0,0,0)" stroke-width="50" d="M 7390,6100 L 7339,6100"/>
       <path fill="none" stroke="rgb(0,0,0)" stroke-width="50" d="M 7288,6100 L 7237,6100"/>
       <path fill="none" stroke="rgb(0,0,0)" stroke-width="50" d="M 7186,6100 L 7135,6100"/>
       <path fill="none" stroke="rgb(0,0,0)" stroke-width="50" d="M 7084,6100 L 7033,6100"/>
       <path fill="none" stroke="rgb(0,0,0)" stroke-width="50" d="M 6982,6100 L 6931,6100"/>
       <path fill="none" stroke="rgb(0,0,0)" stroke-width="50" d="M 6880,6100 L 6829,6100"/>
       <path fill="none" stroke="rgb(0,0,0)" stroke-width="50" d="M 6778,6100 L 6727,6100"/>
       <path fill="none" stroke="rgb(0,0,0)" stroke-width="50" d="M 6676,6100 L 6625,6100"/>
       <path fill="none" stroke="rgb(0,0,0)" stroke-width="50" d="M 6574,6100 L 6523,6100"/>
       <path fill="none" stroke="rgb(0,0,0)" stroke-width="50" d="M 6472,6100 L 6421,6100"/>
       <path fill="none" stroke="rgb(0,0,0)" stroke-width="50" d="M 6370,6100 L 6319,6100"/>
       <path fill="none" stroke="rgb(0,0,0)" stroke-width="50" d="M 6268,6100 L 6217,6100"/>
       <path fill="none" stroke="rgb(0,0,0)" stroke-width="50" d="M 6166,6100 L 6115,6100"/>
       <path fill="none" stroke="rgb(0,0,0)" stroke-width="50" d="M 6064,6100 L 6013,6100"/>
       <path fill="none" stroke="rgb(0,0,0)" stroke-width="50" d="M 5962,6100 L 5911,6100"/>
       <path fill="none" stroke="rgb(0,0,0)" stroke-width="50" d="M 5860,6100 L 5809,6100"/>
       <path fill="none" stroke="rgb(0,0,0)" stroke-width="50" d="M 5758,6100 L 5707,6100"/>
       <path fill="none" stroke="rgb(0,0,0)" stroke-width="50" d="M 5656,6100 L 5605,6100"/>
       <path fill="none" stroke="rgb(0,0,0)" stroke-width="50" d="M 5554,6100 L 5503,6100"/>
       <path fill="none" stroke="rgb(0,0,0)" stroke-width="50" d="M 5452,6100 L 5401,6100"/>
       <path fill="none" stroke="rgb(0,0,0)" stroke-width="50" d="M 5350,6100 L 5299,6100"/>
       <path fill="none" stroke="rgb(0,0,0)" stroke-width="50" d="M 5248,6100 L 5197,6100"/>
       <path fill="none" stroke="rgb(0,0,0)" stroke-width="50" d="M 5146,6100 L 5095,6100"/>
       <path fill="none" stroke="rgb(0,0,0)" stroke-width="50" d="M 5044,6100 L 4993,6100"/>
       <path fill="none" stroke="rgb(0,0,0)" stroke-width="50" d="M 4942,6100 L 4891,6100"/>
       <path fill="none" stroke="rgb(0,0,0)" stroke-width="50" d="M 4840,6100 L 4789,6100"/>
       <path fill="none" stroke="rgb(0,0,0)" stroke-width="50" d="M 4738,6100 L 4687,6100"/>
       <path fill="none" stroke="rgb(0,0,0)" stroke-width="50" d="M 4636,6100 L 4585,6100"/>
       <path fill="none" stroke="rgb(0,0,0)" stroke-width="50" d="M 4534,6100 L 4483,6100"/>
       <path fill="none" stroke="rgb(0,0,0)" stroke-width="50" d="M 4432,6100 L 4381,6100"/>
       <path fill="none" stroke="rgb(0,0,0)" stroke-width="50" d="M 4330,6100 L 4279,6100"/>
       <path fill="none" stroke="rgb(0,0,0)" stroke-width="50" d="M 4228,6100 L 4177,6100"/>
       <path fill="none" stroke="rgb(0,0,0)" stroke-width="50" d="M 4126,6100 L 4075,6100"/>
       <path fill="none" stroke="rgb(0,0,0)" stroke-width="50" d="M 4024,6100 L 3973,6100"/>
       <path fill="none" stroke="rgb(0,0,0)" stroke-width="50" d="M 3922,6100 L 3871,6100"/>
       <path fill="none" stroke="rgb(0,0,0)" stroke-width="50" d="M 3820,6100 L 3769,6100"/>
       <path fill="none" stroke="rgb(0,0,0)" stroke-width="50" d="M 3718,6100 L 3667,6100"/>
       <path fill="none" stroke="rgb(0,0,0)" stroke-width="50" d="M 3616,6100 L 3565,6100"/>
       <path fill="none" stroke="rgb(0,0,0)" stroke-width="50" d="M 3514,6100 L 3463,6100"/>
       <path fill="none" stroke="rgb(0,0,0)" stroke-width="50" d="M 3412,6100 L 3361,6100"/>
       <path fill="none" stroke="rgb(0,0,0)" stroke-width="50" d="M 3310,6100 L 3259,6100"/>
       <path fill="none" stroke="rgb(0,0,0)" stroke-width="50" d="M 3208,6100 L 3157,6100"/>
       <path fill="none" stroke="rgb(0,0,0)" stroke-width="50" d="M 3106,6100 L 3055,6100"/>
       <path fill="none" stroke="rgb(0,0,0)" stroke-width="50" d="M 3004,6100 L 2953,6100"/>
       <path fill="none" stroke="rgb(0,0,0)" stroke-width="50" d="M 2902,6100 L 2851,6100"/>
       <path fill="none" stroke="rgb(0,0,0)" stroke-width="50" d="M 2800,6100 L 2749,6100"/>
       <path fill="none" stroke="rgb(0,0,0)" stroke-width="50" d="M 2698,6100 L 2647,6100"/>
       <path fill="none" stroke="rgb(0,0,0)" stroke-width="50" d="M 2596,6100 L 2545,6100"/>
       <path fill="none" stroke="rgb(0,0,0)" stroke-width="50" d="M 2494,6100 L 2443,6100"/>
       <path fill="none" stroke="rgb(0,0,0)" stroke-width="50" d="M 2392,6100 L 2341,6100"/>
       <path fill="none" stroke="rgb(0,0,0)" stroke-width="50" d="M 2290,6100 L 2239,6100"/>
       <path fill="none" stroke="rgb(0,0,0)" stroke-width="50" d="M 2188,6100 L 2137,6100"/>
       <path fill="none" stroke="rgb(0,0,0)" stroke-width="50" d="M 2086,6100 L 2035,6100"/>
       <path fill="none" stroke="rgb(0,0,0)" stroke-width="50" d="M 1984,6100 L 1933,6100"/>
       <path fill="none" stroke="rgb(0,0,0)" stroke-width="50" d="M 1882,6100 L 1831,6100"/>
       <path fill="none" stroke="rgb(0,0,0)" stroke-width="50" d="M 1780,6100 L 1729,6100"/>
       <path fill="none" stroke="rgb(0,0,0)" stroke-width="50" d="M 1678,6100 L 1627,6100"/>
       <path fill="none" stroke="rgb(0,0,0)" stroke-width="50" d="M 1576,6100 L 1525,6100"/>
       <path fill="none" stroke="rgb(0,0,0)" stroke-width="50" d="M 1474,6100 L 1423,6100"/>
       <path fill="none" stroke="rgb(0,0,0)" stroke-width="50" d="M 1372,6100 L 1321,6100"/>
       <path fill="none" stroke="rgb(0,0,0)" stroke-width="50" d="M 1270,6100 L 1219,6100"/>
       <path fill="none" stroke="rgb(0,0,0)" stroke-width="50" d="M 1168,6100 L 1117,6100"/>
      </g>
     </g>
     <g class="com.sun.star.drawing.TextShape">
      <g id="id8">
       <text class="TextShape"><tspan class="TextParagraph" font-family="Arial, sans-serif" font-size="388px" font-weight="400"><tspan class="TextPosition" x="1991" y="6768"><tspan fill="rgb(0,0,0)" stroke="none">Variables</tspan></tspan></tspan></text>
      </g>
     </g>
     <g class="com.sun.star.drawing.TextShape">
      <g id="id9">
       <text class="TextShape"><tspan class="TextParagraph" font-family="Arial, sans-serif" font-size="388px" font-weight="400"><tspan class="TextPosition" x="5891" y="6769"><tspan fill="rgb(0,0,0)" stroke="none">Values</tspan></tspan></tspan></text>
      </g>
     </g>
    </g>
   </g>
  </g>
 </g>
</svg>