<?xml version="1.0" encoding="UTF-8" standalone="no"?>
<!DOCTYPE svg PUBLIC "-//W3C//DTD SVG 1.1//EN"
 "http://www.w3.org/Graphics/SVG/1.1/DTD/svg11.dtd">
<!-- Generated by graphviz version 2.38.0 (20140413.2041)
 -->
<!-- Title: g Pages: 1 -->
<svg width="522pt" height="131pt"
 viewBox="0.00 0.00 522.28 131.00" xmlns="http://www.w3.org/2000/svg" xmlns:xlink="http://www.w3.org/1999/xlink">
<g id="graph0" class="graph" transform="scale(1 1) rotate(0) translate(4 127)">
<title>g</title>
<polygon fill="white" stroke="none" points="-4,4 -4,-127 518.278,-127 518.278,4 -4,4"/>
<!-- shell -->
<g id="node1" class="node"><title>shell</title>
<ellipse fill="none" stroke="black" cx="124.139" cy="-105" rx="102.882" ry="18"/>
<text text-anchor="middle" x="124.139" y="-101.3" font-family="Times New Roman,serif" font-size="14.00">shell (also command line)</text>
</g>
<!-- CLI -->
<g id="node2" class="node"><title>CLI</title>
<ellipse fill="none" stroke="black" cx="124.139" cy="-18" rx="124.278" ry="18"/>
<text text-anchor="middle" x="124.139" y="-14.3" font-family="Times New Roman,serif" font-size="14.00">CLI (Command Line Interface)</text>
</g>
<!-- shell&#45;&gt;CLI -->
<g id="edge1" class="edge"><title>shell&#45;&gt;CLI</title>
<path fill="none" stroke="black" d="M111.297,-86.7655C105.763,-77.2858 101.163,-65.2047 104.139,-54 104.939,-50.9858 106.067,-47.9604 107.384,-45.0191"/>
<polygon fill="black" stroke="black" points="110.553,-46.5127 112.066,-36.0265 104.344,-43.28 110.553,-46.5127"/>
<text text-anchor="middle" x="113.639" y="-57.8" font-family="Times New Roman,serif" font-size="14.00">is a</text>
</g>
<!-- CLI&#45;&gt;shell -->
<g id="edge2" class="edge"><title>CLI&#45;&gt;shell</title>
<path fill="none" stroke="black" d="M124.139,-36.1754C124.139,-47.806 124.139,-63.4194 124.139,-76.7339"/>
<polygon fill="black" stroke="black" points="120.639,-76.7989 124.139,-86.799 127.639,-76.799 120.639,-76.7989"/>
<text text-anchor="middle" x="151.639" y="-57.8" font-family="Times New Roman,serif" font-size="14.00">runs from</text>
</g>
<!-- GUI -->
<g id="node3" class="node"><title>GUI</title>
<ellipse fill="none" stroke="black" cx="390.139" cy="-18" rx="124.278" ry="18"/>
<text text-anchor="middle" x="390.139" y="-14.3" font-family="Times New Roman,serif" font-size="14.00">GUI (Graphical User Interface)</text>
</g>
<!-- program -->
<g id="node4" class="node"><title>program</title>
<ellipse fill="none" stroke="black" cx="327.139" cy="-105" rx="41.6928" ry="18"/>
<text text-anchor="middle" x="327.139" y="-101.3" font-family="Times New Roman,serif" font-size="14.00">program</text>
</g>
<!-- program&#45;&gt;CLI -->
<g id="edge4" class="edge"><title>program&#45;&gt;CLI</title>
<path fill="none" stroke="black" d="M298.054,-91.8216C265.308,-78.1104 211.581,-55.6137 172.496,-39.2482"/>
<polygon fill="black" stroke="black" points="173.473,-35.8626 162.897,-35.2287 170.769,-42.3194 173.473,-35.8626"/>
<text text-anchor="middle" x="252.639" y="-57.8" font-family="Times New Roman,serif" font-size="14.00">either</text>
</g>
<!-- program&#45;&gt;GUI -->
<g id="edge3" class="edge"><title>program&#45;&gt;GUI</title>
<path fill="none" stroke="black" d="M339.286,-87.6111C348.406,-75.3064 361.06,-58.2339 371.463,-44.1977"/>
<polygon fill="black" stroke="black" points="374.455,-46.0383 377.598,-35.9203 368.832,-41.8701 374.455,-46.0383"/>
<text text-anchor="middle" x="377.639" y="-57.8" font-family="Times New Roman,serif" font-size="14.00">either</text>
</g>
</g>
</svg>
