<?xml version="1.0" encoding="UTF-8" standalone="no"?>
<!DOCTYPE svg PUBLIC "-//W3C//DTD SVG 1.1//EN"
 "http://www.w3.org/Graphics/SVG/1.1/DTD/svg11.dtd">
<!-- Generated by graphviz version 2.38.0 (20140413.2041)
 -->
<!-- Title: g Pages: 1 -->
<svg width="275pt" height="332pt"
 viewBox="0.00 0.00 274.94 332.00" xmlns="http://www.w3.org/2000/svg" xmlns:xlink="http://www.w3.org/1999/xlink">
<g id="graph0" class="graph" transform="scale(1 1) rotate(0) translate(4 328)">
<title>g</title>
<polygon fill="white" stroke="none" points="-4,4 -4,-328 270.939,-328 270.939,4 -4,4"/>
<!-- filesystem -->
<g id="node1" class="node"><title>filesystem</title>
<ellipse fill="none" stroke="black" cx="87.5461" cy="-306" rx="46.5926" ry="18"/>
<text text-anchor="middle" x="87.5461" y="-302.3" font-family="Times New Roman,serif" font-size="14.00">filesystem</text>
</g>
<!-- directory -->
<g id="node2" class="node"><title>directory</title>
<ellipse fill="none" stroke="black" cx="43.5461" cy="-234" rx="43.5923" ry="18"/>
<text text-anchor="middle" x="43.5461" y="-230.3" font-family="Times New Roman,serif" font-size="14.00">directory</text>
</g>
<!-- filesystem&#45;&#45;directory -->
<g id="edge1" class="edge"><title>filesystem&#45;&#45;directory</title>
<path fill="none" stroke="black" d="M77.1188,-288.411C70.2064,-277.414 61.1634,-263.027 54.2043,-251.956"/>
</g>
<!-- file -->
<g id="node3" class="node"><title>file</title>
<ellipse fill="none" stroke="black" cx="132.546" cy="-234" rx="27" ry="18"/>
<text text-anchor="middle" x="132.546" y="-230.3" font-family="Times New Roman,serif" font-size="14.00">file</text>
</g>
<!-- filesystem&#45;&#45;file -->
<g id="edge2" class="edge"><title>filesystem&#45;&#45;file</title>
<path fill="none" stroke="black" d="M98.2105,-288.411C105.488,-277.091 115.074,-262.178 122.268,-250.988"/>
</g>
<!-- path -->
<g id="node4" class="node"><title>path</title>
<ellipse fill="none" stroke="black" cx="122.546" cy="-162" rx="27" ry="18"/>
<text text-anchor="middle" x="122.546" y="-158.3" font-family="Times New Roman,serif" font-size="14.00">path</text>
</g>
<!-- directory&#45;&#45;path -->
<g id="edge3" class="edge"><title>directory&#45;&#45;path</title>
<path fill="none" stroke="black" d="M61.0788,-217.465C74.8068,-205.301 93.7255,-188.537 106.935,-176.832"/>
</g>
<!-- root -->
<g id="node5" class="node"><title>root</title>
<ellipse fill="none" stroke="black" cx="51.5461" cy="-18" rx="27" ry="18"/>
<text text-anchor="middle" x="51.5461" y="-14.3" font-family="Times New Roman,serif" font-size="14.00">root</text>
</g>
<!-- directory&#45;&#45;root -->
<g id="edge5" class="edge"><title>directory&#45;&#45;root</title>
<path fill="none" stroke="black" d="M39.8923,-215.908C37.8703,-205.569 35.5654,-192.09 34.5461,-180 30.5139,-132.17 27.1267,-119.423 34.5461,-72 36.4879,-59.5889 40.8414,-46.1155 44.6565,-35.8592"/>
</g>
<!-- working directory -->
<g id="node8" class="node"><title>working directory</title>
<ellipse fill="none" stroke="black" cx="191.546" cy="-18" rx="75.2868" ry="18"/>
<text text-anchor="middle" x="191.546" y="-14.3" font-family="Times New Roman,serif" font-size="14.00">working directory</text>
</g>
<!-- directory&#45;&#45;working directory -->
<g id="edge10" class="edge"><title>directory&#45;&#45;working directory</title>
<path fill="none" stroke="black" d="M41.0792,-215.897C37.4675,-184.038 34.389,-114.95 67.5461,-72 84.0702,-50.5956 110.925,-37.7168 135.425,-30.0277"/>
</g>
<!-- file&#45;&#45;path -->
<g id="edge4" class="edge"><title>file&#45;&#45;path</title>
<path fill="none" stroke="black" d="M130.125,-216.055C128.576,-205.211 126.572,-191.183 125.014,-180.275"/>
</g>
<!-- absolute -->
<g id="node6" class="node"><title>absolute</title>
<ellipse fill="none" stroke="black" cx="117.546" cy="-90" rx="40.8928" ry="18"/>
<text text-anchor="middle" x="117.546" y="-86.3" font-family="Times New Roman,serif" font-size="14.00">absolute</text>
</g>
<!-- path&#45;&#45;absolute -->
<g id="edge6" class="edge"><title>path&#45;&#45;absolute</title>
<path fill="none" stroke="black" d="M121.31,-143.697C120.535,-132.846 119.54,-118.917 118.768,-108.104"/>
</g>
<!-- relative -->
<g id="node7" class="node"><title>relative</title>
<ellipse fill="none" stroke="black" cx="212.546" cy="-90" rx="36.2938" ry="18"/>
<text text-anchor="middle" x="212.546" y="-86.3" font-family="Times New Roman,serif" font-size="14.00">relative</text>
</g>
<!-- path&#45;&#45;relative -->
<g id="edge7" class="edge"><title>path&#45;&#45;relative</title>
<path fill="none" stroke="black" d="M139.474,-147.834C154.954,-135.794 177.812,-118.015 193.83,-105.557"/>
</g>
<!-- absolute&#45;&#45;root -->
<g id="edge8" class="edge"><title>absolute&#45;&#45;root</title>
<path fill="none" stroke="black" d="M102.57,-73.1159C91.4642,-61.3373 76.4301,-45.3921 65.5607,-33.8639"/>
</g>
<!-- relative&#45;&#45;working directory -->
<g id="edge9" class="edge"><title>relative&#45;&#45;working directory</title>
<path fill="none" stroke="black" d="M207.463,-72.055C204.209,-61.2111 200.001,-47.183 196.729,-36.2753"/>
</g>
</g>
</svg>
