<?xml version="1.0" encoding="UTF-8" standalone="no"?>
<!DOCTYPE svg PUBLIC "-//W3C//DTD SVG 1.1//EN"
 "http://www.w3.org/Graphics/SVG/1.1/DTD/svg11.dtd">
<!-- Generated by graphviz version 2.38.0 (20140413.2041)
 -->
<!-- Title: g Pages: 1 -->
<svg width="271pt" height="290pt"
 viewBox="0.00 0.00 271.29 290.00" xmlns="http://www.w3.org/2000/svg" xmlns:xlink="http://www.w3.org/1999/xlink">
<g id="graph0" class="graph" transform="scale(1 1) rotate(0) translate(4 286)">
<title>g</title>
<polygon fill="white" stroke="none" points="-4,4 -4,-286 267.292,-286 267.292,4 -4,4"/>
<text text-anchor="middle" x="131.646" y="-10" font-family="Times New Roman,serif" font-size="20.00">$ ls &#45;F /etc</text>
<!-- shell -->
<g id="node1" class="node"><title>shell</title>
<ellipse fill="none" stroke="black" cx="110.995" cy="-264" rx="35.9954" ry="18"/>
<text text-anchor="middle" x="110.995" y="-260.3" font-family="Times New Roman,serif" font-size="14.00">shell: $</text>
</g>
<!-- command -->
<g id="node5" class="node"><title>command</title>
<ellipse fill="none" stroke="black" cx="110.995" cy="-192" rx="46.5926" ry="18"/>
<text text-anchor="middle" x="110.995" y="-188.3" font-family="Times New Roman,serif" font-size="14.00">command</text>
</g>
<!-- shell&#45;&#45;command -->
<g id="edge1" class="edge"><title>shell&#45;&#45;command</title>
<path fill="none" stroke="black" d="M110.995,-245.697C110.995,-234.846 110.995,-220.917 110.995,-210.104"/>
</g>
<!-- program -->
<g id="node2" class="node"><title>program</title>
<ellipse fill="none" stroke="black" cx="51.9954" cy="-120" rx="51.9908" ry="18"/>
<text text-anchor="middle" x="51.9954" y="-116.3" font-family="Times New Roman,serif" font-size="14.00">program: ls</text>
</g>
<!-- paths -->
<g id="node3" class="node"><title>paths</title>
<ellipse fill="none" stroke="black" cx="116.995" cy="-48" rx="48.1917" ry="18"/>
<text text-anchor="middle" x="116.995" y="-44.3" font-family="Times New Roman,serif" font-size="14.00">paths: /etc</text>
</g>
<!-- flags -->
<g id="node4" class="node"><title>flags</title>
<ellipse fill="none" stroke="black" cx="222.995" cy="-48" rx="40.0939" ry="18"/>
<text text-anchor="middle" x="222.995" y="-44.3" font-family="Times New Roman,serif" font-size="14.00">flags: &#45;F</text>
</g>
<!-- command&#45;&#45;program -->
<g id="edge2" class="edge"><title>command&#45;&#45;program</title>
<path fill="none" stroke="black" d="M97.3113,-174.765C87.9159,-163.618 75.4816,-148.865 66.015,-137.633"/>
</g>
<!-- arguments -->
<g id="node6" class="node"><title>arguments</title>
<ellipse fill="none" stroke="black" cx="169.995" cy="-120" rx="48.1917" ry="18"/>
<text text-anchor="middle" x="169.995" y="-116.3" font-family="Times New Roman,serif" font-size="14.00">arguments</text>
</g>
<!-- command&#45;&#45;arguments -->
<g id="edge3" class="edge"><title>command&#45;&#45;arguments</title>
<path fill="none" stroke="black" d="M124.679,-174.765C134.075,-163.618 146.509,-148.865 155.976,-137.633"/>
</g>
<!-- arguments&#45;&#45;paths -->
<g id="edge4" class="edge"><title>arguments&#45;&#45;paths</title>
<path fill="none" stroke="black" d="M157.435,-102.411C148.986,-91.2524 137.895,-76.6036 129.465,-65.4699"/>
</g>
<!-- arguments&#45;&#45;flags -->
<g id="edge5" class="edge"><title>arguments&#45;&#45;flags</title>
<path fill="none" stroke="black" d="M182.556,-102.411C191.004,-91.2524 202.096,-76.6036 210.525,-65.4699"/>
</g>
</g>
</svg>
