<?xml version="1.0" encoding="UTF-8" standalone="no"?>
<!DOCTYPE svg PUBLIC "-//W3C//DTD SVG 1.1//EN"
 "http://www.w3.org/Graphics/SVG/1.1/DTD/svg11.dtd">
<!-- Generated by graphviz version 2.38.0 (20140413.2041)
 -->
<!-- Title: G Pages: 1 -->
<svg width="760pt" height="171pt"
 viewBox="0.00 0.00 759.59 171.00" xmlns="http://www.w3.org/2000/svg" xmlns:xlink="http://www.w3.org/1999/xlink">
<g id="graph0" class="graph" transform="scale(1 1) rotate(0) translate(4 167)">
<title>G</title>
<polygon fill="white" stroke="none" points="-4,4 -4,-167 755.589,-167 755.589,4 -4,4"/>
<g id="clust1" class="cluster"><title>cluster_0</title>
<polygon fill="none" stroke="green" points="319,-80 319,-155 667,-155 667,-80 319,-80"/>
<text text-anchor="middle" x="493" y="-139.8" font-family="Times New Roman,serif" font-size="14.00">create</text>
</g>
<g id="clust2" class="cluster"><title>cluster_1</title>
<polygon fill="none" stroke="red" points="8,-8 8,-155 233,-155 233,-8 8,-8"/>
<text text-anchor="middle" x="120.5" y="-139.8" font-family="Times New Roman,serif" font-size="14.00">delete</text>
</g>
<g id="clust3" class="cluster"><title>cluster_3</title>
<polygon fill="none" stroke="blue" points="241,-80 241,-155 311,-155 311,-80 241,-80"/>
<text text-anchor="middle" x="276" y="-139.8" font-family="Times New Roman,serif" font-size="14.00">navigate</text>
</g>
<!-- nano -->
<g id="node1" class="node"><title>nano</title>
<ellipse fill="none" stroke="black" cx="498" cy="-106" rx="89.0842" ry="18"/>
<text text-anchor="middle" x="498" y="-102.3" font-family="Times New Roman,serif" font-size="14.00">text editor (e.g. nano)</text>
</g>
<!-- file -->
<g id="node10" class="node"><title>file</title>
<ellipse fill="#88ff88" stroke="black" cx="421" cy="-34" rx="27" ry="18"/>
<text text-anchor="middle" x="421" y="-30.3" font-family="Times New Roman,serif" font-size="14.00">file</text>
</g>
<!-- nano&#45;&#45;file -->
<g id="edge5" class="edge"><title>nano&#45;&#45;file</title>
<path fill="none" stroke="black" d="M479.36,-88.055C466.186,-76.0781 448.739,-60.217 436.362,-48.9658"/>
</g>
<!-- mkdir -->
<g id="node2" class="node"><title>mkdir</title>
<ellipse fill="none" stroke="black" cx="359" cy="-106" rx="31.6951" ry="18"/>
<text text-anchor="middle" x="359" y="-102.3" font-family="Times New Roman,serif" font-size="14.00">mkdir</text>
</g>
<!-- directory -->
<g id="node11" class="node"><title>directory</title>
<ellipse fill="#88ff88" stroke="black" cx="285" cy="-34" rx="43.5923" ry="18"/>
<text text-anchor="middle" x="285" y="-30.3" font-family="Times New Roman,serif" font-size="14.00">directory</text>
</g>
<!-- mkdir&#45;&#45;directory -->
<g id="edge4" class="edge"><title>mkdir&#45;&#45;directory</title>
<path fill="none" stroke="black" d="M343.307,-90.1548C331.088,-78.5966 314.167,-62.5901 301.699,-50.7966"/>
</g>
<!-- cp -->
<g id="node3" class="node"><title>cp</title>
<ellipse fill="none" stroke="black" cx="632" cy="-106" rx="27" ry="18"/>
<text text-anchor="middle" x="632" y="-102.3" font-family="Times New Roman,serif" font-size="14.00">cp</text>
</g>
<!-- cp_params -->
<g id="node9" class="node"><title>cp_params</title>
<ellipse fill="#88ff88" stroke="black" cx="632" cy="-34" rx="119.679" ry="18"/>
<text text-anchor="middle" x="632" y="-30.3" font-family="Times New Roman,serif" font-size="14.00">file file | file dir | file file [..] dir</text>
</g>
<!-- cp&#45;&#45;cp_params -->
<g id="edge6" class="edge"><title>cp&#45;&#45;cp_params</title>
<path fill="none" stroke="black" d="M632,-87.6966C632,-76.8463 632,-62.9167 632,-52.1043"/>
</g>
<!-- dangerous -->
<g id="node4" class="node"><title>dangerous</title>
<ellipse fill="#ff8888" stroke="black" cx="119" cy="-34" rx="48.1917" ry="18"/>
<text text-anchor="middle" x="119" y="-30.3" font-family="Times New Roman,serif" font-size="14.00">dangerous</text>
</g>
<!-- rm -->
<g id="node5" class="node"><title>rm</title>
<ellipse fill="none" stroke="black" cx="198" cy="-106" rx="27" ry="18"/>
<text text-anchor="middle" x="198" y="-102.3" font-family="Times New Roman,serif" font-size="14.00">rm</text>
</g>
<!-- rm&#45;&#45;dangerous -->
<g id="edge1" class="edge"><title>rm&#45;&#45;dangerous</title>
<path fill="none" stroke="black" d="M182.392,-91.1703C169.262,-79.5358 150.49,-62.9022 136.781,-50.7557"/>
</g>
<!-- rm&#45;&#45;file -->
<g id="edge7" class="edge"><title>rm&#45;&#45;file</title>
<path fill="none" stroke="black" d="M215.562,-91.9936C222.04,-87.6763 229.608,-83.1685 237,-80 265.488,-67.7889 351.784,-49.1625 395.311,-40.1889"/>
</g>
<!-- rm &#45;r -->
<g id="node6" class="node"><title>rm &#45;r</title>
<ellipse fill="none" stroke="black" cx="45" cy="-106" rx="28.6953" ry="18"/>
<text text-anchor="middle" x="45" y="-102.3" font-family="Times New Roman,serif" font-size="14.00">rm &#45;r</text>
</g>
<!-- rm &#45;r&#45;&#45;dangerous -->
<g id="edge2" class="edge"><title>rm &#45;r&#45;&#45;dangerous</title>
<path fill="none" stroke="black" d="M60.3328,-90.496C72.5251,-78.9628 89.5637,-62.8452 102.139,-50.9498"/>
</g>
<!-- rm &#45;r&#45;&#45;directory -->
<g id="edge9" class="edge"><title>rm &#45;r&#45;&#45;directory</title>
<path fill="none" stroke="black" d="M62.2147,-91.1975C68.18,-87.0221 75.1065,-82.8052 82,-80 146.841,-53.6143 169.341,-69.9662 237,-52 242.554,-50.5252 248.382,-48.7034 253.987,-46.8058"/>
</g>
<!-- rmdir -->
<g id="node7" class="node"><title>rmdir</title>
<ellipse fill="none" stroke="black" cx="122" cy="-106" rx="30.5947" ry="18"/>
<text text-anchor="middle" x="122" y="-102.3" font-family="Times New Roman,serif" font-size="14.00">rmdir</text>
</g>
<!-- rmdir&#45;&#45;directory -->
<g id="edge8" class="edge"><title>rmdir&#45;&#45;directory</title>
<path fill="none" stroke="black" d="M141.473,-91.698C147.854,-87.6492 155.084,-83.3806 162,-80 170.452,-75.8684 219.383,-58.2714 252.922,-46.3462"/>
</g>
<!-- cd -->
<g id="node8" class="node"><title>cd</title>
<ellipse fill="none" stroke="black" cx="276" cy="-106" rx="27" ry="18"/>
<text text-anchor="middle" x="276" y="-102.3" font-family="Times New Roman,serif" font-size="14.00">cd</text>
</g>
<!-- cd&#45;&#45;directory -->
<g id="edge3" class="edge"><title>cd&#45;&#45;directory</title>
<path fill="none" stroke="black" d="M278.179,-88.055C279.573,-77.2111 281.376,-63.183 282.779,-52.2753"/>
</g>
</g>
</svg>
