<?xml version="1.0" encoding="UTF-8" standalone="no"?>
<!DOCTYPE svg PUBLIC "-//W3C//DTD SVG 1.1//EN"
 "http://www.w3.org/Graphics/SVG/1.1/DTD/svg11.dtd">
<!-- Generated by graphviz version 2.38.0 (20140413.2041)
 -->
<!-- Title: G Pages: 1 -->
<svg width="619pt" height="225pt"
 viewBox="0.00 0.00 619.00 225.00" xmlns="http://www.w3.org/2000/svg" xmlns:xlink="http://www.w3.org/1999/xlink">
<g id="graph0" class="graph" transform="scale(1 1) rotate(0) translate(4 221)">
<title>G</title>
<polygon fill="white" stroke="none" points="-4,4 -4,-221 615,-221 615,4 -4,4"/>
<text text-anchor="middle" x="305.5" y="-7.8" font-family="Times New Roman,serif" font-size="14.00">path wildcards</text>
<g id="clust1" class="cluster"><title>cluster_0</title>
<polygon fill="none" stroke="black" points="8,-134 8,-209 294,-209 294,-134 8,-134"/>
<text text-anchor="middle" x="151" y="-193.8" font-family="Times New Roman,serif" font-size="14.00">primitives</text>
</g>
<g id="clust2" class="cluster"><title>cluster_1</title>
<polygon fill="none" stroke="black" points="302,-31 302,-209 603,-209 603,-31 302,-31"/>
<text text-anchor="middle" x="452.5" y="-193.8" font-family="Times New Roman,serif" font-size="14.00">examples</text>
</g>
<!-- a -->
<g id="node1" class="node"><title>a</title>
<ellipse fill="none" stroke="black" cx="259" cy="-160" rx="27" ry="18"/>
<text text-anchor="middle" x="259" y="-156.3" font-family="Times New Roman,serif" font-size="14.00">a</text>
</g>
<!-- * -->
<g id="node2" class="node"><title>*</title>
<ellipse fill="none" stroke="black" cx="187" cy="-160" rx="27" ry="18"/>
<text text-anchor="middle" x="187" y="-156.3" font-family="Times New Roman,serif" font-size="14.00">*</text>
</g>
<!-- ? -->
<g id="node3" class="node"><title>?</title>
<ellipse fill="none" stroke="black" cx="115" cy="-160" rx="27" ry="18"/>
<text text-anchor="middle" x="115" y="-156.3" font-family="Times New Roman,serif" font-size="14.00">?</text>
</g>
<!-- [ab] -->
<g id="node4" class="node"><title>[ab]</title>
<ellipse fill="none" stroke="black" cx="43" cy="-160" rx="27" ry="18"/>
<text text-anchor="middle" x="43" y="-156.3" font-family="Times New Roman,serif" font-size="14.00">[ab]</text>
</g>
<!-- ???.txt -->
<g id="node5" class="node"><title>???.txt</title>
<ellipse fill="none" stroke="black" cx="561" cy="-160" rx="34.394" ry="18"/>
<text text-anchor="middle" x="561" y="-156.3" font-family="Times New Roman,serif" font-size="14.00">???.txt</text>
</g>
<!-- arc.txt -->
<g id="node8" class="node"><title>arc.txt</title>
<polygon fill="none" stroke="black" points="525,-98.5 473,-98.5 473,-46.5 525,-46.5 525,-98.5"/>
<text text-anchor="middle" x="499" y="-68.8" font-family="Times New Roman,serif" font-size="14.00">arc.txt</text>
</g>
<!-- ???.txt&#45;&#45;arc.txt -->
<g id="edge1" class="edge"><title>???.txt&#45;&#45;arc.txt</title>
<path fill="none" stroke="black" d="M549.338,-142.918C540.288,-130.438 527.577,-112.908 517.192,-98.5877"/>
</g>
<!-- are.txt -->
<g id="node9" class="node"><title>are.txt</title>
<polygon fill="none" stroke="black" points="594.5,-98 543.5,-98 543.5,-47 594.5,-47 594.5,-98"/>
<text text-anchor="middle" x="569" y="-68.8" font-family="Times New Roman,serif" font-size="14.00">are.txt</text>
</g>
<!-- ???.txt&#45;&#45;are.txt -->
<g id="edge2" class="edge"><title>???.txt&#45;&#45;are.txt</title>
<path fill="none" stroke="black" d="M562.619,-141.698C563.788,-129.206 565.383,-112.157 566.686,-98.2301"/>
</g>
<!-- *.txt -->
<g id="node6" class="node"><title>*.txt</title>
<ellipse fill="none" stroke="black" cx="482" cy="-160" rx="27" ry="18"/>
<text text-anchor="middle" x="482" y="-156.3" font-family="Times New Roman,serif" font-size="14.00">*.txt</text>
</g>
<!-- *.txt&#45;&#45;arc.txt -->
<g id="edge3" class="edge"><title>*.txt&#45;&#45;arc.txt</title>
<path fill="none" stroke="black" d="M485.359,-142.108C487.816,-129.747 491.193,-112.765 493.972,-98.7895"/>
</g>
<!-- *.txt&#45;&#45;are.txt -->
<g id="edge4" class="edge"><title>*.txt&#45;&#45;are.txt</title>
<path fill="none" stroke="black" d="M496.758,-144.496C509.654,-131.823 528.649,-113.155 543.925,-98.1423"/>
</g>
<!-- arrow.txt -->
<g id="node10" class="node"><title>arrow.txt</title>
<polygon fill="none" stroke="black" points="454.5,-106 387.5,-106 387.5,-39 454.5,-39 454.5,-106"/>
<text text-anchor="middle" x="421" y="-68.8" font-family="Times New Roman,serif" font-size="14.00">arrow.txt</text>
</g>
<!-- *.txt&#45;&#45;arrow.txt -->
<g id="edge5" class="edge"><title>*.txt&#45;&#45;arrow.txt</title>
<path fill="none" stroke="black" d="M470.812,-143.318C463.382,-132.905 453.356,-118.852 444.246,-106.083"/>
</g>
<!-- ar[cr]* -->
<g id="node7" class="node"><title>ar[cr]*</title>
<ellipse fill="none" stroke="black" cx="402" cy="-160" rx="35.194" ry="18"/>
<text text-anchor="middle" x="402" y="-156.3" font-family="Times New Roman,serif" font-size="14.00">ar[cr]*</text>
</g>
<!-- ar[cr]*&#45;&#45;arc.txt -->
<g id="edge6" class="edge"><title>ar[cr]*&#45;&#45;arc.txt</title>
<path fill="none" stroke="black" d="M419.167,-144.237C431.432,-133.652 448.297,-119.022 463,-106 466.152,-103.209 469.446,-100.268 472.706,-97.3426"/>
</g>
<!-- ar[cr]*&#45;&#45;arrow.txt -->
<g id="edge7" class="edge"><title>ar[cr]*&#45;&#45;arrow.txt</title>
<path fill="none" stroke="black" d="M405.845,-141.698C408.1,-131.548 411.024,-118.39 413.702,-106.343"/>
</g>
<!-- arc.png -->
<g id="node11" class="node"><title>arc.png</title>
<polygon fill="none" stroke="black" points="369.5,-102 310.5,-102 310.5,-43 369.5,-43 369.5,-102"/>
<text text-anchor="middle" x="340" y="-68.8" font-family="Times New Roman,serif" font-size="14.00">arc.png</text>
</g>
<!-- ar[cr]*&#45;&#45;arc.png -->
<g id="edge8" class="edge"><title>ar[cr]*&#45;&#45;arc.png</title>
<path fill="none" stroke="black" d="M390.338,-142.918C382.06,-131.502 370.718,-115.861 360.896,-102.316"/>
</g>
</g>
</svg>
