<?xml version="1.0" encoding="UTF-8" standalone="no"?>
<!DOCTYPE svg PUBLIC "-//W3C//DTD SVG 1.1//EN"
 "http://www.w3.org/Graphics/SVG/1.1/DTD/svg11.dtd">
<!-- Generated by graphviz version 2.38.0 (20140413.2041)
 -->
<!-- Title: G Pages: 1 -->
<svg width="553pt" height="462pt"
 viewBox="0.00 0.00 553.00 462.00" xmlns="http://www.w3.org/2000/svg" xmlns:xlink="http://www.w3.org/1999/xlink">
<g id="graph0" class="graph" transform="scale(1 1) rotate(0) translate(4 458)">
<title>G</title>
<polygon fill="white" stroke="none" points="-4,4 -4,-458 549,-458 549,4 -4,4"/>
<text text-anchor="middle" x="272.5" y="-22.8" font-family="Times New Roman,serif" font-size="14.00">small pieces, loosely joined:</text>
<text text-anchor="middle" x="272.5" y="-7.8" font-family="Times New Roman,serif" font-size="14.00"> head &#45;5 &lt; animals.txt | tail &#45;3 | sort &#45;r &gt; final.txt</text>
<g id="clust1" class="cluster"><title>cluster_0</title>
<polygon fill="none" stroke="blue" points="8,-371 8,-446 224,-446 224,-371 8,-371"/>
<text text-anchor="middle" x="116" y="-430.8" font-family="Times New Roman,serif" font-size="14.00">filters</text>
</g>
<g id="clust2" class="cluster"><title>cluster_1</title>
<polygon fill="none" stroke="green" points="166,-190 166,-265 537,-265 537,-190 166,-190"/>
<text text-anchor="middle" x="351.5" y="-249.8" font-family="Times New Roman,serif" font-size="14.00">redirection</text>
</g>
<!-- wc -->
<g id="node1" class="node"><title>wc</title>
<ellipse fill="none" stroke="black" cx="189" cy="-397" rx="27" ry="18"/>
<text text-anchor="middle" x="189" y="-393.3" font-family="Times New Roman,serif" font-size="14.00">wc</text>
</g>
<!-- sort -->
<g id="node2" class="node"><title>sort</title>
<ellipse fill="none" stroke="black" cx="117" cy="-397" rx="27" ry="18"/>
<text text-anchor="middle" x="117" y="-393.3" font-family="Times New Roman,serif" font-size="14.00">sort</text>
</g>
<!-- head -->
<g id="node3" class="node"><title>head</title>
<ellipse fill="none" stroke="black" cx="44" cy="-397" rx="27.8951" ry="18"/>
<text text-anchor="middle" x="44" y="-393.3" font-family="Times New Roman,serif" font-size="14.00">head</text>
</g>
<!-- to -->
<g id="node4" class="node"><title>to</title>
<ellipse fill="none" stroke="black" cx="490" cy="-216" rx="38.9931" ry="18"/>
<text text-anchor="middle" x="490" y="-212.3" font-family="Times New Roman,serif" font-size="14.00">to &gt; file</text>
</g>
<!-- from -->
<g id="node5" class="node"><title>from</title>
<ellipse fill="none" stroke="black" cx="223" cy="-216" rx="49.2915" ry="18"/>
<text text-anchor="middle" x="223" y="-212.3" font-family="Times New Roman,serif" font-size="14.00">from &lt; file</text>
</g>
<!-- pipe -->
<g id="node6" class="node"><title>pipe</title>
<ellipse fill="none" stroke="black" cx="362" cy="-216" rx="71.4873" ry="18"/>
<text text-anchor="middle" x="362" y="-212.3" font-family="Times New Roman,serif" font-size="14.00">pipe | filter | filter</text>
</g>
<!-- stdout -->
<g id="node8" class="node"><title>stdout</title>
<ellipse fill="none" stroke="black" cx="438" cy="-143" rx="33.5952" ry="18"/>
<text text-anchor="middle" x="438" y="-139.3" font-family="Times New Roman,serif" font-size="14.00">stdout</text>
</g>
<!-- pipe&#45;&#45;stdout -->
<g id="edge4" class="edge"><title>pipe&#45;&#45;stdout</title>
<path fill="none" stroke="black" d="M379.627,-198.533C392.431,-186.571 409.617,-170.516 422.022,-158.927"/>
</g>
<!-- stdin -->
<g id="node7" class="node"><title>stdin</title>
<ellipse fill="none" stroke="black" cx="279" cy="-310" rx="28.6953" ry="18"/>
<text text-anchor="middle" x="279" y="-306.3" font-family="Times New Roman,serif" font-size="14.00">stdin</text>
</g>
<!-- stdin&#45;&#45;from -->
<g id="edge1" class="edge"><title>stdin&#45;&#45;from</title>
<path fill="none" stroke="black" d="M269.246,-292.975C259.155,-276.398 243.465,-250.622 233.21,-233.774"/>
</g>
<!-- stdin&#45;&#45;pipe -->
<g id="edge3" class="edge"><title>stdin&#45;&#45;pipe</title>
<path fill="none" stroke="black" d="M292.706,-293.808C307.624,-277.272 331.41,-250.907 346.867,-233.774"/>
</g>
<!-- stdout&#45;&#45;to -->
<g id="edge2" class="edge"><title>stdout&#45;&#45;to</title>
<path fill="none" stroke="black" d="M449.995,-160.378C458.382,-171.829 469.539,-187.062 477.939,-198.533"/>
</g>
<!-- screen -->
<g id="node10" class="node"><title>screen</title>
<ellipse fill="none" stroke="black" cx="438" cy="-56" rx="34.394" ry="18"/>
<text text-anchor="middle" x="438" y="-52.3" font-family="Times New Roman,serif" font-size="14.00">screen</text>
</g>
<!-- stdout&#45;&#45;screen -->
<g id="edge6" class="edge"><title>stdout&#45;&#45;screen</title>
<path fill="none" stroke="black" d="M438,-124.799C438,-110.052 438,-88.9152 438,-74.1754"/>
<text text-anchor="middle" x="457" y="-95.8" font-family="Times New Roman,serif" font-size="14.00">default</text>
</g>
<!-- keyboard -->
<g id="node9" class="node"><title>keyboard</title>
<ellipse fill="none" stroke="black" cx="279" cy="-397" rx="44.6926" ry="18"/>
<text text-anchor="middle" x="279" y="-393.3" font-family="Times New Roman,serif" font-size="14.00">keyboard</text>
</g>
<!-- keyboard&#45;&#45;stdin -->
<g id="edge5" class="edge"><title>keyboard&#45;&#45;stdin</title>
<path fill="none" stroke="black" d="M279,-378.799C279,-364.052 279,-342.915 279,-328.175"/>
<text text-anchor="middle" x="298" y="-349.8" font-family="Times New Roman,serif" font-size="14.00">default</text>
</g>
</g>
</svg>
