<?xml version="1.0" encoding="UTF-8" standalone="no"?>
<!DOCTYPE svg PUBLIC "-//W3C//DTD SVG 1.1//EN"
 "http://www.w3.org/Graphics/SVG/1.1/DTD/svg11.dtd">
<!-- Generated by graphviz version 2.38.0 (20140413.2041)
 -->
<!-- Title: G Pages: 1 -->
<svg width="734pt" height="190pt"
 viewBox="0.00 0.00 734.19 190.00" xmlns="http://www.w3.org/2000/svg" xmlns:xlink="http://www.w3.org/1999/xlink">
<g id="graph0" class="graph" transform="scale(1 1) rotate(0) translate(4 186)">
<title>G</title>
<polygon fill="white" stroke="none" points="-4,4 -4,-186 730.195,-186 730.195,4 -4,4"/>
<g id="clust1" class="cluster"><title>cluster_0</title>
<polygon fill="none" stroke="blue" points="8,-8 8,-174 718.195,-174 718.195,-8 8,-8"/>
</g>
<!-- for -->
<g id="node1" class="node"><title>for</title>
<ellipse fill="none" stroke="black" cx="43" cy="-91" rx="27" ry="18"/>
<text text-anchor="middle" x="43" y="-87.3" font-family="Times New Roman,serif" font-size="14.00">for</text>
</g>
<!-- variable -->
<g id="node2" class="node"><title>variable</title>
<polygon fill="none" stroke="black" points="165,-120.5 106,-120.5 106,-61.5 165,-61.5 165,-120.5"/>
<text text-anchor="middle" x="135.5" y="-87.3" font-family="Times New Roman,serif" font-size="14.00">variable</text>
</g>
<!-- for&#45;&#45;variable -->
<g id="edge1" class="edge"><title>for&#45;&#45;variable</title>
<path fill="none" stroke="black" d="M70.1763,-91C81.3479,-91 94.4179,-91 105.848,-91"/>
</g>
<!-- in -->
<g id="node3" class="node"><title>in</title>
<ellipse fill="none" stroke="black" cx="228" cy="-91" rx="27" ry="18"/>
<text text-anchor="middle" x="228" y="-87.3" font-family="Times New Roman,serif" font-size="14.00">in</text>
</g>
<!-- variable&#45;&#45;in -->
<g id="edge2" class="edge"><title>variable&#45;&#45;in</title>
<path fill="none" stroke="black" d="M165.135,-91C176.527,-91 189.552,-91 200.702,-91"/>
</g>
<!-- values -->
<g id="node4" class="node"><title>values</title>
<polygon fill="none" stroke="black" points="342,-116.5 291,-116.5 291,-65.5 342,-65.5 342,-116.5"/>
<text text-anchor="middle" x="316.5" y="-87.3" font-family="Times New Roman,serif" font-size="14.00">values</text>
</g>
<!-- in&#45;&#45;values -->
<g id="edge3" class="edge"><title>in&#45;&#45;values</title>
<path fill="none" stroke="black" d="M255.423,-91C266.651,-91 279.673,-91 290.716,-91"/>
</g>
<!-- do -->
<g id="node5" class="node"><title>do</title>
<ellipse fill="none" stroke="black" cx="405" cy="-91" rx="27" ry="18"/>
<text text-anchor="middle" x="405" y="-87.3" font-family="Times New Roman,serif" font-size="14.00">do</text>
</g>
<!-- values&#45;&#45;do -->
<g id="edge4" class="edge"><title>values&#45;&#45;do</title>
<path fill="none" stroke="black" d="M342.056,-91C353.244,-91 366.499,-91 377.871,-91"/>
</g>
<!-- body -->
<g id="node6" class="node"><title>body</title>
<polygon fill="none" stroke="black" points="617,-165.5 468,-165.5 468,-16.5 617,-16.5 617,-165.5"/>
<text text-anchor="middle" x="542.5" y="-102.3" font-family="Times New Roman,serif" font-size="14.00">echo $path;</text>
<text text-anchor="middle" x="542.5" y="-87.3" font-family="Times New Roman,serif" font-size="14.00">cp $path backup&#45;$path;</text>
<text text-anchor="middle" x="542.5" y="-72.3" font-family="Times New Roman,serif" font-size="14.00">...</text>
</g>
<!-- do&#45;&#45;body -->
<g id="edge5" class="edge"><title>do&#45;&#45;body</title>
<path fill="none" stroke="black" d="M432.126,-91C442.508,-91 455.019,-91 467.815,-91"/>
</g>
<!-- done -->
<g id="node7" class="node"><title>done</title>
<ellipse fill="none" stroke="black" cx="681.597" cy="-91" rx="28.6953" ry="18"/>
<text text-anchor="middle" x="681.597" y="-87.3" font-family="Times New Roman,serif" font-size="14.00">done</text>
</g>
<!-- body&#45;&#45;done -->
<g id="edge6" class="edge"><title>body&#45;&#45;done</title>
<path fill="none" stroke="black" d="M617.266,-91C629.941,-91 642.378,-91 652.828,-91"/>
</g>
</g>
</svg>
