<?xml version="1.0" encoding="UTF-8" standalone="no"?>
<!DOCTYPE svg PUBLIC "-//W3C//DTD SVG 1.1//EN"
 "http://www.w3.org/Graphics/SVG/1.1/DTD/svg11.dtd">
<!-- Generated by graphviz version 2.38.0 (20140413.2041)
 -->
<!-- Title: G Pages: 1 -->
<svg width="404pt" height="188pt"
 viewBox="0.00 0.00 404.00 188.00" xmlns="http://www.w3.org/2000/svg" xmlns:xlink="http://www.w3.org/1999/xlink">
<g id="graph0" class="graph" transform="scale(1 1) rotate(0) translate(4 184)">
<title>G</title>
<polygon fill="white" stroke="none" points="-4,4 -4,-184 400,-184 400,4 -4,4"/>
<!-- script -->
<g id="node1" class="node"><title>script</title>
<ellipse fill="none" stroke="black" cx="213.5" cy="-162" rx="50.0912" ry="18"/>
<text text-anchor="middle" x="213.5" y="-158.3" font-family="Times New Roman,serif" font-size="14.00">shell script</text>
</g>
<!-- running -->
<g id="node2" class="node"><title>running</title>
<polygon fill="none" stroke="black" points="105,-108 0,-108 0,-72 105,-72 105,-108"/>
<text text-anchor="middle" x="52.5" y="-86.3" font-family="Times New Roman,serif" font-size="14.00">$ bash script.sh</text>
</g>
<!-- script&#45;&#45;running -->
<g id="edge1" class="edge"><title>script&#45;&#45;running</title>
<path fill="none" stroke="black" d="M182.838,-147.669C156.927,-136.403 119.659,-120.2 91.6052,-108.002"/>
</g>
<!-- positional_args -->
<g id="node3" class="node"><title>positional_args</title>
<ellipse fill="none" stroke="black" cx="168.5" cy="-90" rx="45.4919" ry="18"/>
<text text-anchor="middle" x="168.5" y="-86.3" font-family="Times New Roman,serif" font-size="14.00">$1, $2, ...</text>
</g>
<!-- script&#45;&#45;positional_args -->
<g id="edge2" class="edge"><title>script&#45;&#45;positional_args</title>
<path fill="none" stroke="black" d="M202.836,-144.411C195.766,-133.414 186.518,-119.027 179.4,-107.956"/>
</g>
<!-- all_args -->
<g id="node5" class="node"><title>all_args</title>
<ellipse fill="none" stroke="black" cx="258.5" cy="-90" rx="27" ry="18"/>
<text text-anchor="middle" x="258.5" y="-86.3" font-family="Times New Roman,serif" font-size="14.00">$*</text>
</g>
<!-- script&#45;&#45;all_args -->
<g id="edge4" class="edge"><title>script&#45;&#45;all_args</title>
<path fill="none" stroke="black" d="M224.164,-144.411C231.442,-133.091 241.028,-118.178 248.222,-106.988"/>
</g>
<!-- comment -->
<g id="node7" class="node"><title>comment</title>
<polygon fill="none" stroke="black" points="383.5,-108 303.5,-108 303.5,-72 383.5,-72 383.5,-108"/>
<text text-anchor="middle" x="343.5" y="-86.3" font-family="Times New Roman,serif" font-size="14.00"># comment</text>
</g>
<!-- script&#45;&#45;comment -->
<g id="edge6" class="edge"><title>script&#45;&#45;comment</title>
<path fill="none" stroke="black" d="M240.121,-146.666C260.921,-135.466 289.888,-119.868 311.87,-108.032"/>
</g>
<!-- positional_example -->
<g id="node4" class="node"><title>positional_example</title>
<polygon fill="none" stroke="black" points="208.5,-36 22.5,-36 22.5,-0 208.5,-0 208.5,-36"/>
<text text-anchor="middle" x="115.5" y="-14.3" font-family="Times New Roman,serif" font-size="14.00">$ bash middle.sh &#45;5 &#45;10 file.txt</text>
</g>
<!-- positional_args&#45;&#45;positional_example -->
<g id="edge3" class="edge"><title>positional_args&#45;&#45;positional_example</title>
<path fill="none" stroke="black" d="M155.94,-72.411C147.736,-61.5758 137.041,-47.4498 128.71,-36.4468"/>
</g>
<!-- all_example -->
<g id="node6" class="node"><title>all_example</title>
<polygon fill="none" stroke="black" points="396,-36 227,-36 227,-0 396,-0 396,-36"/>
<text text-anchor="middle" x="311.5" y="-14.3" font-family="Times New Roman,serif" font-size="14.00">$ bash stats.sh ../data/*.dat</text>
</g>
<!-- all_args&#45;&#45;all_example -->
<g id="edge5" class="edge"><title>all_args&#45;&#45;all_example</title>
<path fill="none" stroke="black" d="M270.262,-73.4647C278.557,-62.509 289.677,-47.8223 298.28,-36.4609"/>
</g>
</g>
</svg>
