<?xml version="1.0" encoding="UTF-8" standalone="no"?>
<!DOCTYPE svg PUBLIC "-//W3C//DTD SVG 1.1//EN"
 "http://www.w3.org/Graphics/SVG/1.1/DTD/svg11.dtd">
<!-- Generated by graphviz version 2.38.0 (20140413.2041)
 -->
<!-- Title: G Pages: 1 -->
<svg width="150pt" height="227pt"
 viewBox="0.00 0.00 150.00 227.00" xmlns="http://www.w3.org/2000/svg" xmlns:xlink="http://www.w3.org/1999/xlink">
<g id="graph0" class="graph" transform="scale(1 1) rotate(0) translate(4 223)">
<title>G</title>
<polygon fill="white" stroke="none" points="-4,4 -4,-223 146,-223 146,4 -4,4"/>
<g id="clust1" class="cluster"><title>cluster_1</title>
<polygon fill="none" stroke="blue" points="64,-136 64,-211 134,-211 134,-136 64,-136"/>
<text text-anchor="middle" x="99" y="-195.8" font-family="Times New Roman,serif" font-size="14.00">filters</text>
</g>
<!-- man -->
<g id="node1" class="node"><title>man</title>
<ellipse fill="none" stroke="black" cx="27" cy="-162" rx="27" ry="18"/>
<text text-anchor="middle" x="27" y="-158.3" font-family="Times New Roman,serif" font-size="14.00">man</text>
</g>
<!-- grep -->
<g id="node2" class="node"><title>grep</title>
<ellipse fill="none" stroke="black" cx="99" cy="-162" rx="27" ry="18"/>
<text text-anchor="middle" x="99" y="-158.3" font-family="Times New Roman,serif" font-size="14.00">grep</text>
</g>
<!-- $(...) -->
<g id="node3" class="node"><title>$(...)</title>
<ellipse fill="none" stroke="black" cx="99" cy="-90" rx="28.6953" ry="18"/>
<text text-anchor="middle" x="99" y="-86.3" font-family="Times New Roman,serif" font-size="14.00">$(...)</text>
</g>
<!-- grep&#45;&#45;$(...) -->
<g id="edge1" class="edge"><title>grep&#45;&#45;$(...)</title>
<path fill="none" stroke="black" d="M99,-143.697C99,-132.846 99,-118.917 99,-108.104"/>
</g>
<!-- find -->
<g id="node4" class="node"><title>find</title>
<ellipse fill="none" stroke="black" cx="99" cy="-18" rx="27" ry="18"/>
<text text-anchor="middle" x="99" y="-14.3" font-family="Times New Roman,serif" font-size="14.00">find</text>
</g>
<!-- $(...)&#45;&#45;find -->
<g id="edge2" class="edge"><title>$(...)&#45;&#45;find</title>
<path fill="none" stroke="black" d="M99,-71.6966C99,-60.8463 99,-46.9167 99,-36.1043"/>
</g>
</g>
</svg>
