<?xml version="1.0" encoding="UTF-8" standalone="no"?>
<!-- Created with Inkscape (http://www.inkscape.org/) -->

<svg
   xmlns:dc="http://purl.org/dc/elements/1.1/"
   xmlns:cc="http://creativecommons.org/ns#"
   xmlns:rdf="http://www.w3.org/1999/02/22-rdf-syntax-ns#"
   xmlns:svg="http://www.w3.org/2000/svg"
   xmlns="http://www.w3.org/2000/svg"
   version="1.1"
   width="716.0625"
   height="157.68196"
   id="svg2">
  <defs
     id="defs4" />
  <metadata
     id="metadata7">
    <rdf:RDF>
      <cc:Work
         rdf:about="">
        <dc:format>image/svg+xml</dc:format>
        <dc:type
           rdf:resource="http://purl.org/dc/dcmitype/StillImage" />
        <dc:title></dc:title>
      </cc:Work>
    </rdf:RDF>
  </metadata>
  <g
     transform="translate(-19,-141.97156)"
     id="layer1">
    <path
       d="m 189.1875,174.5 c -7.04892,13.58881 -14.61901,24.04387 -24.125,30.90625 -10.61356,-1.42014 -21.90134,-2.1875 -33.625,-2.1875 C 69.897198,203.21875 20,224.33872 20,250.375 c 0,26.03628 49.897198,47.125 111.4375,47.125 61.5403,0 111.40625,-21.08872 111.40625,-47.125 0,-18.08656 -24.07536,-33.8128 -59.40625,-41.71875 6.64888,-8.62545 8.41396,-22.76828 5.75,-34.15625 z"
       id="path3014"
       style="fill:#00edff;fill-opacity:1;stroke:#000000;stroke-width:2;stroke-miterlimit:4;stroke-opacity:1;stroke-dasharray:none" />
    <text
       x="40.414902"
       y="259.30945"
       id="text3000"
       xml:space="preserve"
       style="font-size:40px;font-style:normal;font-weight:normal;line-height:125%;letter-spacing:0px;word-spacing:0px;fill:#000000;fill-opacity:1;stroke:none;font-family:Sans"><tspan
         x="40.414902"
         y="259.30945"
         id="tspan3002"
         style="font-size:24px">alias command</tspan></text>
    <path
       d="m 330.27949,175.2774 c -7.04892,13.58881 36.15727,21.78715 26.65128,28.64953 -10.61356,-1.42014 6.30771,0.44534 -5.41595,0.44534 -61.54031,0 -104.66733,21.11997 -104.66733,47.15625 0,26.03628 49.89719,47.125 111.4375,47.125 61.5403,0 111.40625,-21.08872 111.40625,-47.125 0,-18.08656 -46.6426,-40.20685 -81.97349,-48.1128 -10.27655,-15.39562 -54.7743,-16.75035 -57.43826,-28.13832 z"
       id="path3014-8"
       style="fill:#00edff;fill-opacity:1;stroke:#000000;stroke-width:2;stroke-miterlimit:4;stroke-opacity:1;stroke-dasharray:none" />
    <text
       x="270.57797"
       y="257.91272"
       id="text3004"
       xml:space="preserve"
       style="font-size:40px;font-style:normal;font-weight:normal;line-height:125%;letter-spacing:0px;word-spacing:0px;fill:#000000;fill-opacity:1;stroke:none;font-family:Sans"><tspan
         x="270.57797"
         y="257.91272"
         id="tspan3006"
         style="font-size:24px">shortcut name</tspan></text>
    <path
       d="m 528.45349,174.11624 c -7.04892,13.58881 64.74244,22.91551 55.23645,29.77789 -10.61356,-1.42014 -4.66685,0.32155 -16.32345,1.5737 -7.00282,0.75224 -56.14777,19.99161 -56.14777,46.02789 0,26.03628 49.89719,47.125 111.4375,47.125 61.5403,0 111.40625,-21.08872 111.40625,-47.125 0,-18.08656 -46.6426,-40.20685 -81.97349,-48.1128 C 641.81243,187.9873 531.11745,185.50421 528.45349,174.11624 z"
       id="path3014-8-2"
       style="fill:#00edff;fill-opacity:1;stroke:#000000;stroke-width:2;stroke-miterlimit:4;stroke-opacity:1;stroke-dasharray:none" />
    <text
       x="523.21289"
       y="255.21933"
       id="text3008"
       xml:space="preserve"
       style="font-size:40px;font-style:normal;font-weight:normal;line-height:125%;letter-spacing:0px;word-spacing:0px;fill:#000000;fill-opacity:1;stroke:none;font-family:Sans"><tspan
         x="523.21289"
         y="255.21933"
         id="tspan3010"
         style="font-size:24px">command to run</tspan></text>
    <text
       x="122.85714"
       y="172.36218"
       id="text2996"
       xml:space="preserve"
       style="font-size:40px;font-style:normal;font-weight:normal;line-height:125%;letter-spacing:0px;word-spacing:0px;fill:#000000;fill-opacity:1;stroke:none;font-family:Sans"><tspan
         x="122.85714"
         y="172.36218"
         id="tspan2998">$ alias name='command'</tspan></text>
  </g>
</svg>
