<?xml version="1.0" encoding="UTF-8" standalone="no"?>
<!-- Created with Inkscape (http://www.inkscape.org/) -->

<svg
   xmlns:dc="http://purl.org/dc/elements/1.1/"
   xmlns:cc="http://creativecommons.org/ns#"
   xmlns:rdf="http://www.w3.org/1999/02/22-rdf-syntax-ns#"
   xmlns:svg="http://www.w3.org/2000/svg"
   xmlns="http://www.w3.org/2000/svg"
   xmlns:sodipodi="http://sodipodi.sourceforge.net/DTD/sodipodi-0.dtd"
   xmlns:inkscape="http://www.inkscape.org/namespaces/inkscape"
   width="451.0238"
   height="197.45378"
   id="svg2"
   version="1.1"
   inkscape:version="0.48.4 r9939"
   sodipodi:docname="fsm-simpler-zero-or-more-a.svg">
  <sodipodi:namedview
     id="base"
     pagecolor="#ffffff"
     bordercolor="#666666"
     borderopacity="1.0"
     inkscape:pageopacity="0.0"
     inkscape:pageshadow="2"
     inkscape:zoom="1.4"
     inkscape:cx="283.50112"
     inkscape:cy="79.638773"
     inkscape:document-units="px"
     inkscape:current-layer="layer1"
     showgrid="false"
     inkscape:window-width="1600"
     inkscape:window-height="825"
     inkscape:window-x="-9"
     inkscape:window-y="-9"
     inkscape:window-maximized="1"
     inkscape:snap-to-guides="false"
     inkscape:snap-global="true"
     showguides="true"
     inkscape:guide-bbox="true"
     fit-margin-top="10"
     fit-margin-left="10"
     fit-margin-right="10"
     fit-margin-bottom="10" />
  <defs
     id="defs4">
    <marker
       inkscape:stockid="Arrow2Mend"
       orient="auto"
       refY="0"
       refX="0"
       id="Arrow2Mend"
       style="overflow:visible">
      <path
         id="path8025"
         style="fill-rule:evenodd;stroke-width:0.625;stroke-linejoin:round"
         d="M 8.7185878,4.0337352 -2.2072895,0.01601326 8.7185884,-4.0017078 c -1.7454984,2.3720609 -1.7354408,5.6174519 -6e-7,8.035443 z"
         transform="scale(-0.6,-0.6)"
         inkscape:connector-curvature="0" />
    </marker>
    <marker
       inkscape:stockid="Arrow2Lend"
       orient="auto"
       refY="0"
       refX="0"
       id="Arrow2Lend"
       style="overflow:visible">
      <path
         id="path4780"
         style="fill-rule:evenodd;stroke-width:0.625;stroke-linejoin:round"
         d="M 8.7185878,4.0337352 -2.2072895,0.01601326 8.7185884,-4.0017078 c -1.7454984,2.3720609 -1.7354408,5.6174519 -6e-7,8.035443 z"
         transform="matrix(-1.1,0,0,-1.1,-1.1,0)"
         inkscape:connector-curvature="0" />
    </marker>
    <marker
       inkscape:stockid="Arrow1Lend"
       orient="auto"
       refY="0"
       refX="0"
       id="Arrow1Lend"
       style="overflow:visible">
      <path
         id="path3964"
         d="M 0,0 5,-5 -12.5,0 5,5 0,0 z"
         style="fill-rule:evenodd;stroke:#000000;stroke-width:1pt"
         transform="matrix(-0.8,0,0,-0.8,-10,0)"
         inkscape:connector-curvature="0" />
    </marker>
    <marker
       inkscape:stockid="Arrow1Lend"
       orient="auto"
       refY="0"
       refX="0"
       id="Arrow1Lend-7"
       style="overflow:visible">
      <path
         inkscape:connector-curvature="0"
         id="path3964-4"
         d="M 0,0 5,-5 -12.5,0 5,5 0,0 z"
         style="fill-rule:evenodd;stroke:#000000;stroke-width:1pt"
         transform="matrix(-0.8,0,0,-0.8,-10,0)" />
    </marker>
    <marker
       inkscape:stockid="Arrow1Lend"
       orient="auto"
       refY="0"
       refX="0"
       id="Arrow1Lend-9"
       style="overflow:visible">
      <path
         inkscape:connector-curvature="0"
         id="path3964-48"
         d="M 0,0 5,-5 -12.5,0 5,5 0,0 z"
         style="fill-rule:evenodd;stroke:#000000;stroke-width:1pt"
         transform="matrix(-0.8,0,0,-0.8,-10,0)" />
    </marker>
    <marker
       inkscape:stockid="Arrow1LendA"
       orient="auto"
       refY="0"
       refX="0"
       id="Arrow1LendA"
       style="overflow:visible">
      <path
         id="path6515"
         d="M 0,0 5,-5 -12.5,0 5,5 0,0 z"
         style="fill:#0000a0;fill-rule:evenodd;stroke:#0000a0;stroke-width:1pt"
         transform="matrix(-0.8,0,0,-0.8,-10,0)"
         inkscape:connector-curvature="0" />
    </marker>
    <marker
       inkscape:stockid="Arrow2Lendh"
       orient="auto"
       refY="0"
       refX="0"
       id="Arrow2Lendh"
       style="overflow:visible">
      <path
         id="path6518"
         style="fill:#0000a0;fill-rule:evenodd;stroke:#0000a0;stroke-width:0.625;stroke-linejoin:round"
         d="M 8.7185878,4.0337352 -2.2072895,0.01601326 8.7185884,-4.0017078 c -1.7454984,2.3720609 -1.7354408,5.6174519 -6e-7,8.035443 z"
         transform="matrix(-1.1,0,0,-1.1,-1.1,0)"
         inkscape:connector-curvature="0" />
    </marker>
    <marker
       inkscape:stockid="Arrow2Lendl"
       orient="auto"
       refY="0"
       refX="0"
       id="Arrow2Lendl"
       style="overflow:visible">
      <path
         id="path6759"
         style="fill:#0000a0;fill-rule:evenodd;stroke:#0000a0;stroke-width:0.625;stroke-linejoin:round"
         d="M 8.7185878,4.0337352 -2.2072895,0.01601326 8.7185884,-4.0017078 c -1.7454984,2.3720609 -1.7354408,5.6174519 -6e-7,8.035443 z"
         transform="matrix(-1.1,0,0,-1.1,-1.1,0)"
         inkscape:connector-curvature="0" />
    </marker>
    <marker
       inkscape:stockid="Arrow2LendI"
       orient="auto"
       refY="0"
       refX="0"
       id="Arrow2LendI"
       style="overflow:visible">
      <path
         id="path7955"
         style="fill:#0000a0;fill-rule:evenodd;stroke:#0000a0;stroke-width:0.625;stroke-linejoin:round"
         d="M 8.7185878,4.0337352 -2.2072895,0.01601326 8.7185884,-4.0017078 c -1.7454984,2.3720609 -1.7354408,5.6174519 -6e-7,8.035443 z"
         transform="matrix(-1.1,0,0,-1.1,-1.1,0)"
         inkscape:connector-curvature="0" />
    </marker>
    <marker
       inkscape:stockid="Arrow2Mendc"
       orient="auto"
       refY="0"
       refX="0"
       id="Arrow2Mendc"
       style="overflow:visible">
      <path
         id="path9862"
         style="fill:#0000a0;fill-rule:evenodd;stroke:#0000a0;stroke-width:0.625;stroke-linejoin:round"
         d="M 8.7185878,4.0337352 -2.2072895,0.01601326 8.7185884,-4.0017078 c -1.7454984,2.3720609 -1.7354408,5.6174519 -6e-7,8.035443 z"
         transform="scale(-0.6,-0.6)"
         inkscape:connector-curvature="0" />
    </marker>
    <marker
       inkscape:stockid="Arrow2Lendy"
       orient="auto"
       refY="0"
       refX="0"
       id="Arrow2Lendy"
       style="overflow:visible">
      <path
         id="path10350"
         style="fill:#0000a0;fill-rule:evenodd;stroke:#0000a0;stroke-width:0.625;stroke-linejoin:round"
         d="M 8.7185878,4.0337352 -2.2072895,0.01601326 8.7185884,-4.0017078 c -1.7454984,2.3720609 -1.7354408,5.6174519 -6e-7,8.035443 z"
         transform="matrix(-1.1,0,0,-1.1,-1.1,0)"
         inkscape:connector-curvature="0" />
    </marker>
    <marker
       inkscape:stockid="Arrow2LendV"
       orient="auto"
       refY="0"
       refX="0"
       id="Arrow2LendV"
       style="overflow:visible">
      <path
         inkscape:connector-curvature="0"
         id="path11189"
         style="fill:#0000a0;fill-rule:evenodd;stroke:#0000a0;stroke-width:0.625;stroke-linejoin:round"
         d="M 8.7185878,4.0337352 -2.2072895,0.01601326 8.7185884,-4.0017078 c -1.7454984,2.3720609 -1.7354408,5.6174519 -6e-7,8.035443 z"
         transform="matrix(-1.1,0,0,-1.1,-1.1,0)" />
    </marker>
  </defs>
  <metadata
     id="metadata7">
    <rdf:RDF>
      <cc:Work
         rdf:about="">
        <dc:format>image/svg+xml</dc:format>
        <dc:type
           rdf:resource="http://purl.org/dc/dcmitype/StillImage" />
        <dc:title />
      </cc:Work>
    </rdf:RDF>
  </metadata>
  <g
     inkscape:label="Layer 1"
     inkscape:groupmode="layer"
     id="layer1"
     transform="translate(-24.860416,-730.06299)">
    <path
       sodipodi:type="arc"
       style="fill:#f6f6f6;fill-opacity:0;stroke:#0000a0;stroke-width:2.72756839;stroke-miterlimit:4;stroke-opacity:1;stroke-dasharray:none"
       id="path2985"
       sodipodi:cx="191.42857"
       sodipodi:cy="243.79076"
       sodipodi:rx="65.714287"
       sodipodi:ry="62.857143"
       d="m 257.14286,243.79076 c 0,34.71504 -29.42129,62.85714 -65.71429,62.85714 -36.29299,0 -65.71428,-28.1421 -65.71428,-62.85714 0,-34.71505 29.42129,-62.85715 65.71428,-62.85715 36.293,0 65.71429,28.1421 65.71429,62.85715 z"
       transform="matrix(0.71199334,0,0,0.75514926,40.485493,684.95184)" />
    <path
       style="fill:#0000a0;fill-opacity:1;stroke:#0000a0;stroke-width:2;stroke-linecap:butt;stroke-linejoin:miter;stroke-miterlimit:4;stroke-opacity:1;stroke-dasharray:none;marker-start:none;marker-end:url(#Arrow2Lendl)"
       d="m 35.860416,869.05025 86.873124,0"
       id="path3007"
       inkscape:connector-curvature="0" />
    <path
       sodipodi:type="arc"
       style="fill:#0000a0;fill-opacity:1;stroke:#0000a0;stroke-width:2;stroke-miterlimit:4;stroke-opacity:1;stroke-dasharray:none"
       id="path4429"
       sodipodi:cx="433.35544"
       sodipodi:cy="259.39243"
       sodipodi:rx="28.284271"
       sodipodi:ry="28.284271"
       d="m 461.63971,259.39243 c 0,15.62097 -12.6633,28.28427 -28.28427,28.28427 -15.62097,0 -28.28427,-12.6633 -28.28427,-28.28427 0,-15.62098 12.6633,-28.28428 28.28427,-28.28428 15.62097,0 28.28427,12.6633 28.28427,28.28428 z"
       transform="matrix(0.76716068,0,0,0.76716068,85.642834,670.05458)" />
    <path
       sodipodi:nodetypes="cc"
       style="fill:#0000a0;fill-opacity:1;stroke:#0000a0;stroke-width:2;stroke-linecap:butt;stroke-linejoin:miter;stroke-miterlimit:4;stroke-opacity:1;stroke-dasharray:none;marker-start:none;marker-mid:none;marker-end:url(#Arrow2Lendh)"
       d="m 237.65453,869.05025 120.80169,0"
       id="path3007-8"
       inkscape:connector-curvature="0" />
    <path
       sodipodi:type="arc"
       style="fill:#f6f6f6;fill-opacity:0;stroke:#0000a0;stroke-width:2.72756839;stroke-miterlimit:4;stroke-opacity:1;stroke-dasharray:none"
       id="path2985-7"
       sodipodi:cx="191.42857"
       sodipodi:cy="243.79076"
       sodipodi:rx="65.714287"
       sodipodi:ry="62.857143"
       d="m 257.14286,243.79076 c 0,34.71504 -29.42129,62.85714 -65.71429,62.85714 -36.29299,0 -65.71428,-28.1421 -65.71428,-62.85714 0,-34.71505 29.42129,-62.85715 65.71428,-62.85715 36.293,0 65.71429,28.1421 65.71429,62.85715 z"
       transform="matrix(0.71199334,0,0,0.75514926,281.80022,684.95184)" />
    <path
       sodipodi:nodetypes="csc"
       inkscape:connector-curvature="0"
       id="path7353"
       d="m 224.28571,830.21929 c 0,0 42.14286,-57.85714 -54.28572,-56.42857 -58.56499,0.86763 -65.71428,26.42857 -42.14285,51.42857"
       style="fill:none;stroke:#0000a0;stroke-width:2;stroke-linecap:butt;stroke-linejoin:miter;stroke-miterlimit:4;stroke-opacity:1;stroke-dasharray:none;marker-end:url(#Arrow2Lendy)" />
    <text
       xml:space="preserve"
       style="font-size:40px;font-style:normal;font-variant:normal;font-weight:normal;font-stretch:normal;text-align:start;line-height:125%;letter-spacing:0px;word-spacing:0px;writing-mode:lr-tb;text-anchor:start;fill:#0000a0;fill-opacity:1;stroke:none;font-family:Consolas;-inkscape-font-specification:Consolas"
       x="166.45924"
       y="760.02393"
       id="text4425-1"
       sodipodi:linespacing="125%"><tspan
         sodipodi:role="line"
         id="tspan4427-7"
         x="166.45924"
         y="760.02393">a</tspan></text>
  </g>
</svg>
