<?xml version="1.0" encoding="UTF-8" standalone="no"?>
<!DOCTYPE svg PUBLIC "-//W3C//DTD SVG 1.1//EN"
 "http://www.w3.org/Graphics/SVG/1.1/DTD/svg11.dtd">
<!-- Generated by graphviz version 2.38.0 (20140413.2041)
 -->
<!-- Title: G Pages: 1 -->
<svg width="494pt" height="332pt"
 viewBox="0.00 0.00 493.74 332.00" xmlns="http://www.w3.org/2000/svg" xmlns:xlink="http://www.w3.org/1999/xlink">
<g id="graph0" class="graph" transform="scale(1 1) rotate(0) translate(4 328)">
<title>G</title>
<polygon fill="white" stroke="none" points="-4,4 -4,-328 489.739,-328 489.739,4 -4,4"/>
<!-- repository -->
<g id="node1" class="node"><title>repository</title>
<ellipse fill="none" stroke="black" stroke-width="2" cx="221.494" cy="-234" rx="48.1917" ry="18"/>
<text text-anchor="middle" x="221.494" y="-230.3" font-family="Times New Roman,serif" font-size="14.00">repository</text>
</g>
<!-- commit -->
<g id="node2" class="node"><title>commit</title>
<ellipse fill="none" stroke="black" stroke-width="2" cx="137.494" cy="-90" rx="38.1938" ry="18"/>
<text text-anchor="middle" x="137.494" y="-86.3" font-family="Times New Roman,serif" font-size="14.00">commit</text>
</g>
<!-- repository&#45;&#45;commit -->
<g id="edge2" class="edge"><title>repository&#45;&#45;commit</title>
<path fill="none" stroke="black" d="M187.095,-221.098C168.545,-212.714 147.295,-199.464 136.494,-180 124.047,-157.571 128.163,-126.808 132.595,-107.949"/>
</g>
<!-- staging area -->
<g id="node6" class="node"><title>staging area</title>
<ellipse fill="none" stroke="black" cx="270.494" cy="-162" rx="53.0913" ry="18"/>
<text text-anchor="middle" x="270.494" y="-158.3" font-family="Times New Roman,serif" font-size="14.00">staging area</text>
</g>
<!-- repository&#45;&#45;staging area -->
<g id="edge5" class="edge"><title>repository&#45;&#45;staging area</title>
<path fill="none" stroke="black" d="M233.106,-216.411C240.804,-205.414 250.874,-191.027 258.624,-179.956"/>
</g>
<!-- log -->
<g id="node8" class="node"><title>log</title>
<ellipse fill="none" stroke="black" cx="172.494" cy="-162" rx="27" ry="18"/>
<text text-anchor="middle" x="172.494" y="-158.3" font-family="Times New Roman,serif" font-size="14.00">log</text>
</g>
<!-- repository&#45;&#45;log -->
<g id="edge7" class="edge"><title>repository&#45;&#45;log</title>
<path fill="none" stroke="black" d="M209.881,-216.411C201.844,-204.929 191.22,-189.751 183.351,-178.511"/>
</g>
<!-- .gitignore -->
<g id="node11" class="node"><title>.gitignore</title>
<ellipse fill="none" stroke="black" cx="385.494" cy="-162" rx="44.393" ry="18"/>
<text text-anchor="middle" x="385.494" y="-158.3" font-family="Times New Roman,serif" font-size="14.00">.gitignore</text>
</g>
<!-- repository&#45;&#45;.gitignore -->
<g id="edge11" class="edge"><title>repository&#45;&#45;.gitignore</title>
<path fill="none" stroke="black" d="M251.956,-219.998C281.691,-207.306 326.631,-188.124 356.022,-175.579"/>
</g>
<!-- commit message -->
<g id="node4" class="node"><title>commit message</title>
<ellipse fill="none" stroke="black" cx="71.4937" cy="-18" rx="71.4873" ry="18"/>
<text text-anchor="middle" x="71.4937" y="-14.3" font-family="Times New Roman,serif" font-size="14.00">commit message</text>
</g>
<!-- commit&#45;&#45;commit message -->
<g id="edge3" class="edge"><title>commit&#45;&#45;commit message</title>
<path fill="none" stroke="black" d="M122.517,-73.1159C112.02,-61.9827 98.0134,-47.127 87.3312,-35.7973"/>
</g>
<!-- identifier -->
<g id="node5" class="node"><title>identifier</title>
<ellipse fill="none" stroke="black" cx="203.494" cy="-18" rx="42.4939" ry="18"/>
<text text-anchor="middle" x="203.494" y="-14.3" font-family="Times New Roman,serif" font-size="14.00">identifier</text>
</g>
<!-- commit&#45;&#45;identifier -->
<g id="edge4" class="edge"><title>commit&#45;&#45;identifier</title>
<path fill="none" stroke="black" d="M152.47,-73.1159C163.119,-61.8213 177.381,-46.6956 188.118,-35.307"/>
</g>
<!-- git -->
<g id="node3" class="node"><title>git</title>
<ellipse fill="none" stroke="black" cx="322.494" cy="-306" rx="27" ry="18"/>
<text text-anchor="middle" x="322.494" y="-302.3" font-family="Times New Roman,serif" font-size="14.00">git</text>
</g>
<!-- git&#45;&#45;repository -->
<g id="edge1" class="edge"><title>git&#45;&#45;repository</title>
<path fill="none" stroke="black" d="M304.437,-292.485C287.301,-280.609 261.523,-262.743 243.26,-250.085"/>
</g>
<!-- git diff -->
<g id="node9" class="node"><title>git diff</title>
<ellipse fill="none" stroke="black" cx="322.494" cy="-234" rx="34.394" ry="18"/>
<text text-anchor="middle" x="322.494" y="-230.3" font-family="Times New Roman,serif" font-size="14.00">git diff</text>
</g>
<!-- git&#45;&#45;git diff -->
<g id="edge9" class="edge"><title>git&#45;&#45;git diff</title>
<path fill="none" stroke="black" d="M322.494,-287.697C322.494,-276.846 322.494,-262.917 322.494,-252.104"/>
</g>
<!-- git checkout -->
<g id="node10" class="node"><title>git checkout</title>
<ellipse fill="none" stroke="black" cx="430.494" cy="-234" rx="55.4913" ry="18"/>
<text text-anchor="middle" x="430.494" y="-230.3" font-family="Times New Roman,serif" font-size="14.00">git checkout</text>
</g>
<!-- git&#45;&#45;git checkout -->
<g id="edge10" class="edge"><title>git&#45;&#45;git checkout</title>
<path fill="none" stroke="black" d="M341.306,-292.807C359.436,-281.056 386.94,-263.229 406.609,-250.481"/>
</g>
<!-- working files -->
<g id="node7" class="node"><title>working files</title>
<ellipse fill="none" stroke="black" cx="270.494" cy="-90" rx="57.3905" ry="18"/>
<text text-anchor="middle" x="270.494" y="-86.3" font-family="Times New Roman,serif" font-size="14.00">working files</text>
</g>
<!-- staging area&#45;&#45;working files -->
<g id="edge6" class="edge"><title>staging area&#45;&#45;working files</title>
<path fill="none" stroke="black" d="M270.494,-143.697C270.494,-132.846 270.494,-118.917 270.494,-108.104"/>
</g>
<!-- log&#45;&#45;commit -->
<g id="edge8" class="edge"><title>log&#45;&#45;commit</title>
<path fill="none" stroke="black" d="M164.376,-144.765C158.802,-133.618 151.426,-118.865 145.81,-107.633"/>
</g>
</g>
</svg>
