<?xml version="1.0" encoding="UTF-8" standalone="no"?>
<!DOCTYPE svg PUBLIC "-//W3C//DTD SVG 1.1//EN"
 "http://www.w3.org/Graphics/SVG/1.1/DTD/svg11.dtd">
<!-- Generated by graphviz version 2.38.0 (20140413.2041)
 -->
<!-- Title: G Pages: 1 -->
<svg width="192pt" height="218pt"
 viewBox="0.00 0.00 192.00 218.00" xmlns="http://www.w3.org/2000/svg" xmlns:xlink="http://www.w3.org/1999/xlink">
<g id="graph0" class="graph" transform="scale(1 1) rotate(0) translate(4 214)">
<title>G</title>
<polygon fill="white" stroke="none" points="-4,4 -4,-214 188,-214 188,4 -4,4"/>
<!-- local -->
<g id="node1" class="node"><title>local</title>
<polygon fill="none" stroke="black" points="144,-210 40,-210 40,-174 144,-174 144,-210"/>
<text text-anchor="middle" x="92" y="-188.3" font-family="Times New Roman,serif" font-size="14.00">local repository</text>
</g>
<!-- remote -->
<g id="node3" class="node"><title>remote</title>
<polygon fill="none" stroke="black" points="150,-123 34,-123 34,-87 150,-87 150,-123"/>
<text text-anchor="middle" x="92" y="-101.3" font-family="Times New Roman,serif" font-size="14.00">remote repository</text>
</g>
<!-- local&#45;&gt;remote -->
<g id="edge3" class="edge"><title>local&#45;&gt;remote</title>
<path fill="none" stroke="black" d="M71.7978,-173.928C67.0148,-168.716 62.5626,-162.601 60,-156 56.6582,-147.392 59.5749,-138.685 64.7788,-131.003"/>
<polygon fill="black" stroke="black" points="67.5815,-133.103 71.1354,-123.122 62.133,-128.709 67.5815,-133.103"/>
<text text-anchor="middle" x="74" y="-144.8" font-family="Times New Roman,serif" font-size="14.00">push</text>
</g>
<!-- otherlocal -->
<g id="node2" class="node"><title>otherlocal</title>
<polygon fill="none" stroke="black" points="184,-36 0,-36 0,-0 184,-0 184,-36"/>
<text text-anchor="middle" x="92" y="-14.3" font-family="Times New Roman,serif" font-size="14.00">collaborator&#39;s local repository</text>
</g>
<!-- remote&#45;&gt;local -->
<g id="edge1" class="edge"><title>remote&#45;&gt;local</title>
<path fill="none" stroke="black" d="M92,-123.175C92,-134.806 92,-150.419 92,-163.734"/>
<polygon fill="black" stroke="black" points="88.5001,-163.799 92,-173.799 95.5001,-163.799 88.5001,-163.799"/>
<text text-anchor="middle" x="107.5" y="-144.8" font-family="Times New Roman,serif" font-size="14.00">clone</text>
</g>
<!-- remote&#45;&gt;local -->
<g id="edge2" class="edge"><title>remote&#45;&gt;local</title>
<path fill="none" stroke="black" d="M112.865,-123.122C121.496,-132.374 128.551,-144.279 124,-156 122.639,-159.507 120.744,-162.876 118.55,-166.046"/>
<polygon fill="black" stroke="black" points="115.749,-163.944 112.202,-173.928 121.2,-168.335 115.749,-163.944"/>
<text text-anchor="middle" x="135.5" y="-144.8" font-family="Times New Roman,serif" font-size="14.00">pull</text>
</g>
<!-- remote&#45;&gt;otherlocal -->
<g id="edge4" class="edge"><title>remote&#45;&gt;otherlocal</title>
<path fill="none" stroke="black" d="M92,-86.799C92,-75.1626 92,-59.5479 92,-46.2368"/>
<polygon fill="black" stroke="black" points="95.5001,-46.1754 92,-36.1754 88.5001,-46.1755 95.5001,-46.1754"/>
<text text-anchor="middle" x="107.5" y="-57.8" font-family="Times New Roman,serif" font-size="14.00">clone</text>
</g>
</g>
</svg>
