<?xml version="1.0" encoding="UTF-8" standalone="no"?>
<!-- Created with Inkscape (http://www.inkscape.org/) -->

<svg
   xmlns:dc="http://purl.org/dc/elements/1.1/"
   xmlns:cc="http://creativecommons.org/ns#"
   xmlns:rdf="http://www.w3.org/1999/02/22-rdf-syntax-ns#"
   xmlns:svg="http://www.w3.org/2000/svg"
   xmlns="http://www.w3.org/2000/svg"
   version="1.1"
   width="600.30536"
   height="162.3425"
   viewBox="0 0 600 162"
   id="svg4734"
   xml:space="preserve"><metadata
     id="metadata4740"><rdf:RDF><cc:Work
         rdf:about=""><dc:format>image/svg+xml</dc:format><dc:type
           rdf:resource="http://purl.org/dc/dcmitype/StillImage" /><dc:title></dc:title></cc:Work></rdf:RDF></metadata><defs
     id="defs4738"><clipPath
       id="clipPath4748"><path
         d="M 0,576 576,576 576,0 0,0 0,576 z"
         id="path4750" /></clipPath></defs><g
     transform="matrix(1.25,0,0,-1.25,-59.8475,441.17075)"
     id="g4742"><g
       id="g4744"><g
         clip-path="url(#clipPath4748)"
         id="g4746"><g
           transform="translate(140.375,297.3496)"
           id="g4752"><path
             d="m 0,0 -40.356,0 c -1.041,0 -1.886,-0.845 -1.886,-1.887 l 0,-19.73 c 0,-1.041 0.845,-1.889 1.886,-1.889 l 15.743,0 0,-24.514 c 0,0 -3.535,-1.205 -13.308,-1.205 -11.53,0 -27.637,4.213 -27.637,39.632 0,35.425 16.772,40.086 32.518,40.086 13.63,0 19.502,-2.399 23.238,-3.556 1.174,-0.359 2.26,0.81 2.26,1.851 l 4.502,19.064 c 0,0.488 -0.165,1.075 -0.721,1.473 -1.517,1.083 -10.774,6.262 -34.16,6.262 -26.941,0 -54.576,-11.462 -54.576,-66.562 0,-55.101 31.64,-63.312 58.302,-63.312 22.076,0 35.468,9.433 35.468,9.433 0.552,0.305 0.612,1.077 0.612,1.43 l 0,61.537 C 1.885,-0.845 1.041,0 0,0"
             id="path4754"
             style="fill:#2e2d2d;fill-opacity:1;fill-rule:nonzero;stroke:none" /></g><g
           transform="translate(348.3525,346.335)"
           id="g4756"><path
             d="m 0,0 c 0,1.05 -0.832,1.897 -1.873,1.897 l -22.723,0 c -1.038,0 -1.882,-0.847 -1.882,-1.897 0,-0.005 0.006,-43.913 0.006,-43.913 l -35.419,0 0,43.913 c 0,1.05 -0.836,1.897 -1.875,1.897 l -22.721,0 c -1.034,0 -1.877,-0.847 -1.877,-1.897 l 0,-118.903 c 0,-1.049 0.843,-1.903 1.877,-1.903 l 22.721,0 c 1.039,0 1.875,0.854 1.875,1.903 l 0,50.859 35.419,0 c 0,0 -0.061,-50.855 -0.061,-50.859 0,-1.049 0.843,-1.903 1.882,-1.903 l 22.776,0 c 1.041,0 1.873,0.854 1.875,1.903 L 0,0 z"
             id="path4758"
             style="fill:#2e2d2d;fill-opacity:1;fill-rule:nonzero;stroke:none" /></g><g
           transform="translate(183.2539,330.7324)"
           id="g4760"><path
             d="m 0,0 c 0,8.182 -6.56,14.793 -14.653,14.793 -8.085,0 -14.65,-6.611 -14.65,-14.793 0,-8.174 6.565,-14.804 14.65,-14.804 C -6.56,-14.804 0,-8.174 0,0"
             id="path4762"
             style="fill:#2e2d2d;fill-opacity:1;fill-rule:nonzero;stroke:none" /></g><g
           transform="translate(181.6289,252.5137)"
           id="g4764"><path
             d="m 0,0 0,54.886 c 0,1.042 -0.841,1.894 -1.88,1.894 l -22.651,0 c -1.039,0 -1.969,-1.072 -1.969,-2.113 l 0,-78.636 c 0,-2.31 1.44,-2.998 3.304,-2.998 l 20.408,0 c 2.239,0 2.788,1.1 2.788,3.035 L 0,0 z"
             id="path4766"
             style="fill:#2e2d2d;fill-opacity:1;fill-rule:nonzero;stroke:none" /></g><g
           transform="translate(434.71,309.1152)"
           id="g4768"><path
             d="m 0,0 -22.549,0 c -1.034,0 -1.876,-0.853 -1.876,-1.901 l 0,-58.302 c 0,0 -5.728,-4.192 -13.859,-4.192 -8.13,0 -10.288,3.69 -10.288,11.651 l 0,50.843 c 0,1.048 -0.84,1.901 -1.875,1.901 l -22.885,0 c -1.033,0 -1.879,-0.853 -1.879,-1.901 l 0,-54.693 c 0,-23.646 13.179,-29.431 31.309,-29.431 14.873,0 26.865,8.216 26.865,8.216 0,0 0.571,-4.33 0.829,-4.843 0.259,-0.512 0.932,-1.03 1.659,-1.03 l 14.559,0.065 c 1.033,0 1.879,0.853 1.879,1.898 L 1.882,-1.901 C 1.882,-0.853 1.039,0 0,0"
             id="path4770"
             style="fill:#2e2d2d;fill-opacity:1;fill-rule:nonzero;stroke:none" /></g><g
           transform="translate(487.4453,244.793)"
           id="g4772"><path
             d="m 0,0 c -7.821,0.238 -13.126,3.787 -13.126,3.787 l 0,37.654 c 0,0 5.233,3.208 11.654,3.782 C 6.648,45.95 14.473,43.497 14.473,24.127 14.473,3.701 10.941,-0.33 0,0 m 8.894,66.993 c -12.807,0 -21.518,-5.714 -21.518,-5.714 l 0,40.263 c 0,1.05 -0.839,1.897 -1.875,1.897 l -22.787,0 c -1.036,0 -1.878,-0.847 -1.878,-1.897 l 0,-118.903 c 0,-1.049 0.842,-1.903 1.881,-1.903 l 15.809,0 c 0.712,0 1.251,0.368 1.65,1.01 0.392,0.639 0.96,5.483 0.96,5.483 0,0 9.317,-8.831 26.957,-8.831 20.708,0 32.584,10.504 32.584,47.155 0,36.651 -18.967,41.44 -31.783,41.44"
             id="path4774"
             style="fill:#2e2d2d;fill-opacity:1;fill-rule:nonzero;stroke:none" /></g><g
           transform="translate(246.9355,309.3047)"
           id="g4776"><path
             d="m 0,0 -17.045,0 c 0,0 -0.025,22.513 -0.025,22.518 0,0.853 -0.44,1.278 -1.425,1.278 l -23.228,0 c -0.903,0 -1.387,-0.397 -1.387,-1.265 l 0,-23.269 c 0,0 -11.641,-2.81 -12.428,-3.037 -0.783,-0.228 -1.36,-0.951 -1.36,-1.813 l 0,-14.622 c 0,-1.052 0.839,-1.9 1.878,-1.9 l 11.91,0 0,-35.179 c 0,-26.129 18.328,-28.695 30.695,-28.695 5.651,0 12.411,1.814 13.527,2.226 0.675,0.248 1.068,0.947 1.068,1.705 l 0.018,16.086 c 0,1.049 -0.886,1.899 -1.884,1.899 -0.993,0 -3.534,-0.405 -6.15,-0.405 -8.372,0 -11.209,3.893 -11.209,8.932 0,5.035 -10e-4,33.431 -10e-4,33.431 l 17.046,0 c 1.039,0 1.881,0.848 1.881,1.9 l 0,18.315 C 1.881,-0.845 1.039,0 0,0"
             id="path4778"
             style="fill:#2e2d2d;fill-opacity:1;fill-rule:nonzero;stroke:none" /></g></g></g></g></svg>
