<?xml version="1.0" encoding="UTF-8" standalone="no"?>
<!-- Created with Inkscape (http://www.inkscape.org/) -->

<svg
   xmlns:dc="http://purl.org/dc/elements/1.1/"
   xmlns:cc="http://creativecommons.org/ns#"
   xmlns:rdf="http://www.w3.org/1999/02/22-rdf-syntax-ns#"
   xmlns:svg="http://www.w3.org/2000/svg"
   xmlns="http://www.w3.org/2000/svg"
   version="1.1"
   width="150.96996"
   height="147.24187"
   id="svg5284">
  <defs
     id="defs5286" />
  <metadata
     id="metadata5289">
    <rdf:RDF>
      <cc:Work
         rdf:about="">
        <dc:format>image/svg+xml</dc:format>
        <dc:type
           rdf:resource="http://purl.org/dc/dcmitype/StillImage" />
        <dc:title></dc:title>
      </cc:Work>
    </rdf:RDF>
  </metadata>
  <g
     transform="translate(-353.08643,-598.74125)"
     id="layer1">
    <path
       d="m 428.57143,598.74125 c -41.68375,0 -75.485,33.79375 -75.485,75.485 0,33.35 21.62875,61.645 51.62125,71.62625 3.7725,0.69875 5.1575,-1.6375 5.1575,-3.63125 0,-1.79875 -0.07,-7.74625 -0.1025,-14.05375 -21,4.56625 -25.43125,-8.90625 -25.43125,-8.90625 -3.43375,-8.72375 -8.38125,-11.045 -8.38125,-11.045 -6.84875,-4.685 0.51625,-4.58875 0.51625,-4.58875 7.58,0.5325 11.57125,7.78 11.57125,7.78 6.7325,11.53875 17.65875,8.2025 21.96625,6.27375 0.67875,-4.8775 2.63375,-8.20875 4.7925,-10.09375 -16.76625,-1.9075 -34.39125,-8.38125 -34.39125,-37.305 0,-8.24 2.94875,-14.975 7.7775,-20.26125 -0.78375,-1.90125 -3.3675,-9.57875 0.7325,-19.97625 0,0 6.33875,-2.0275 20.7625,7.73875 6.02125,-1.6725 12.47875,-2.51125 18.89375,-2.54125 6.415,0.03 12.8775,0.86875 18.91,2.54125 14.4075,-9.76625 20.7375,-7.73875 20.7375,-7.73875 4.10875,10.3975 1.525,18.075 0.74125,19.97625 4.84,5.28625 7.7675,12.02125 7.7675,20.26125 0,28.99375 -17.65875,35.37625 -34.4675,37.245 2.7075,2.3425 5.12,6.93625 5.12,13.97875 0,10.1 -0.0863,18.22875 -0.0863,20.715 0,2.01 1.3575,4.3625 5.18375,3.6225 29.9775,-9.9925 51.57875,-38.2775 51.57875,-71.6175 0,-41.69125 -33.79625,-75.485 -75.485,-75.485"
       id="path4844"
       style="fill:#1b1817;fill-opacity:1;fill-rule:evenodd;stroke:none" />
    <g
       transform="matrix(1.25,0,0,-1.25,381.67693,707.12024)"
       id="g4846">
      <path
         d="m 0,0 c -0.133,-0.301 -0.605,-0.391 -1.035,-0.185 -0.439,0.198 -0.684,0.607 -0.542,0.908 0.13,0.308 0.602,0.394 1.04,0.188 C -0.099,0.714 0.151,0.301 0,0"
         id="path4848"
         style="fill:#1b1817;fill-opacity:1;fill-rule:nonzero;stroke:none" />
    </g>
    <g
       transform="matrix(1.25,0,0,-1.25,384.7348,710.53088)"
       id="g4850">
      <path
         d="M 0,0 C -0.288,-0.267 -0.852,-0.143 -1.233,0.279 -1.629,0.7 -1.702,1.264 -1.41,1.534 -1.113,1.801 -0.567,1.676 -0.172,1.255 0.224,0.829 0.301,0.271 0,0"
         id="path4852"
         style="fill:#1b1817;fill-opacity:1;fill-rule:nonzero;stroke:none" />
    </g>
    <g
       transform="matrix(1.25,0,0,-1.25,387.71093,714.87774)"
       id="g4854">
      <path
         d="M 0,0 C -0.37,-0.258 -0.976,-0.017 -1.35,0.52 -1.72,1.058 -1.72,1.702 -1.341,1.96 -0.967,2.218 -0.37,1.985 0.009,1.453 0.378,0.907 0.378,0.263 0,0"
         id="path4856"
         style="fill:#1b1817;fill-opacity:1;fill-rule:nonzero;stroke:none" />
    </g>
    <g
       transform="matrix(1.25,0,0,-1.25,391.78805,719.07824)"
       id="g4858">
      <path
         d="M 0,0 C -0.331,-0.365 -1.036,-0.267 -1.552,0.232 -2.08,0.718 -2.227,1.409 -1.896,1.774 -1.56,2.14 -0.851,2.037 -0.331,1.543 0.193,1.057 0.352,0.361 0,0"
         id="path4860"
         style="fill:#1b1817;fill-opacity:1;fill-rule:nonzero;stroke:none" />
    </g>
    <g
       transform="matrix(1.25,0,0,-1.25,397.41305,721.51712)"
       id="g4862">
      <path
         d="m 0,0 c -0.147,-0.473 -0.825,-0.687 -1.509,-0.486 -0.683,0.207 -1.13,0.76 -0.992,1.238 0.142,0.476 0.824,0.7 1.513,0.485 C -0.306,1.031 0.142,0.481 0,0"
         id="path4864"
         style="fill:#1b1817;fill-opacity:1;fill-rule:nonzero;stroke:none" />
    </g>
    <g
       transform="matrix(1.25,0,0,-1.25,403.59105,721.96887)"
       id="g4866">
      <path
         d="m 0,0 c 0.017,-0.498 -0.563,-0.911 -1.281,-0.92 -0.722,-0.016 -1.307,0.387 -1.315,0.877 0,0.503 0.568,0.911 1.289,0.924 C -0.589,0.895 0,0.494 0,0"
         id="path4868"
         style="fill:#1b1817;fill-opacity:1;fill-rule:nonzero;stroke:none" />
    </g>
    <g
       transform="matrix(1.25,0,0,-1.25,409.3393,720.99099)"
       id="g4870">
      <path
         d="m 0,0 c 0.086,-0.485 -0.413,-0.984 -1.126,-1.117 -0.701,-0.129 -1.35,0.172 -1.439,0.653 -0.087,0.498 0.42,0.997 1.121,1.126 C -0.73,0.786 -0.091,0.494 0,0"
         id="path4872"
         style="fill:#1b1817;fill-opacity:1;fill-rule:nonzero;stroke:none" />
    </g>
  </g>
</svg>
