<?xml version="1.0" encoding="UTF-8" standalone="no"?>
<svg
   xmlns:ooo="http://xml.openoffice.org/svg/export"
   xmlns:dc="http://purl.org/dc/elements/1.1/"
   xmlns:cc="http://creativecommons.org/ns#"
   xmlns:rdf="http://www.w3.org/1999/02/22-rdf-syntax-ns#"
   xmlns:svg="http://www.w3.org/2000/svg"
   xmlns="http://www.w3.org/2000/svg"
   xmlns:sodipodi="http://sodipodi.sourceforge.net/DTD/sodipodi-0.dtd"
   xmlns:inkscape="http://www.inkscape.org/namespaces/inkscape"
   version="1.2"
   width="518.20868"
   height="242.09811"
   viewBox="0 0 14625.001 6832.5468"
   preserveAspectRatio="xMidYMid"
   clip-path="url(#presentation_clip_path)"
   xml:space="preserve"
   id="svg4345"
   inkscape:version="0.48.2 r9819"
   sodipodi:docname="git-branching-02.svg"
   style="fill-rule:evenodd;stroke-width:28.22200012;stroke-linejoin:round"><metadata
   id="metadata4629"><rdf:RDF><cc:Work
       rdf:about=""><dc:format>image/svg+xml</dc:format><dc:type
         rdf:resource="http://purl.org/dc/dcmitype/StillImage" /></cc:Work></rdf:RDF></metadata><sodipodi:namedview
   pagecolor="#ffffff"
   bordercolor="#666666"
   borderopacity="1"
   objecttolerance="10"
   gridtolerance="10"
   guidetolerance="10"
   inkscape:pageopacity="0"
   inkscape:pageshadow="2"
   inkscape:window-width="640"
   inkscape:window-height="480"
   id="namedview4627"
   showgrid="false"
   fit-margin-top="0"
   fit-margin-left="0"
   fit-margin-right="0"
   fit-margin-bottom="0"
   inkscape:zoom="0.23838384"
   inkscape:cx="330.23622"
   inkscape:cy="-208.00818"
   inkscape:window-x="0"
   inkscape:window-y="0"
   inkscape:window-maximized="0"
   inkscape:current-layer="svg4345" />
 <defs
   class="ClipPathGroup"
   id="defs4347">
  <clipPath
   id="presentation_clip_path"
   clipPathUnits="userSpaceOnUse">
   <rect
   x="0"
   y="0"
   width="21590"
   height="27940"
   id="rect4350" />
  </clipPath>
 </defs>
 <defs
   class="TextShapeIndex"
   id="defs4352">
  <g
   ooo:slide="id1"
   ooo:id-list="id3 id4 id5 id6 id7 id8 id9 id10 id11 id12 id13 id14 id15 id16 id17 id18 id19 id20 id21 id22 id23 id24 id25 id26"
   id="g4354" />
 </defs>
 <defs
   class="EmbeddedBulletChars"
   id="defs4356">
  <g
   id="bullet-char-template(57356)"
   transform="scale(4.8828125e-4,-4.8828125e-4)">
   <path
   d="M 580,1141 1163,571 580,0 -4,571 580,1141 z"
   id="path4359"
   inkscape:connector-curvature="0" />
  </g>
  <g
   id="bullet-char-template(57354)"
   transform="scale(4.8828125e-4,-4.8828125e-4)">
   <path
   d="m 8,1128 1129,0 L 1137,0 8,0 8,1128 z"
   id="path4362"
   inkscape:connector-curvature="0" />
  </g>
  <g
   id="bullet-char-template(10146)"
   transform="scale(4.8828125e-4,-4.8828125e-4)">
   <path
   d="M 174,0 602,739 174,1481 1456,739 174,0 z m 1184,739 -1049,607 350,-607 699,0 z"
   id="path4365"
   inkscape:connector-curvature="0" />
  </g>
  <g
   id="bullet-char-template(10132)"
   transform="scale(4.8828125e-4,-4.8828125e-4)">
   <path
   d="M 2015,739 1276,0 717,0 l 543,543 -1086,0 0,393 1086,0 -543,545 557,0 741,-742 z"
   id="path4368"
   inkscape:connector-curvature="0" />
  </g>
  <g
   id="bullet-char-template(10007)"
   transform="scale(4.8828125e-4,-4.8828125e-4)">
   <path
   d="m 0,-2 c -7,16 -16,29 -25,39 l 381,530 c -94,256 -141,385 -141,387 0,25 13,38 40,38 9,0 21,-2 34,-5 21,4 42,12 65,25 l 27,-13 111,-251 280,301 64,-25 24,25 c 21,-10 41,-24 62,-43 C 886,937 835,863 770,784 769,783 710,716 594,584 L 774,223 c 0,-27 -21,-55 -63,-84 l 16,-20 C 717,90 699,76 672,76 641,76 570,178 457,381 L 164,-76 c -22,-34 -53,-51 -92,-51 -42,0 -63,17 -64,51 -7,9 -10,24 -10,44 0,9 1,19 2,30 z"
   id="path4371"
   inkscape:connector-curvature="0" />
  </g>
  <g
   id="bullet-char-template(10004)"
   transform="scale(4.8828125e-4,-4.8828125e-4)">
   <path
   d="M 285,-33 C 182,-33 111,30 74,156 52,228 41,333 41,471 c 0,78 14,145 41,201 34,71 87,106 158,106 53,0 88,-31 106,-94 l 23,-176 c 8,-64 28,-97 59,-98 l 735,706 c 11,11 33,17 66,17 42,0 63,-15 63,-46 l 0,-122 c 0,-36 -10,-64 -30,-84 L 442,47 C 390,-6 338,-33 285,-33 z"
   id="path4374"
   inkscape:connector-curvature="0" />
  </g>
  <g
   id="bullet-char-template(9679)"
   transform="scale(4.8828125e-4,-4.8828125e-4)">
   <path
   d="M 813,0 C 632,0 489,54 383,161 276,268 223,411 223,592 c 0,181 53,324 160,431 106,107 249,161 430,161 179,0 323,-54 432,-161 108,-107 162,-251 162,-431 0,-180 -54,-324 -162,-431 C 1136,54 992,0 813,0 z"
   id="path4377"
   inkscape:connector-curvature="0" />
  </g>
  <g
   id="bullet-char-template(8226)"
   transform="scale(4.8828125e-4,-4.8828125e-4)">
   <path
   d="m 346,457 c -73,0 -137,26 -191,78 -54,51 -81,114 -81,188 0,73 27,136 81,188 54,52 118,78 191,78 73,0 134,-26 185,-79 51,-51 77,-114 77,-187 0,-75 -25,-137 -76,-188 -50,-52 -112,-78 -186,-78 z"
   id="path4380"
   inkscape:connector-curvature="0" />
  </g>
  <g
   id="bullet-char-template(8211)"
   transform="scale(4.8828125e-4,-4.8828125e-4)">
   <path
   d="m -4,459 1139,0 0,147 -1139,0 0,-147 z"
   id="path4383"
   inkscape:connector-curvature="0" />
  </g>
 </defs>
 <defs
   class="TextEmbeddedBitmaps"
   id="defs4385" />
 <g
   id="g4387"
   transform="translate(-1475,-1267)">
  <g
   id="id2"
   class="Master_Slide">
   <g
   id="bg-id2"
   class="Background" />
   <g
   id="bo-id2"
   class="BackgroundObjects" />
  </g>
 </g>
 <g
   class="SlideGroup"
   id="g4392"
   transform="translate(-1475,-1267)">
  <g
   id="g4394">
   <g
   id="id1"
   class="Slide"
   clip-path="url(#presentation_clip_path)">
    <g
   class="Page"
   id="g4397">
     <g
   class="com.sun.star.drawing.CustomShape"
   id="g4399">
      <g
   id="id3">
       <path
   d="m 1959,5447 1400,0 0,1575 -175,225 -1225,0 0,-1800 z"
   id="path4402"
   inkscape:connector-curvature="0"
   style="fill:none;stroke:#000000;stroke-width:50" />
       <path
   d="m 3184,7247 46,-225 c 44,33 42,14 129,0 l -175,225 z"
   id="path4404"
   inkscape:connector-curvature="0"
   style="fill:none;stroke:#000000;stroke-width:50" />
      </g>
     </g>
     <g
   class="com.sun.star.drawing.TextShape"
   id="g4406">
      <g
   id="id4">
       <text
   class="TextShape"
   id="text4409"><tspan
     class="TextParagraph"
     font-size="388px"
     font-weight="400"
     id="tspan4411"
     style="font-size:388px;font-weight:400;font-family:'Arial, sans-serif'"><tspan
       class="TextPosition"
       x="1968"
       y="8093"
       id="tspan4413"><tspan
         id="tspan4415"
         style="fill:#000000;stroke:none">mars.txt</tspan></tspan></tspan></text>

      </g>
     </g>
     <g
   class="com.sun.star.drawing.LineShape"
   id="g4417">
      <g
   id="id5">
       <path
   d="m 2209,5897 900,0"
   id="path4420"
   inkscape:connector-curvature="0"
   style="fill:none;stroke:#000000;stroke-width:50" />
      </g>
     </g>
     <g
   class="com.sun.star.drawing.CustomShape"
   id="g4422">
      <g
   id="id6">
       <path
   d="m 2125,2100 1250,0 626,700 -626,700 -1250,0 -625,-700 625,-700 z"
   id="path4425"
   inkscape:connector-curvature="0"
   style="fill:none;stroke:#000000;stroke-width:50" />
       <text
   class="TextShape"
   id="text4427"><tspan
     class="TextParagraph"
     font-size="423px"
     font-weight="400"
     id="tspan4429"
     style="font-size:423px;font-weight:400;font-family:'Arial, sans-serif'"><tspan
       class="TextPosition"
       x="2045"
       y="2946"
       id="tspan4431"><tspan
         id="tspan4433"
         style="fill:#000000;stroke:none">005937</tspan></tspan></tspan></text>

      </g>
     </g>
     <g
   class="com.sun.star.drawing.CustomShape"
   id="g4435">
      <g
   id="id7">
       <path
   d="m 6125,2100 1250,0 626,700 -626,700 -1250,0 -625,-700 625,-700 z"
   id="path4438"
   inkscape:connector-curvature="0"
   style="fill:none;stroke:#000000;stroke-width:50" />
       <text
   class="TextShape"
   id="text4440"><tspan
     class="TextParagraph"
     font-size="423px"
     font-weight="400"
     id="tspan4442"
     style="font-size:423px;font-weight:400;font-family:'Arial, sans-serif'"><tspan
       class="TextPosition"
       x="6045"
       y="2946"
       id="tspan4444"><tspan
         id="tspan4446"
         style="fill:#000000;stroke:none">34961b</tspan></tspan></tspan></text>

      </g>
     </g>
     <g
   class="com.sun.star.drawing.CustomShape"
   id="g4448">
      <g
   id="id8">
       <path
   d="m 10125,2100 1250,0 626,700 -626,700 -1250,0 -625,-700 625,-700 z"
   id="path4451"
   inkscape:connector-curvature="0"
   style="fill:none;stroke:#000000;stroke-width:50" />
       <text
   class="TextShape"
   id="text4453"><tspan
     class="TextParagraph"
     font-size="423px"
     font-weight="400"
     id="tspan4455"
     style="font-size:423px;font-weight:400;font-family:'Arial, sans-serif'"><tspan
       class="TextPosition"
       x="10102"
       y="2946"
       id="tspan4457"><tspan
         id="tspan4459"
         style="fill:#000000;stroke:none">f22b25</tspan></tspan></tspan></text>

      </g>
     </g>
     <g
   class="com.sun.star.drawing.CustomShape"
   id="g4461">
      <g
   id="id9">
       <path
   d="m 5959,5448 1400,0 0,1575 -175,225 -1225,0 0,-1800 z"
   id="path4464"
   inkscape:connector-curvature="0"
   style="fill:none;stroke:#000000;stroke-width:50" />
       <path
   d="m 7184,7248 46,-225 c 44,33 42,14 129,0 l -175,225 z"
   id="path4466"
   inkscape:connector-curvature="0"
   style="fill:none;stroke:#000000;stroke-width:50" />
      </g>
     </g>
     <g
   class="com.sun.star.drawing.TextShape"
   id="g4468">
      <g
   id="id10">
       <text
   class="TextShape"
   id="text4471"><tspan
     class="TextParagraph"
     font-size="388px"
     font-weight="400"
     id="tspan4473"
     style="font-size:388px;font-weight:400;font-family:'Arial, sans-serif'"><tspan
       class="TextPosition"
       x="5968"
       y="8094"
       id="tspan4475"><tspan
         id="tspan4477"
         style="fill:#000000;stroke:none">mars.txt</tspan></tspan></tspan></text>

      </g>
     </g>
     <g
   class="com.sun.star.drawing.LineShape"
   id="g4479">
      <g
   id="id11">
       <path
   d="m 6209,5898 900,0"
   id="path4482"
   inkscape:connector-curvature="0"
   style="fill:none;stroke:#000000;stroke-width:50" />
      </g>
     </g>
     <g
   class="com.sun.star.drawing.LineShape"
   id="g4484">
      <g
   id="id12">
       <path
   d="m 6209,6198 900,0"
   id="path4487"
   inkscape:connector-curvature="0"
   style="fill:none;stroke:#000000;stroke-width:50" />
      </g>
     </g>
     <g
   class="com.sun.star.drawing.CustomShape"
   id="g4489">
      <g
   id="id13">
       <path
   d="m 10059,5449 1400,0 0,1575 -175,225 -1225,0 0,-1800 z"
   id="path4492"
   inkscape:connector-curvature="0"
   style="fill:none;stroke:#000000;stroke-width:50" />
       <path
   d="m 11284,7249 46,-225 c 44,33 42,14 129,0 l -175,225 z"
   id="path4494"
   inkscape:connector-curvature="0"
   style="fill:none;stroke:#000000;stroke-width:50" />
      </g>
     </g>
     <g
   class="com.sun.star.drawing.TextShape"
   id="g4496">
      <g
   id="id14">
       <text
   class="TextShape"
   id="text4499"><tspan
     class="TextParagraph"
     font-size="388px"
     font-weight="400"
     id="tspan4501"
     style="font-size:388px;font-weight:400;font-family:'Arial, sans-serif'"><tspan
       class="TextPosition"
       x="10068"
       y="8095"
       id="tspan4503"><tspan
         id="tspan4505"
         style="fill:#000000;stroke:none">mars.txt</tspan></tspan></tspan></text>

      </g>
     </g>
     <g
   class="com.sun.star.drawing.LineShape"
   id="g4507">
      <g
   id="id15">
       <path
   d="m 10309,5899 900,0"
   id="path4510"
   inkscape:connector-curvature="0"
   style="fill:none;stroke:#000000;stroke-width:50" />
      </g>
     </g>
     <g
   class="com.sun.star.drawing.LineShape"
   id="g4512">
      <g
   id="id16">
       <path
   d="m 10309,6199 900,0"
   id="path4515"
   inkscape:connector-curvature="0"
   style="fill:none;stroke:#000000;stroke-width:50" />
      </g>
     </g>
     <g
   class="com.sun.star.drawing.LineShape"
   id="g4517">
      <g
   id="id17">
       <path
   d="m 10309,6499 900,0"
   id="path4520"
   inkscape:connector-curvature="0"
   style="fill:none;stroke:#000000;stroke-width:50" />
      </g>
     </g>
     <g
   class="com.sun.star.drawing.LineShape"
   id="g4522">
      <g
   id="id18">
       <path
   d="m 5200,2800 -51,0"
   id="path4525"
   inkscape:connector-curvature="0"
   style="fill:none;stroke:#000000;stroke-width:50" />
       <path
   d="m 5098,2800 -51,0"
   id="path4527"
   inkscape:connector-curvature="0"
   style="fill:none;stroke:#000000;stroke-width:50" />
       <path
   d="m 4996,2800 -51,0"
   id="path4529"
   inkscape:connector-curvature="0"
   style="fill:none;stroke:#000000;stroke-width:50" />
       <path
   d="m 4894,2800 -51,0"
   id="path4531"
   inkscape:connector-curvature="0"
   style="fill:none;stroke:#000000;stroke-width:50" />
       <path
   d="m 4792,2800 -51,0"
   id="path4533"
   inkscape:connector-curvature="0"
   style="fill:none;stroke:#000000;stroke-width:50" />
       <path
   d="m 4690,2800 -51,0"
   id="path4535"
   inkscape:connector-curvature="0"
   style="fill:none;stroke:#000000;stroke-width:50" />
       <path
   d="m 4588,2800 -38,0"
   id="path4537"
   inkscape:connector-curvature="0"
   style="fill:none;stroke:#000000;stroke-width:50" />
       <path
   d="m 4200,2800 375,-187 0,375 -375,-188 z m 56,0 294,147 0,-294 -294,147 z"
   id="path4539"
   inkscape:connector-curvature="0"
   style="fill:#000000;stroke:none" />
      </g>
     </g>
     <g
   class="com.sun.star.drawing.LineShape"
   id="g4541">
      <g
   id="id19">
       <path
   d="m 9200,2800 -51,0"
   id="path4544"
   inkscape:connector-curvature="0"
   style="fill:none;stroke:#000000;stroke-width:50" />
       <path
   d="m 9098,2800 -51,0"
   id="path4546"
   inkscape:connector-curvature="0"
   style="fill:none;stroke:#000000;stroke-width:50" />
       <path
   d="m 8996,2800 -51,0"
   id="path4548"
   inkscape:connector-curvature="0"
   style="fill:none;stroke:#000000;stroke-width:50" />
       <path
   d="m 8894,2800 -51,0"
   id="path4550"
   inkscape:connector-curvature="0"
   style="fill:none;stroke:#000000;stroke-width:50" />
       <path
   d="m 8792,2800 -51,0"
   id="path4552"
   inkscape:connector-curvature="0"
   style="fill:none;stroke:#000000;stroke-width:50" />
       <path
   d="m 8690,2800 -51,0"
   id="path4554"
   inkscape:connector-curvature="0"
   style="fill:none;stroke:#000000;stroke-width:50" />
       <path
   d="m 8588,2800 -38,0"
   id="path4556"
   inkscape:connector-curvature="0"
   style="fill:none;stroke:#000000;stroke-width:50" />
       <path
   d="m 8200,2800 375,-187 0,375 -375,-188 z m 56,0 294,147 0,-294 -294,147 z"
   id="path4558"
   inkscape:connector-curvature="0"
   style="fill:#000000;stroke:none" />
      </g>
     </g>
     <g
   class="com.sun.star.drawing.LineShape"
   id="g4560">
      <g
   id="id20">
       <path
   d="m 2700,3800 0,763"
   id="path4563"
   inkscape:connector-curvature="0"
   style="fill:none;stroke:#000000;stroke-width:50" />
       <path
   d="m 2700,5100 188,-562 -375,0 187,562 z"
   id="path4565"
   inkscape:connector-curvature="0"
   style="fill:#000000;stroke:none" />
      </g>
     </g>
     <g
   class="com.sun.star.drawing.LineShape"
   id="g4567">
      <g
   id="id21">
       <path
   d="m 6700,3800 0,763"
   id="path4570"
   inkscape:connector-curvature="0"
   style="fill:none;stroke:#000000;stroke-width:50" />
       <path
   d="m 6700,5100 188,-562 -375,0 187,562 z"
   id="path4572"
   inkscape:connector-curvature="0"
   style="fill:#000000;stroke:none" />
      </g>
     </g>
     <g
   class="com.sun.star.drawing.LineShape"
   id="g4574">
      <g
   id="id22">
       <path
   d="m 10800,3800 0,763"
   id="path4577"
   inkscape:connector-curvature="0"
   style="fill:none;stroke:#000000;stroke-width:50" />
       <path
   d="m 10800,5100 188,-562 -375,0 187,562 z"
   id="path4579"
   inkscape:connector-curvature="0"
   style="fill:#000000;stroke:none" />
      </g>
     </g>
     <g
   class="com.sun.star.drawing.TextShape"
   id="g4581">
      <g
   id="id23">
       <path
   d="m 15284,2000 -816,0 0,-733 1632,0 0,733 -816,0 z"
   id="path4584"
   inkscape:connector-curvature="0"
   style="fill:#c0c0c0;stroke:none" />
       <text
   class="TextShape"
   id="text4586"><tspan
     class="TextParagraph"
     font-size="388px"
     font-weight="400"
     id="tspan4588"
     style="font-size:388px;font-weight:400;font-family:'Arial, sans-serif'"><tspan
       class="TextPosition"
       x="14743"
       y="1768"
       id="tspan4590"><tspan
         id="tspan4592"
         style="fill:#000000;stroke:none">HEAD</tspan></tspan></tspan></text>

      </g>
     </g>
     <g
   class="com.sun.star.drawing.TextShape"
   id="g4594">
      <g
   id="id24">
       <path
   d="m 12137,2000 -869,0 0,-733 1737,0 0,733 -868,0 z"
   id="path4597"
   inkscape:connector-curvature="0"
   style="fill:#c0c0c0;stroke:none" />
       <text
   class="TextShape"
   id="text4599"><tspan
     class="TextParagraph"
     font-size="388px"
     font-weight="400"
     id="tspan4601"
     style="font-size:388px;font-weight:400;font-family:'Arial, sans-serif'"><tspan
       class="TextPosition"
       x="11543"
       y="1768"
       id="tspan4603"><tspan
         id="tspan4605"
         style="fill:#000000;stroke:none">master</tspan></tspan></tspan></text>

      </g>
     </g>
     <g
   class="com.sun.star.drawing.LineShape"
   id="g4607">
      <g
   id="id25">
       <path
   d="m 14200,1700 -462,0"
   id="path4610"
   inkscape:connector-curvature="0"
   style="fill:none;stroke:#000000;stroke-width:50" />
       <path
   d="m 13200,1700 563,188 0,-375 -563,187 z"
   id="path4612"
   inkscape:connector-curvature="0"
   style="fill:#000000;stroke:none" />
      </g>
     </g>
     <g
   class="com.sun.star.drawing.TextShape"
   id="g4614">
      <g
   id="id26">
       <path
   d="m 13021,3033 -858,0 0,-733 1716,0 0,733 -858,0 z"
   id="path4617"
   inkscape:connector-curvature="0"
   style="fill:#c0c0c0;stroke:none" />
       <text
   class="TextShape"
   id="text4619"><tspan
     class="TextParagraph"
     font-size="388px"
     font-weight="400"
     id="tspan4621"
     style="font-size:388px;font-weight:400;font-family:'Arial, sans-serif'"><tspan
       class="TextPosition"
       x="12438"
       y="2801"
       id="tspan4623"><tspan
         id="tspan4625"
         style="fill:#000000;stroke:none">moons</tspan></tspan></tspan></text>

      </g>
     </g>
    </g>
   </g>
  </g>
 </g>
</svg>