<?xml version="1.0" encoding="UTF-8" standalone="no"?>
<svg
   xmlns:ooo="http://xml.openoffice.org/svg/export"
   xmlns:dc="http://purl.org/dc/elements/1.1/"
   xmlns:cc="http://creativecommons.org/ns#"
   xmlns:rdf="http://www.w3.org/1999/02/22-rdf-syntax-ns#"
   xmlns:svg="http://www.w3.org/2000/svg"
   xmlns="http://www.w3.org/2000/svg"
   xmlns:sodipodi="http://sodipodi.sourceforge.net/DTD/sodipodi-0.dtd"
   xmlns:inkscape="http://www.inkscape.org/namespaces/inkscape"
   version="1.2"
   width="492.51968"
   height="540.83435"
   viewBox="0 0 13900 15263.547"
   preserveAspectRatio="xMidYMid"
   clip-path="url(#presentation_clip_path)"
   xml:space="preserve"
   id="svg7887"
   inkscape:version="0.48.2 r9819"
   sodipodi:docname="git-branching-05.svg"
   style="fill-rule:evenodd;stroke-width:28.22200012;stroke-linejoin:round"><metadata
   id="metadata8445"><rdf:RDF><cc:Work
       rdf:about=""><dc:format>image/svg+xml</dc:format><dc:type
         rdf:resource="http://purl.org/dc/dcmitype/StillImage" /></cc:Work></rdf:RDF></metadata><sodipodi:namedview
   pagecolor="#ffffff"
   bordercolor="#666666"
   borderopacity="1"
   objecttolerance="10"
   gridtolerance="10"
   guidetolerance="10"
   inkscape:pageopacity="0"
   inkscape:pageshadow="2"
   inkscape:window-width="640"
   inkscape:window-height="480"
   id="namedview8443"
   showgrid="false"
   fit-margin-top="0"
   fit-margin-left="0"
   fit-margin-right="0"
   fit-margin-bottom="0"
   inkscape:zoom="0.23838384"
   inkscape:cx="339.98031"
   inkscape:cy="103.73198"
   inkscape:window-x="0"
   inkscape:window-y="0"
   inkscape:window-maximized="0"
   inkscape:current-layer="svg7887" />
 <defs
   class="ClipPathGroup"
   id="defs7889">
  <clipPath
   id="presentation_clip_path"
   clipPathUnits="userSpaceOnUse">
   <rect
   x="0"
   y="0"
   width="21590"
   height="27940"
   id="rect7892" />
  </clipPath>
 </defs>
 <defs
   class="TextShapeIndex"
   id="defs7894">
  <g
   ooo:slide="id1"
   ooo:id-list="id3 id4 id5 id6 id7 id8 id9 id10 id11 id12 id13 id14 id15 id16 id17 id18 id19 id20 id21 id22 id23 id24 id25 id26 id27 id28 id29 id30 id31 id32 id33 id34 id35 id36 id37 id38 id39 id40 id41 id42 id43 id44 id45 id46"
   id="g7896" />
 </defs>
 <defs
   class="EmbeddedBulletChars"
   id="defs7898">
  <g
   id="bullet-char-template(57356)"
   transform="scale(4.8828125e-4,-4.8828125e-4)">
   <path
   d="M 580,1141 1163,571 580,0 -4,571 580,1141 z"
   id="path7901"
   inkscape:connector-curvature="0" />
  </g>
  <g
   id="bullet-char-template(57354)"
   transform="scale(4.8828125e-4,-4.8828125e-4)">
   <path
   d="m 8,1128 1129,0 L 1137,0 8,0 8,1128 z"
   id="path7904"
   inkscape:connector-curvature="0" />
  </g>
  <g
   id="bullet-char-template(10146)"
   transform="scale(4.8828125e-4,-4.8828125e-4)">
   <path
   d="M 174,0 602,739 174,1481 1456,739 174,0 z m 1184,739 -1049,607 350,-607 699,0 z"
   id="path7907"
   inkscape:connector-curvature="0" />
  </g>
  <g
   id="bullet-char-template(10132)"
   transform="scale(4.8828125e-4,-4.8828125e-4)">
   <path
   d="M 2015,739 1276,0 717,0 l 543,543 -1086,0 0,393 1086,0 -543,545 557,0 741,-742 z"
   id="path7910"
   inkscape:connector-curvature="0" />
  </g>
  <g
   id="bullet-char-template(10007)"
   transform="scale(4.8828125e-4,-4.8828125e-4)">
   <path
   d="m 0,-2 c -7,16 -16,29 -25,39 l 381,530 c -94,256 -141,385 -141,387 0,25 13,38 40,38 9,0 21,-2 34,-5 21,4 42,12 65,25 l 27,-13 111,-251 280,301 64,-25 24,25 c 21,-10 41,-24 62,-43 C 886,937 835,863 770,784 769,783 710,716 594,584 L 774,223 c 0,-27 -21,-55 -63,-84 l 16,-20 C 717,90 699,76 672,76 641,76 570,178 457,381 L 164,-76 c -22,-34 -53,-51 -92,-51 -42,0 -63,17 -64,51 -7,9 -10,24 -10,44 0,9 1,19 2,30 z"
   id="path7913"
   inkscape:connector-curvature="0" />
  </g>
  <g
   id="bullet-char-template(10004)"
   transform="scale(4.8828125e-4,-4.8828125e-4)">
   <path
   d="M 285,-33 C 182,-33 111,30 74,156 52,228 41,333 41,471 c 0,78 14,145 41,201 34,71 87,106 158,106 53,0 88,-31 106,-94 l 23,-176 c 8,-64 28,-97 59,-98 l 735,706 c 11,11 33,17 66,17 42,0 63,-15 63,-46 l 0,-122 c 0,-36 -10,-64 -30,-84 L 442,47 C 390,-6 338,-33 285,-33 z"
   id="path7916"
   inkscape:connector-curvature="0" />
  </g>
  <g
   id="bullet-char-template(9679)"
   transform="scale(4.8828125e-4,-4.8828125e-4)">
   <path
   d="M 813,0 C 632,0 489,54 383,161 276,268 223,411 223,592 c 0,181 53,324 160,431 106,107 249,161 430,161 179,0 323,-54 432,-161 108,-107 162,-251 162,-431 0,-180 -54,-324 -162,-431 C 1136,54 992,0 813,0 z"
   id="path7919"
   inkscape:connector-curvature="0" />
  </g>
  <g
   id="bullet-char-template(8226)"
   transform="scale(4.8828125e-4,-4.8828125e-4)">
   <path
   d="m 346,457 c -73,0 -137,26 -191,78 -54,51 -81,114 -81,188 0,73 27,136 81,188 54,52 118,78 191,78 73,0 134,-26 185,-79 51,-51 77,-114 77,-187 0,-75 -25,-137 -76,-188 -50,-52 -112,-78 -186,-78 z"
   id="path7922"
   inkscape:connector-curvature="0" />
  </g>
  <g
   id="bullet-char-template(8211)"
   transform="scale(4.8828125e-4,-4.8828125e-4)">
   <path
   d="m -4,459 1139,0 0,147 -1139,0 0,-147 z"
   id="path7925"
   inkscape:connector-curvature="0" />
  </g>
 </defs>
 <defs
   class="TextEmbeddedBitmaps"
   id="defs7927" />
 <g
   id="g7929"
   transform="translate(-1200,-1634)">
  <g
   id="id2"
   class="Master_Slide">
   <g
   id="bg-id2"
   class="Background" />
   <g
   id="bo-id2"
   class="BackgroundObjects" />
  </g>
 </g>
 <g
   class="SlideGroup"
   id="g7934"
   transform="translate(-1200,-1634)">
  <g
   id="g7936">
   <g
   id="id1"
   class="Slide"
   clip-path="url(#presentation_clip_path)">
    <g
   class="Page"
   id="g7939">
     <g
   class="com.sun.star.drawing.CustomShape"
   id="g7941">
      <g
   id="id3">
       <path
   d="m 3125,6797 1250,0 626,700 -626,700 -1250,0 -625,-700 625,-700 z"
   id="path7944"
   inkscape:connector-curvature="0"
   style="fill:none;stroke:#000000;stroke-width:50" />
       <text
   class="TextShape"
   id="text7946"><tspan
     class="TextParagraph"
     font-size="423px"
     font-weight="400"
     id="tspan7948"
     style="font-size:423px;font-weight:400;font-family:'Arial, sans-serif'"><tspan
       class="TextPosition"
       x="3102"
       y="7643"
       id="tspan7950"><tspan
         id="tspan7952"
         style="fill:#000000;stroke:none">f22b25</tspan></tspan></tspan></text>

      </g>
     </g>
     <g
   class="com.sun.star.drawing.CustomShape"
   id="g7954">
      <g
   id="id4">
       <path
   d="m 3059,10146 1400,0 0,1575 -175,225 -1225,0 0,-1800 z"
   id="path7957"
   inkscape:connector-curvature="0"
   style="fill:none;stroke:#000000;stroke-width:50" />
       <path
   d="m 4284,11946 46,-225 c 44,33 42,14 129,0 l -175,225 z"
   id="path7959"
   inkscape:connector-curvature="0"
   style="fill:none;stroke:#000000;stroke-width:50" />
      </g>
     </g>
     <g
   class="com.sun.star.drawing.TextShape"
   id="g7961">
      <g
   id="id5">
       <text
   class="TextShape"
   id="text7964"><tspan
     class="TextParagraph"
     font-size="388px"
     font-weight="400"
     id="tspan7966"
     style="font-size:388px;font-weight:400;font-family:'Arial, sans-serif'"><tspan
       class="TextPosition"
       x="3068"
       y="12792"
       id="tspan7968"><tspan
         id="tspan7970"
         style="fill:#000000;stroke:none">mars.txt</tspan></tspan></tspan></text>

      </g>
     </g>
     <g
   class="com.sun.star.drawing.LineShape"
   id="g7972">
      <g
   id="id6">
       <path
   d="m 3309,10596 900,0"
   id="path7975"
   inkscape:connector-curvature="0"
   style="fill:none;stroke:#000000;stroke-width:50" />
      </g>
     </g>
     <g
   class="com.sun.star.drawing.LineShape"
   id="g7977">
      <g
   id="id7">
       <path
   d="m 3309,10896 900,0"
   id="path7980"
   inkscape:connector-curvature="0"
   style="fill:none;stroke:#000000;stroke-width:50" />
      </g>
     </g>
     <g
   class="com.sun.star.drawing.LineShape"
   id="g7982">
      <g
   id="id8">
       <path
   d="m 3309,11196 900,0"
   id="path7985"
   inkscape:connector-curvature="0"
   style="fill:none;stroke:#000000;stroke-width:50" />
      </g>
     </g>
     <g
   class="com.sun.star.drawing.LineShape"
   id="g7987">
      <g
   id="id9">
       <path
   d="m 2200,7497 -51,0"
   id="path7990"
   inkscape:connector-curvature="0"
   style="fill:none;stroke:#000000;stroke-width:50" />
       <path
   d="m 2098,7497 -51,0"
   id="path7992"
   inkscape:connector-curvature="0"
   style="fill:none;stroke:#000000;stroke-width:50" />
       <path
   d="m 1996,7497 -51,0"
   id="path7994"
   inkscape:connector-curvature="0"
   style="fill:none;stroke:#000000;stroke-width:50" />
       <path
   d="m 1894,7497 -51,0"
   id="path7996"
   inkscape:connector-curvature="0"
   style="fill:none;stroke:#000000;stroke-width:50" />
       <path
   d="m 1792,7497 -51,0"
   id="path7998"
   inkscape:connector-curvature="0"
   style="fill:none;stroke:#000000;stroke-width:50" />
       <path
   d="m 1690,7497 -51,0"
   id="path8000"
   inkscape:connector-curvature="0"
   style="fill:none;stroke:#000000;stroke-width:50" />
       <path
   d="m 1588,7497 -38,0"
   id="path8002"
   inkscape:connector-curvature="0"
   style="fill:none;stroke:#000000;stroke-width:50" />
       <path
   d="m 1200,7497 375,-187 0,375 -375,-188 z m 56,0 294,147 0,-294 -294,147 z"
   id="path8004"
   inkscape:connector-curvature="0"
   style="fill:#000000;stroke:none" />
      </g>
     </g>
     <g
   class="com.sun.star.drawing.LineShape"
   id="g8006">
      <g
   id="id10">
       <path
   d="m 3800,8497 0,763"
   id="path8009"
   inkscape:connector-curvature="0"
   style="fill:none;stroke:#000000;stroke-width:50" />
       <path
   d="m 3800,9797 188,-562 -375,0 187,562 z"
   id="path8011"
   inkscape:connector-curvature="0"
   style="fill:#000000;stroke:none" />
      </g>
     </g>
     <g
   class="com.sun.star.drawing.TextShape"
   id="g8013">
      <g
   id="id11">
       <path
   d="m 11142,11200 -858,0 0,-733 1716,0 0,733 -858,0 z"
   id="path8016"
   inkscape:connector-curvature="0"
   style="fill:#c0c0c0;stroke:none" />
       <text
   class="TextShape"
   id="text8018"><tspan
     class="TextParagraph"
     font-size="388px"
     font-weight="400"
     id="tspan8020"
     style="font-size:388px;font-weight:400;font-family:'Arial, sans-serif'"><tspan
       class="TextPosition"
       x="10559"
       y="10968"
       id="tspan8022"><tspan
         id="tspan8024"
         style="fill:#000000;stroke:none">moons</tspan></tspan></tspan></text>

      </g>
     </g>
     <g
   class="com.sun.star.drawing.CustomShape"
   id="g8026">
      <g
   id="id12">
       <path
   d="m 8425,10897 1250,0 626,700 -626,700 -1250,0 -625,-700 625,-700 z"
   id="path8029"
   inkscape:connector-curvature="0"
   style="fill:none;stroke:#000000;stroke-width:50" />
       <text
   class="TextShape"
   id="text8031"><tspan
     class="TextParagraph"
     font-size="423px"
     font-weight="400"
     id="tspan8033"
     style="font-size:423px;font-weight:400;font-family:'Arial, sans-serif'"><tspan
       class="TextPosition"
       x="8345"
       y="11743"
       id="tspan8035"><tspan
         id="tspan8037"
         style="fill:#000000;stroke:none">62e779</tspan></tspan></tspan></text>

      </g>
     </g>
     <g
   class="com.sun.star.drawing.CustomShape"
   id="g8039">
      <g
   id="id13">
       <path
   d="m 7359,14246 1400,0 0,1575 -175,225 -1225,0 0,-1800 z"
   id="path8042"
   inkscape:connector-curvature="0"
   style="fill:none;stroke:#000000;stroke-width:50" />
       <path
   d="m 8584,16046 46,-225 c 44,33 42,14 129,0 l -175,225 z"
   id="path8044"
   inkscape:connector-curvature="0"
   style="fill:none;stroke:#000000;stroke-width:50" />
      </g>
     </g>
     <g
   class="com.sun.star.drawing.TextShape"
   id="g8046">
      <g
   id="id14">
       <text
   class="TextShape"
   id="text8049"><tspan
     class="TextParagraph"
     font-size="388px"
     font-weight="400"
     id="tspan8051"
     style="font-size:388px;font-weight:400;font-family:'Arial, sans-serif'"><tspan
       class="TextPosition"
       x="7368"
       y="16892"
       id="tspan8053"><tspan
         id="tspan8055"
         style="fill:#000000;stroke:none">mars.txt</tspan></tspan></tspan></text>

      </g>
     </g>
     <g
   class="com.sun.star.drawing.LineShape"
   id="g8057">
      <g
   id="id15">
       <path
   d="m 7609,14696 900,0"
   id="path8060"
   inkscape:connector-curvature="0"
   style="fill:none;stroke:#000000;stroke-width:50" />
      </g>
     </g>
     <g
   class="com.sun.star.drawing.LineShape"
   id="g8062">
      <g
   id="id16">
       <path
   d="m 7609,14996 900,0"
   id="path8065"
   inkscape:connector-curvature="0"
   style="fill:none;stroke:#000000;stroke-width:50" />
      </g>
     </g>
     <g
   class="com.sun.star.drawing.LineShape"
   id="g8067">
      <g
   id="id17">
       <path
   d="m 7609,15296 900,0"
   id="path8070"
   inkscape:connector-curvature="0"
   style="fill:none;stroke:#000000;stroke-width:50" />
      </g>
     </g>
     <g
   class="com.sun.star.drawing.LineShape"
   id="g8072">
      <g
   id="id18">
       <path
   d="m 7900,11100 -35,-37"
   id="path8075"
   inkscape:connector-curvature="0"
   style="fill:none;stroke:#000000;stroke-width:50" />
       <path
   d="m 7830,11026 -35,-38"
   id="path8077"
   inkscape:connector-curvature="0"
   style="fill:none;stroke:#000000;stroke-width:50" />
       <path
   d="m 7760,10951 -34,-37"
   id="path8079"
   inkscape:connector-curvature="0"
   style="fill:none;stroke:#000000;stroke-width:50" />
       <path
   d="m 7691,10877 -35,-37"
   id="path8081"
   inkscape:connector-curvature="0"
   style="fill:none;stroke:#000000;stroke-width:50" />
       <path
   d="m 7621,10802 -35,-37"
   id="path8083"
   inkscape:connector-curvature="0"
   style="fill:none;stroke:#000000;stroke-width:50" />
       <path
   d="m 7551,10728 -35,-37"
   id="path8085"
   inkscape:connector-curvature="0"
   style="fill:none;stroke:#000000;stroke-width:50" />
       <path
   d="m 7481,10654 -34,-38"
   id="path8087"
   inkscape:connector-curvature="0"
   style="fill:none;stroke:#000000;stroke-width:50" />
       <path
   d="m 7412,10579 -35,-37"
   id="path8089"
   inkscape:connector-curvature="0"
   style="fill:none;stroke:#000000;stroke-width:50" />
       <path
   d="m 7342,10505 -35,-38"
   id="path8091"
   inkscape:connector-curvature="0"
   style="fill:none;stroke:#000000;stroke-width:50" />
       <path
   d="m 7272,10430 -35,-37"
   id="path8093"
   inkscape:connector-curvature="0"
   style="fill:none;stroke:#000000;stroke-width:50" />
       <path
   d="m 7202,10356 -35,-37"
   id="path8095"
   inkscape:connector-curvature="0"
   style="fill:none;stroke:#000000;stroke-width:50" />
       <path
   d="m 7133,10281 -35,-37"
   id="path8097"
   inkscape:connector-curvature="0"
   style="fill:none;stroke:#000000;stroke-width:50" />
       <path
   d="m 7063,10207 -35,-37"
   id="path8099"
   inkscape:connector-curvature="0"
   style="fill:none;stroke:#000000;stroke-width:50" />
       <path
   d="m 6993,10133 -35,-38"
   id="path8101"
   inkscape:connector-curvature="0"
   style="fill:none;stroke:#000000;stroke-width:50" />
       <path
   d="m 6923,10058 -35,-37"
   id="path8103"
   inkscape:connector-curvature="0"
   style="fill:none;stroke:#000000;stroke-width:50" />
       <path
   d="m 6854,9984 -35,-37"
   id="path8105"
   inkscape:connector-curvature="0"
   style="fill:none;stroke:#000000;stroke-width:50" />
       <path
   d="m 6784,9909 -35,-37"
   id="path8107"
   inkscape:connector-curvature="0"
   style="fill:none;stroke:#000000;stroke-width:50" />
       <path
   d="m 6714,9835 -35,-37"
   id="path8109"
   inkscape:connector-curvature="0"
   style="fill:none;stroke:#000000;stroke-width:50" />
       <path
   d="m 6644,9761 -35,-38"
   id="path8111"
   inkscape:connector-curvature="0"
   style="fill:none;stroke:#000000;stroke-width:50" />
       <path
   d="m 6575,9686 -35,-37"
   id="path8113"
   inkscape:connector-curvature="0"
   style="fill:none;stroke:#000000;stroke-width:50" />
       <path
   d="m 6505,9612 -35,-37"
   id="path8115"
   inkscape:connector-curvature="0"
   style="fill:none;stroke:#000000;stroke-width:50" />
       <path
   d="m 6435,9537 -35,-37"
   id="path8117"
   inkscape:connector-curvature="0"
   style="fill:none;stroke:#000000;stroke-width:50" />
       <path
   d="m 6365,9463 -35,-37"
   id="path8119"
   inkscape:connector-curvature="0"
   style="fill:none;stroke:#000000;stroke-width:50" />
       <path
   d="m 6295,9389 -34,-38"
   id="path8121"
   inkscape:connector-curvature="0"
   style="fill:none;stroke:#000000;stroke-width:50" />
       <path
   d="m 6226,9314 -35,-37"
   id="path8123"
   inkscape:connector-curvature="0"
   style="fill:none;stroke:#000000;stroke-width:50" />
       <path
   d="m 6156,9240 -35,-38"
   id="path8125"
   inkscape:connector-curvature="0"
   style="fill:none;stroke:#000000;stroke-width:50" />
       <path
   d="m 6086,9165 -35,-37"
   id="path8127"
   inkscape:connector-curvature="0"
   style="fill:none;stroke:#000000;stroke-width:50" />
       <path
   d="m 6016,9091 -34,-37"
   id="path8129"
   inkscape:connector-curvature="0"
   style="fill:none;stroke:#000000;stroke-width:50" />
       <path
   d="m 5947,9016 -35,-37"
   id="path8131"
   inkscape:connector-curvature="0"
   style="fill:none;stroke:#000000;stroke-width:50" />
       <path
   d="m 5877,8942 -35,-37"
   id="path8133"
   inkscape:connector-curvature="0"
   style="fill:none;stroke:#000000;stroke-width:50" />
       <path
   d="m 5807,8868 -35,-38"
   id="path8135"
   inkscape:connector-curvature="0"
   style="fill:none;stroke:#000000;stroke-width:50" />
       <path
   d="m 5737,8793 -35,-37"
   id="path8137"
   inkscape:connector-curvature="0"
   style="fill:none;stroke:#000000;stroke-width:50" />
       <path
   d="m 5668,8719 -35,-37"
   id="path8139"
   inkscape:connector-curvature="0"
   style="fill:none;stroke:#000000;stroke-width:50" />
       <path
   d="m 5598,8644 -35,-37"
   id="path8141"
   inkscape:connector-curvature="0"
   style="fill:none;stroke:#000000;stroke-width:50" />
       <path
   d="m 5528,8570 -35,-37"
   id="path8143"
   inkscape:connector-curvature="0"
   style="fill:none;stroke:#000000;stroke-width:50" />
       <path
   d="m 5458,8496 -35,-38"
   id="path8145"
   inkscape:connector-curvature="0"
   style="fill:none;stroke:#000000;stroke-width:50" />
       <path
   d="m 5389,8421 -35,-37"
   id="path8147"
   inkscape:connector-curvature="0"
   style="fill:none;stroke:#000000;stroke-width:50" />
       <path
   d="m 5319,8347 -35,-37"
   id="path8149"
   inkscape:connector-curvature="0"
   style="fill:none;stroke:#000000;stroke-width:50" />
       <path
   d="m 5249,8272 -35,-37"
   id="path8151"
   inkscape:connector-curvature="0"
   style="fill:none;stroke:#000000;stroke-width:50" />
       <path
   d="m 5179,8198 -35,-37"
   id="path8153"
   inkscape:connector-curvature="0"
   style="fill:none;stroke:#000000;stroke-width:50" />
       <path
   d="m 4900,7900 393,145 -273,257 -120,-402 z m 38,41 94,315 215,-201 -309,-114 z"
   id="path8155"
   inkscape:connector-curvature="0"
   style="fill:#000000;stroke:none" />
      </g>
     </g>
     <g
   class="com.sun.star.drawing.LineShape"
   id="g8157">
      <g
   id="id19">
       <path
   d="m 9100,12597 -577,770"
   id="path8160"
   inkscape:connector-curvature="0"
   style="fill:none;stroke:#000000;stroke-width:50" />
       <path
   d="m 8200,13797 488,-337 -300,-225 -188,562 z"
   id="path8162"
   inkscape:connector-curvature="0"
   style="fill:#000000;stroke:none" />
      </g>
     </g>
     <g
   class="com.sun.star.drawing.LineShape"
   id="g8164">
      <g
   id="id20">
       <path
   d="m 7609,15596 900,0"
   id="path8167"
   inkscape:connector-curvature="0"
   style="fill:none;stroke:#000000;stroke-width:50" />
      </g>
     </g>
     <g
   class="com.sun.star.drawing.CustomShape"
   id="g8169">
      <g
   id="id21">
       <path
   d="m 9459,14247 1400,0 0,1575 -175,225 -1225,0 0,-1800 z"
   id="path8172"
   inkscape:connector-curvature="0"
   style="fill:none;stroke:#000000;stroke-width:50" />
       <path
   d="m 10684,16047 46,-225 c 44,33 42,14 129,0 l -175,225 z"
   id="path8174"
   inkscape:connector-curvature="0"
   style="fill:none;stroke:#000000;stroke-width:50" />
      </g>
     </g>
     <g
   class="com.sun.star.drawing.TextShape"
   id="g8176">
      <g
   id="id22">
       <text
   class="TextShape"
   id="text8179"><tspan
     class="TextParagraph"
     font-size="388px"
     font-weight="400"
     id="tspan8181"
     style="font-size:388px;font-weight:400;font-family:'Arial, sans-serif'"><tspan
       class="TextPosition"
       x="9468"
       y="16893"
       id="tspan8183"><tspan
         id="tspan8185"
         style="fill:#000000;stroke:none">moons.txt</tspan></tspan></tspan></text>

      </g>
     </g>
     <g
   class="com.sun.star.drawing.LineShape"
   id="g8187">
      <g
   id="id23">
       <path
   d="m 9709,14697 900,0"
   id="path8190"
   inkscape:connector-curvature="0"
   style="fill:none;stroke:#000000;stroke-width:50" />
      </g>
     </g>
     <g
   class="com.sun.star.drawing.LineShape"
   id="g8192">
      <g
   id="id24">
       <path
   d="m 9709,14997 900,0"
   id="path8195"
   inkscape:connector-curvature="0"
   style="fill:none;stroke:#000000;stroke-width:50" />
      </g>
     </g>
     <g
   class="com.sun.star.drawing.LineShape"
   id="g8197">
      <g
   id="id25">
       <path
   d="m 9709,15297 900,0"
   id="path8200"
   inkscape:connector-curvature="0"
   style="fill:none;stroke:#000000;stroke-width:50" />
      </g>
     </g>
     <g
   class="com.sun.star.drawing.LineShape"
   id="g8202">
      <g
   id="id26">
       <path
   d="m 9709,15597 900,0"
   id="path8205"
   inkscape:connector-curvature="0"
   style="fill:none;stroke:#000000;stroke-width:50" />
      </g>
     </g>
     <g
   class="com.sun.star.drawing.LineShape"
   id="g8207">
      <g
   id="id27">
       <path
   d="m 9100,12597 578,770"
   id="path8210"
   inkscape:connector-curvature="0"
   style="fill:none;stroke:#000000;stroke-width:50" />
       <path
   d="m 10000,13797 -187,-562 -300,225 487,337 z"
   id="path8212"
   inkscape:connector-curvature="0"
   style="fill:#000000;stroke:none" />
      </g>
     </g>
     <g
   class="com.sun.star.drawing.TextShape"
   id="g8214">
      <g
   id="id28">
       <path
   d="m 14284,2367 -816,0 0,-733 1632,0 0,733 -816,0 z"
   id="path8217"
   inkscape:connector-curvature="0"
   style="fill:#c0c0c0;stroke:none" />
       <text
   class="TextShape"
   id="text8219"><tspan
     class="TextParagraph"
     font-size="388px"
     font-weight="400"
     id="tspan8221"
     style="font-size:388px;font-weight:400;font-family:'Arial, sans-serif'"><tspan
       class="TextPosition"
       x="13743"
       y="2135"
       id="tspan8223"><tspan
         id="tspan8225"
         style="fill:#000000;stroke:none">HEAD</tspan></tspan></tspan></text>

      </g>
     </g>
     <g
   class="com.sun.star.drawing.LineShape"
   id="g8227">
      <g
   id="id29">
       <path
   d="m 13200,2067 -462,0"
   id="path8230"
   inkscape:connector-curvature="0"
   style="fill:none;stroke:#000000;stroke-width:50" />
       <path
   d="m 12200,2067 563,188 0,-375 -563,187 z"
   id="path8232"
   inkscape:connector-curvature="0"
   style="fill:#000000;stroke:none" />
      </g>
     </g>
     <g
   class="com.sun.star.drawing.TextShape"
   id="g8234">
      <g
   id="id30">
       <path
   d="m 11232,2400 -869,0 0,-733 1737,0 0,733 -868,0 z"
   id="path8237"
   inkscape:connector-curvature="0"
   style="fill:#c0c0c0;stroke:none" />
       <text
   class="TextShape"
   id="text8239"><tspan
     class="TextParagraph"
     font-size="388px"
     font-weight="400"
     id="tspan8241"
     style="font-size:388px;font-weight:400;font-family:'Arial, sans-serif'"><tspan
       class="TextPosition"
       x="10638"
       y="2168"
       id="tspan8243"><tspan
         id="tspan8245"
         style="fill:#000000;stroke:none">master</tspan></tspan></tspan></text>

      </g>
     </g>
     <g
   class="com.sun.star.drawing.CustomShape"
   id="g8247">
      <g
   id="id31">
       <path
   d="m 8425,2066 1250,0 626,700 -626,700 -1250,0 -625,-700 625,-700 z"
   id="path8250"
   inkscape:connector-curvature="0"
   style="fill:none;stroke:#000000;stroke-width:50" />
       <text
   class="TextShape"
   id="text8252"><tspan
     class="TextParagraph"
     font-size="423px"
     font-weight="400"
     id="tspan8254"
     style="font-size:423px;font-weight:400;font-family:'Arial, sans-serif'"><tspan
       class="TextPosition"
       x="8415"
       y="2912"
       id="tspan8256"><tspan
         id="tspan8258"
         style="fill:#000000;stroke:none">dfc908</tspan></tspan></tspan></text>

      </g>
     </g>
     <g
   class="com.sun.star.drawing.CustomShape"
   id="g8260">
      <g
   id="id32">
       <path
   d="m 7259,5415 1400,0 0,1575 -175,225 -1225,0 0,-1800 z"
   id="path8263"
   inkscape:connector-curvature="0"
   style="fill:none;stroke:#000000;stroke-width:50" />
       <path
   d="m 8484,7215 46,-225 c 44,33 42,14 129,0 l -175,225 z"
   id="path8265"
   inkscape:connector-curvature="0"
   style="fill:none;stroke:#000000;stroke-width:50" />
      </g>
     </g>
     <g
   class="com.sun.star.drawing.TextShape"
   id="g8267">
      <g
   id="id33">
       <text
   class="TextShape"
   id="text8270"><tspan
     class="TextParagraph"
     font-size="388px"
     font-weight="400"
     id="tspan8272"
     style="font-size:388px;font-weight:400;font-family:'Arial, sans-serif'"><tspan
       class="TextPosition"
       x="7268"
       y="8061"
       id="tspan8274"><tspan
         id="tspan8276"
         style="fill:#000000;stroke:none">mars.txt</tspan></tspan></tspan></text>

      </g>
     </g>
     <g
   class="com.sun.star.drawing.LineShape"
   id="g8278">
      <g
   id="id34">
       <path
   d="m 7509,5865 900,0"
   id="path8281"
   inkscape:connector-curvature="0"
   style="fill:none;stroke:#000000;stroke-width:50" />
      </g>
     </g>
     <g
   class="com.sun.star.drawing.LineShape"
   id="g8283">
      <g
   id="id35">
       <path
   d="m 7509,6165 900,0"
   id="path8286"
   inkscape:connector-curvature="0"
   style="fill:none;stroke:#000000;stroke-width:50" />
      </g>
     </g>
     <g
   class="com.sun.star.drawing.LineShape"
   id="g8288">
      <g
   id="id36">
       <path
   d="m 7509,6465 900,0"
   id="path8291"
   inkscape:connector-curvature="0"
   style="fill:none;stroke:#000000;stroke-width:50" />
      </g>
     </g>
     <g
   class="com.sun.star.drawing.LineShape"
   id="g8293">
      <g
   id="id37">
       <path
   d="m 7900,3300 -32,40"
   id="path8296"
   inkscape:connector-curvature="0"
   style="fill:none;stroke:#000000;stroke-width:50" />
       <path
   d="m 7836,3379 -32,40"
   id="path8298"
   inkscape:connector-curvature="0"
   style="fill:none;stroke:#000000;stroke-width:50" />
       <path
   d="m 7772,3458 -33,40"
   id="path8300"
   inkscape:connector-curvature="0"
   style="fill:none;stroke:#000000;stroke-width:50" />
       <path
   d="m 7707,3538 -32,39"
   id="path8302"
   inkscape:connector-curvature="0"
   style="fill:none;stroke:#000000;stroke-width:50" />
       <path
   d="m 7643,3617 -32,40"
   id="path8304"
   inkscape:connector-curvature="0"
   style="fill:none;stroke:#000000;stroke-width:50" />
       <path
   d="m 7579,3696 -32,40"
   id="path8306"
   inkscape:connector-curvature="0"
   style="fill:none;stroke:#000000;stroke-width:50" />
       <path
   d="m 7515,3775 -33,40"
   id="path8308"
   inkscape:connector-curvature="0"
   style="fill:none;stroke:#000000;stroke-width:50" />
       <path
   d="m 7450,3855 -32,39"
   id="path8310"
   inkscape:connector-curvature="0"
   style="fill:none;stroke:#000000;stroke-width:50" />
       <path
   d="m 7386,3934 -32,39"
   id="path8312"
   inkscape:connector-curvature="0"
   style="fill:none;stroke:#000000;stroke-width:50" />
       <path
   d="m 7322,4013 -32,40"
   id="path8314"
   inkscape:connector-curvature="0"
   style="fill:none;stroke:#000000;stroke-width:50" />
       <path
   d="m 7258,4092 -33,40"
   id="path8316"
   inkscape:connector-curvature="0"
   style="fill:none;stroke:#000000;stroke-width:50" />
       <path
   d="m 7193,4172 -32,39"
   id="path8318"
   inkscape:connector-curvature="0"
   style="fill:none;stroke:#000000;stroke-width:50" />
       <path
   d="m 7129,4251 -32,39"
   id="path8320"
   inkscape:connector-curvature="0"
   style="fill:none;stroke:#000000;stroke-width:50" />
       <path
   d="m 7065,4330 -32,40"
   id="path8322"
   inkscape:connector-curvature="0"
   style="fill:none;stroke:#000000;stroke-width:50" />
       <path
   d="m 7001,4409 -32,40"
   id="path8324"
   inkscape:connector-curvature="0"
   style="fill:none;stroke:#000000;stroke-width:50" />
       <path
   d="m 6936,4488 -32,40"
   id="path8326"
   inkscape:connector-curvature="0"
   style="fill:none;stroke:#000000;stroke-width:50" />
       <path
   d="m 6872,4568 -32,39"
   id="path8328"
   inkscape:connector-curvature="0"
   style="fill:none;stroke:#000000;stroke-width:50" />
       <path
   d="m 6808,4647 -32,40"
   id="path8330"
   inkscape:connector-curvature="0"
   style="fill:none;stroke:#000000;stroke-width:50" />
       <path
   d="m 6744,4726 -32,40"
   id="path8332"
   inkscape:connector-curvature="0"
   style="fill:none;stroke:#000000;stroke-width:50" />
       <path
   d="m 6679,4805 -32,40"
   id="path8334"
   inkscape:connector-curvature="0"
   style="fill:none;stroke:#000000;stroke-width:50" />
       <path
   d="m 6615,4885 -32,39"
   id="path8336"
   inkscape:connector-curvature="0"
   style="fill:none;stroke:#000000;stroke-width:50" />
       <path
   d="m 6551,4964 -32,39"
   id="path8338"
   inkscape:connector-curvature="0"
   style="fill:none;stroke:#000000;stroke-width:50" />
       <path
   d="m 6487,5043 -32,40"
   id="path8340"
   inkscape:connector-curvature="0"
   style="fill:none;stroke:#000000;stroke-width:50" />
       <path
   d="m 6422,5122 -32,40"
   id="path8342"
   inkscape:connector-curvature="0"
   style="fill:none;stroke:#000000;stroke-width:50" />
       <path
   d="m 6358,5201 -32,40"
   id="path8344"
   inkscape:connector-curvature="0"
   style="fill:none;stroke:#000000;stroke-width:50" />
       <path
   d="m 6294,5281 -32,39"
   id="path8346"
   inkscape:connector-curvature="0"
   style="fill:none;stroke:#000000;stroke-width:50" />
       <path
   d="m 6230,5360 -32,40"
   id="path8348"
   inkscape:connector-curvature="0"
   style="fill:none;stroke:#000000;stroke-width:50" />
       <path
   d="m 6166,5439 -33,40"
   id="path8350"
   inkscape:connector-curvature="0"
   style="fill:none;stroke:#000000;stroke-width:50" />
       <path
   d="m 6101,5518 -32,40"
   id="path8352"
   inkscape:connector-curvature="0"
   style="fill:none;stroke:#000000;stroke-width:50" />
       <path
   d="m 6037,5598 -32,39"
   id="path8354"
   inkscape:connector-curvature="0"
   style="fill:none;stroke:#000000;stroke-width:50" />
       <path
   d="m 5973,5677 -32,39"
   id="path8356"
   inkscape:connector-curvature="0"
   style="fill:none;stroke:#000000;stroke-width:50" />
       <path
   d="m 5909,5756 -33,40"
   id="path8358"
   inkscape:connector-curvature="0"
   style="fill:none;stroke:#000000;stroke-width:50" />
       <path
   d="m 5844,5835 -32,40"
   id="path8360"
   inkscape:connector-curvature="0"
   style="fill:none;stroke:#000000;stroke-width:50" />
       <path
   d="m 5780,5915 -32,39"
   id="path8362"
   inkscape:connector-curvature="0"
   style="fill:none;stroke:#000000;stroke-width:50" />
       <path
   d="m 5716,5994 -32,39"
   id="path8364"
   inkscape:connector-curvature="0"
   style="fill:none;stroke:#000000;stroke-width:50" />
       <path
   d="m 5652,6073 -33,40"
   id="path8366"
   inkscape:connector-curvature="0"
   style="fill:none;stroke:#000000;stroke-width:50" />
       <path
   d="m 5587,6152 -32,40"
   id="path8368"
   inkscape:connector-curvature="0"
   style="fill:none;stroke:#000000;stroke-width:50" />
       <path
   d="m 5523,6231 -32,40"
   id="path8370"
   inkscape:connector-curvature="0"
   style="fill:none;stroke:#000000;stroke-width:50" />
       <path
   d="m 5459,6311 -32,39"
   id="path8372"
   inkscape:connector-curvature="0"
   style="fill:none;stroke:#000000;stroke-width:50" />
       <path
   d="m 5395,6390 -32,40"
   id="path8374"
   inkscape:connector-curvature="0"
   style="fill:none;stroke:#000000;stroke-width:50" />
       <path
   d="m 5330,6469 -32,40"
   id="path8376"
   inkscape:connector-curvature="0"
   style="fill:none;stroke:#000000;stroke-width:50" />
       <path
   d="m 5266,6548 -32,40"
   id="path8378"
   inkscape:connector-curvature="0"
   style="fill:none;stroke:#000000;stroke-width:50" />
       <path
   d="m 5202,6628 -32,39"
   id="path8380"
   inkscape:connector-curvature="0"
   style="fill:none;stroke:#000000;stroke-width:50" />
       <path
   d="m 5138,6707 -18,21"
   id="path8382"
   inkscape:connector-curvature="0"
   style="fill:none;stroke:#000000;stroke-width:50" />
       <path
   d="m 4900,7000 91,-409 291,236 -382,173 z m 35,-43 300,-136 -229,-186 -71,322 z"
   id="path8384"
   inkscape:connector-curvature="0"
   style="fill:#000000;stroke:none" />
      </g>
     </g>
     <g
   class="com.sun.star.drawing.LineShape"
   id="g8386">
      <g
   id="id38">
       <path
   d="m 9000,3766 -577,770"
   id="path8389"
   inkscape:connector-curvature="0"
   style="fill:none;stroke:#000000;stroke-width:50" />
       <path
   d="m 8100,4966 488,-337 -300,-225 -188,562 z"
   id="path8391"
   inkscape:connector-curvature="0"
   style="fill:#000000;stroke:none" />
      </g>
     </g>
     <g
   class="com.sun.star.drawing.LineShape"
   id="g8393">
      <g
   id="id39">
       <path
   d="m 7509,6765 900,0"
   id="path8396"
   inkscape:connector-curvature="0"
   style="fill:none;stroke:#000000;stroke-width:50" />
      </g>
     </g>
     <g
   class="com.sun.star.drawing.CustomShape"
   id="g8398">
      <g
   id="id40">
       <path
   d="m 9359,5416 1400,0 0,1575 -175,225 -1225,0 0,-1800 z"
   id="path8401"
   inkscape:connector-curvature="0"
   style="fill:none;stroke:#000000;stroke-width:50" />
       <path
   d="m 10584,7216 46,-225 c 44,33 42,14 129,0 l -175,225 z"
   id="path8403"
   inkscape:connector-curvature="0"
   style="fill:none;stroke:#000000;stroke-width:50" />
      </g>
     </g>
     <g
   class="com.sun.star.drawing.TextShape"
   id="g8405">
      <g
   id="id41">
       <text
   class="TextShape"
   id="text8408"><tspan
     class="TextParagraph"
     font-size="388px"
     font-weight="400"
     id="tspan8410"
     style="font-size:388px;font-weight:400;font-family:'Arial, sans-serif'"><tspan
       class="TextPosition"
       x="9368"
       y="8062"
       id="tspan8412"><tspan
         id="tspan8414"
         style="fill:#000000;stroke:none">names.txt</tspan></tspan></tspan></text>

      </g>
     </g>
     <g
   class="com.sun.star.drawing.LineShape"
   id="g8416">
      <g
   id="id42">
       <path
   d="m 9609,5866 900,0"
   id="path8419"
   inkscape:connector-curvature="0"
   style="fill:none;stroke:#000000;stroke-width:50" />
      </g>
     </g>
     <g
   class="com.sun.star.drawing.LineShape"
   id="g8421">
      <g
   id="id43">
       <path
   d="m 9609,6166 900,0"
   id="path8424"
   inkscape:connector-curvature="0"
   style="fill:none;stroke:#000000;stroke-width:50" />
      </g>
     </g>
     <g
   class="com.sun.star.drawing.LineShape"
   id="g8426">
      <g
   id="id44">
       <path
   d="m 9609,6466 900,0"
   id="path8429"
   inkscape:connector-curvature="0"
   style="fill:none;stroke:#000000;stroke-width:50" />
      </g>
     </g>
     <g
   class="com.sun.star.drawing.LineShape"
   id="g8431">
      <g
   id="id45">
       <path
   d="m 9609,6766 900,0"
   id="path8434"
   inkscape:connector-curvature="0"
   style="fill:none;stroke:#000000;stroke-width:50" />
      </g>
     </g>
     <g
   class="com.sun.star.drawing.LineShape"
   id="g8436">
      <g
   id="id46">
       <path
   d="m 9000,3766 578,770"
   id="path8439"
   inkscape:connector-curvature="0"
   style="fill:none;stroke:#000000;stroke-width:50" />
       <path
   d="m 9900,4966 -187,-562 -300,225 487,337 z"
   id="path8441"
   inkscape:connector-curvature="0"
   style="fill:#000000;stroke:none" />
      </g>
     </g>
    </g>
   </g>
  </g>
 </g>
</svg>