<?xml version="1.0" encoding="UTF-8" standalone="no"?>
<svg
   xmlns:ooo="http://xml.openoffice.org/svg/export"
   xmlns:dc="http://purl.org/dc/elements/1.1/"
   xmlns:cc="http://creativecommons.org/ns#"
   xmlns:rdf="http://www.w3.org/1999/02/22-rdf-syntax-ns#"
   xmlns:svg="http://www.w3.org/2000/svg"
   xmlns="http://www.w3.org/2000/svg"
   xmlns:sodipodi="http://sodipodi.sourceforge.net/DTD/sodipodi-0.dtd"
   xmlns:inkscape="http://www.inkscape.org/namespaces/inkscape"
   version="1.2"
   width="374.7738"
   height="299.40945"
   viewBox="0 0 10576.95 8450.0002"
   preserveAspectRatio="xMidYMid"
   clip-path="url(#presentation_clip_path)"
   xml:space="preserve"
   id="svg6496"
   inkscape:version="0.48.2 r9819"
   sodipodi:docname="python-alias-04.svg"
   style="fill-rule:evenodd;stroke-width:28.22200012;stroke-linejoin:round"><metadata
   id="metadata7201"><rdf:RDF><cc:Work
       rdf:about=""><dc:format>image/svg+xml</dc:format><dc:type
         rdf:resource="http://purl.org/dc/dcmitype/StillImage" /></cc:Work></rdf:RDF></metadata><sodipodi:namedview
   pagecolor="#ffffff"
   bordercolor="#666666"
   borderopacity="1"
   objecttolerance="10"
   gridtolerance="10"
   guidetolerance="10"
   inkscape:pageopacity="0"
   inkscape:pageshadow="2"
   inkscape:window-width="640"
   inkscape:window-height="480"
   id="namedview7199"
   showgrid="false"
   fit-margin-top="0"
   fit-margin-left="0"
   fit-margin-right="0"
   fit-margin-bottom="0"
   inkscape:zoom="0.23838384"
   inkscape:cx="331.19111"
   inkscape:cy="-150.41339"
   inkscape:window-x="0"
   inkscape:window-y="0"
   inkscape:window-maximized="0"
   inkscape:current-layer="svg6496" />
 <defs
   class="ClipPathGroup"
   id="defs6498">
  <clipPath
   id="presentation_clip_path"
   clipPathUnits="userSpaceOnUse">
   <rect
   x="0"
   y="0"
   width="21590"
   height="27940"
   id="rect6501" />
  </clipPath>
 </defs>
 <defs
   class="TextShapeIndex"
   id="defs6503">
  <g
   ooo:slide="id1"
   ooo:id-list="id3 id4 id5 id6 id7 id8 id9 id10 id11 id12 id13 id14 id15 id16 id17 id18 id19 id20 id21"
   id="g6505" />
 </defs>
 <defs
   class="EmbeddedBulletChars"
   id="defs6507">
  <g
   id="bullet-char-template(57356)"
   transform="scale(4.8828125e-4,-4.8828125e-4)">
   <path
   d="M 580,1141 1163,571 580,0 -4,571 580,1141 z"
   id="path6510"
   inkscape:connector-curvature="0" />
  </g>
  <g
   id="bullet-char-template(57354)"
   transform="scale(4.8828125e-4,-4.8828125e-4)">
   <path
   d="m 8,1128 1129,0 L 1137,0 8,0 8,1128 z"
   id="path6513"
   inkscape:connector-curvature="0" />
  </g>
  <g
   id="bullet-char-template(10146)"
   transform="scale(4.8828125e-4,-4.8828125e-4)">
   <path
   d="M 174,0 602,739 174,1481 1456,739 174,0 z m 1184,739 -1049,607 350,-607 699,0 z"
   id="path6516"
   inkscape:connector-curvature="0" />
  </g>
  <g
   id="bullet-char-template(10132)"
   transform="scale(4.8828125e-4,-4.8828125e-4)">
   <path
   d="M 2015,739 1276,0 717,0 l 543,543 -1086,0 0,393 1086,0 -543,545 557,0 741,-742 z"
   id="path6519"
   inkscape:connector-curvature="0" />
  </g>
  <g
   id="bullet-char-template(10007)"
   transform="scale(4.8828125e-4,-4.8828125e-4)">
   <path
   d="m 0,-2 c -7,16 -16,29 -25,39 l 381,530 c -94,256 -141,385 -141,387 0,25 13,38 40,38 9,0 21,-2 34,-5 21,4 42,12 65,25 l 27,-13 111,-251 280,301 64,-25 24,25 c 21,-10 41,-24 62,-43 C 886,937 835,863 770,784 769,783 710,716 594,584 L 774,223 c 0,-27 -21,-55 -63,-84 l 16,-20 C 717,90 699,76 672,76 641,76 570,178 457,381 L 164,-76 c -22,-34 -53,-51 -92,-51 -42,0 -63,17 -64,51 -7,9 -10,24 -10,44 0,9 1,19 2,30 z"
   id="path6522"
   inkscape:connector-curvature="0" />
  </g>
  <g
   id="bullet-char-template(10004)"
   transform="scale(4.8828125e-4,-4.8828125e-4)">
   <path
   d="M 285,-33 C 182,-33 111,30 74,156 52,228 41,333 41,471 c 0,78 14,145 41,201 34,71 87,106 158,106 53,0 88,-31 106,-94 l 23,-176 c 8,-64 28,-97 59,-98 l 735,706 c 11,11 33,17 66,17 42,0 63,-15 63,-46 l 0,-122 c 0,-36 -10,-64 -30,-84 L 442,47 C 390,-6 338,-33 285,-33 z"
   id="path6525"
   inkscape:connector-curvature="0" />
  </g>
  <g
   id="bullet-char-template(9679)"
   transform="scale(4.8828125e-4,-4.8828125e-4)">
   <path
   d="M 813,0 C 632,0 489,54 383,161 276,268 223,411 223,592 c 0,181 53,324 160,431 106,107 249,161 430,161 179,0 323,-54 432,-161 108,-107 162,-251 162,-431 0,-180 -54,-324 -162,-431 C 1136,54 992,0 813,0 z"
   id="path6528"
   inkscape:connector-curvature="0" />
  </g>
  <g
   id="bullet-char-template(8226)"
   transform="scale(4.8828125e-4,-4.8828125e-4)">
   <path
   d="m 346,457 c -73,0 -137,26 -191,78 -54,51 -81,114 -81,188 0,73 27,136 81,188 54,52 118,78 191,78 73,0 134,-26 185,-79 51,-51 77,-114 77,-187 0,-75 -25,-137 -76,-188 -50,-52 -112,-78 -186,-78 z"
   id="path6531"
   inkscape:connector-curvature="0" />
  </g>
  <g
   id="bullet-char-template(8211)"
   transform="scale(4.8828125e-4,-4.8828125e-4)">
   <path
   d="m -4,459 1139,0 0,147 -1139,0 0,-147 z"
   id="path6534"
   inkscape:connector-curvature="0" />
  </g>
 </defs>
 <defs
   class="TextEmbeddedBitmaps"
   id="defs6536" />
 <g
   id="g6538"
   transform="translate(-1448.0508,-1275)">
  <g
   id="id2"
   class="Master_Slide">
   <g
   id="bg-id2"
   class="Background" />
   <g
   id="bo-id2"
   class="BackgroundObjects" />
  </g>
 </g>
 <g
   class="SlideGroup"
   id="g6543"
   transform="translate(-1448.0508,-1275)">
  <g
   id="g6545">
   <g
   id="id1"
   class="Slide"
   clip-path="url(#presentation_clip_path)">
    <g
   class="Page"
   id="g6548">
     <g
   class="com.sun.star.drawing.LineShape"
   id="g6550">
      <g
   id="id3">
       <path
   d="m 7200,5300 1170,0"
   id="path6553"
   inkscape:connector-curvature="0"
   style="fill:none;stroke:#000000" />
       <path
   d="m 8800,5300 -450,-150 0,300 450,-150 z"
   id="path6555"
   inkscape:connector-curvature="0"
   style="fill:#000000;stroke:none" />
      </g>
     </g>
     <g
   class="com.sun.star.drawing.TextShape"
   id="g6557">
      <g
   id="id4">
       <path
   d="m 5820,5583 -1081,0 0,-683 2161,0 0,683 -1080,0 z"
   id="path6560"
   inkscape:connector-curvature="0"
   style="fill:#c0c0c0;stroke:none" />
       <text
   class="TextShape"
   id="text6562"><tspan
     class="TextParagraph"
     font-size="388px"
     font-weight="400"
     id="tspan6564"
     style="font-size:388px;font-weight:400;font-family:'Arial, sans-serif'"><tspan
       class="TextPosition"
       x="4989"
       y="5376"
       id="tspan6566"><tspan
         id="tspan6568"
         style="fill:#000000;stroke:none">string_val</tspan></tspan></tspan></text>

      </g>
     </g>
     <g
   class="com.sun.star.drawing.LineShape"
   id="g6570">
      <g
   id="id5">
       <path
   d="m 7500,9700 0,-51"
   id="path6573"
   inkscape:connector-curvature="0"
   style="fill:none;stroke:#000000;stroke-width:50" />
       <path
   d="m 7500,9598 0,-51"
   id="path6575"
   inkscape:connector-curvature="0"
   style="fill:none;stroke:#000000;stroke-width:50" />
       <path
   d="m 7500,9496 0,-51"
   id="path6577"
   inkscape:connector-curvature="0"
   style="fill:none;stroke:#000000;stroke-width:50" />
       <path
   d="m 7500,9394 0,-51"
   id="path6579"
   inkscape:connector-curvature="0"
   style="fill:none;stroke:#000000;stroke-width:50" />
       <path
   d="m 7500,9292 0,-51"
   id="path6581"
   inkscape:connector-curvature="0"
   style="fill:none;stroke:#000000;stroke-width:50" />
       <path
   d="m 7500,9190 0,-51"
   id="path6583"
   inkscape:connector-curvature="0"
   style="fill:none;stroke:#000000;stroke-width:50" />
       <path
   d="m 7500,9088 0,-51"
   id="path6585"
   inkscape:connector-curvature="0"
   style="fill:none;stroke:#000000;stroke-width:50" />
       <path
   d="m 7500,8986 0,-51"
   id="path6587"
   inkscape:connector-curvature="0"
   style="fill:none;stroke:#000000;stroke-width:50" />
       <path
   d="m 7500,8884 0,-51"
   id="path6589"
   inkscape:connector-curvature="0"
   style="fill:none;stroke:#000000;stroke-width:50" />
       <path
   d="m 7500,8782 0,-51"
   id="path6591"
   inkscape:connector-curvature="0"
   style="fill:none;stroke:#000000;stroke-width:50" />
       <path
   d="m 7500,8680 0,-51"
   id="path6593"
   inkscape:connector-curvature="0"
   style="fill:none;stroke:#000000;stroke-width:50" />
       <path
   d="m 7500,8578 0,-51"
   id="path6595"
   inkscape:connector-curvature="0"
   style="fill:none;stroke:#000000;stroke-width:50" />
       <path
   d="m 7500,8476 0,-51"
   id="path6597"
   inkscape:connector-curvature="0"
   style="fill:none;stroke:#000000;stroke-width:50" />
       <path
   d="m 7500,8374 0,-51"
   id="path6599"
   inkscape:connector-curvature="0"
   style="fill:none;stroke:#000000;stroke-width:50" />
       <path
   d="m 7500,8272 0,-51"
   id="path6601"
   inkscape:connector-curvature="0"
   style="fill:none;stroke:#000000;stroke-width:50" />
       <path
   d="m 7500,8170 0,-51"
   id="path6603"
   inkscape:connector-curvature="0"
   style="fill:none;stroke:#000000;stroke-width:50" />
       <path
   d="m 7500,8068 0,-51"
   id="path6605"
   inkscape:connector-curvature="0"
   style="fill:none;stroke:#000000;stroke-width:50" />
       <path
   d="m 7500,7966 0,-51"
   id="path6607"
   inkscape:connector-curvature="0"
   style="fill:none;stroke:#000000;stroke-width:50" />
       <path
   d="m 7500,7864 0,-51"
   id="path6609"
   inkscape:connector-curvature="0"
   style="fill:none;stroke:#000000;stroke-width:50" />
       <path
   d="m 7500,7762 0,-51"
   id="path6611"
   inkscape:connector-curvature="0"
   style="fill:none;stroke:#000000;stroke-width:50" />
       <path
   d="m 7500,7660 0,-51"
   id="path6613"
   inkscape:connector-curvature="0"
   style="fill:none;stroke:#000000;stroke-width:50" />
       <path
   d="m 7500,7558 0,-51"
   id="path6615"
   inkscape:connector-curvature="0"
   style="fill:none;stroke:#000000;stroke-width:50" />
       <path
   d="m 7500,7456 0,-51"
   id="path6617"
   inkscape:connector-curvature="0"
   style="fill:none;stroke:#000000;stroke-width:50" />
       <path
   d="m 7500,7354 0,-51"
   id="path6619"
   inkscape:connector-curvature="0"
   style="fill:none;stroke:#000000;stroke-width:50" />
       <path
   d="m 7500,7252 0,-51"
   id="path6621"
   inkscape:connector-curvature="0"
   style="fill:none;stroke:#000000;stroke-width:50" />
       <path
   d="m 7500,7150 0,-51"
   id="path6623"
   inkscape:connector-curvature="0"
   style="fill:none;stroke:#000000;stroke-width:50" />
       <path
   d="m 7500,7048 0,-51"
   id="path6625"
   inkscape:connector-curvature="0"
   style="fill:none;stroke:#000000;stroke-width:50" />
       <path
   d="m 7500,6946 0,-51"
   id="path6627"
   inkscape:connector-curvature="0"
   style="fill:none;stroke:#000000;stroke-width:50" />
       <path
   d="m 7500,6844 0,-51"
   id="path6629"
   inkscape:connector-curvature="0"
   style="fill:none;stroke:#000000;stroke-width:50" />
       <path
   d="m 7500,6742 0,-51"
   id="path6631"
   inkscape:connector-curvature="0"
   style="fill:none;stroke:#000000;stroke-width:50" />
       <path
   d="m 7500,6640 0,-51"
   id="path6633"
   inkscape:connector-curvature="0"
   style="fill:none;stroke:#000000;stroke-width:50" />
       <path
   d="m 7500,6538 0,-51"
   id="path6635"
   inkscape:connector-curvature="0"
   style="fill:none;stroke:#000000;stroke-width:50" />
       <path
   d="m 7500,6436 0,-51"
   id="path6637"
   inkscape:connector-curvature="0"
   style="fill:none;stroke:#000000;stroke-width:50" />
       <path
   d="m 7500,6334 0,-51"
   id="path6639"
   inkscape:connector-curvature="0"
   style="fill:none;stroke:#000000;stroke-width:50" />
       <path
   d="m 7500,6232 0,-51"
   id="path6641"
   inkscape:connector-curvature="0"
   style="fill:none;stroke:#000000;stroke-width:50" />
       <path
   d="m 7500,6130 0,-51"
   id="path6643"
   inkscape:connector-curvature="0"
   style="fill:none;stroke:#000000;stroke-width:50" />
       <path
   d="m 7500,6028 0,-51"
   id="path6645"
   inkscape:connector-curvature="0"
   style="fill:none;stroke:#000000;stroke-width:50" />
       <path
   d="m 7500,5926 0,-51"
   id="path6647"
   inkscape:connector-curvature="0"
   style="fill:none;stroke:#000000;stroke-width:50" />
       <path
   d="m 7500,5824 0,-51"
   id="path6649"
   inkscape:connector-curvature="0"
   style="fill:none;stroke:#000000;stroke-width:50" />
       <path
   d="m 7500,5722 0,-51"
   id="path6651"
   inkscape:connector-curvature="0"
   style="fill:none;stroke:#000000;stroke-width:50" />
       <path
   d="m 7500,5620 0,-51"
   id="path6653"
   inkscape:connector-curvature="0"
   style="fill:none;stroke:#000000;stroke-width:50" />
       <path
   d="m 7500,5518 0,-51"
   id="path6655"
   inkscape:connector-curvature="0"
   style="fill:none;stroke:#000000;stroke-width:50" />
       <path
   d="m 7500,5416 0,-51"
   id="path6657"
   inkscape:connector-curvature="0"
   style="fill:none;stroke:#000000;stroke-width:50" />
       <path
   d="m 7500,5314 0,-51"
   id="path6659"
   inkscape:connector-curvature="0"
   style="fill:none;stroke:#000000;stroke-width:50" />
       <path
   d="m 7500,5212 0,-51"
   id="path6661"
   inkscape:connector-curvature="0"
   style="fill:none;stroke:#000000;stroke-width:50" />
       <path
   d="m 7500,5110 0,-51"
   id="path6663"
   inkscape:connector-curvature="0"
   style="fill:none;stroke:#000000;stroke-width:50" />
       <path
   d="m 7500,5008 0,-51"
   id="path6665"
   inkscape:connector-curvature="0"
   style="fill:none;stroke:#000000;stroke-width:50" />
       <path
   d="m 7500,4906 0,-51"
   id="path6667"
   inkscape:connector-curvature="0"
   style="fill:none;stroke:#000000;stroke-width:50" />
       <path
   d="m 7500,4804 0,-51"
   id="path6669"
   inkscape:connector-curvature="0"
   style="fill:none;stroke:#000000;stroke-width:50" />
       <path
   d="m 7500,4702 0,-51"
   id="path6671"
   inkscape:connector-curvature="0"
   style="fill:none;stroke:#000000;stroke-width:50" />
       <path
   d="m 7500,4600 0,-51"
   id="path6673"
   inkscape:connector-curvature="0"
   style="fill:none;stroke:#000000;stroke-width:50" />
       <path
   d="m 7500,4498 0,-51"
   id="path6675"
   inkscape:connector-curvature="0"
   style="fill:none;stroke:#000000;stroke-width:50" />
       <path
   d="m 7500,4396 0,-51"
   id="path6677"
   inkscape:connector-curvature="0"
   style="fill:none;stroke:#000000;stroke-width:50" />
       <path
   d="m 7500,4294 0,-51"
   id="path6679"
   inkscape:connector-curvature="0"
   style="fill:none;stroke:#000000;stroke-width:50" />
       <path
   d="m 7500,4192 0,-51"
   id="path6681"
   inkscape:connector-curvature="0"
   style="fill:none;stroke:#000000;stroke-width:50" />
       <path
   d="m 7500,4090 0,-51"
   id="path6683"
   inkscape:connector-curvature="0"
   style="fill:none;stroke:#000000;stroke-width:50" />
       <path
   d="m 7500,3988 0,-51"
   id="path6685"
   inkscape:connector-curvature="0"
   style="fill:none;stroke:#000000;stroke-width:50" />
       <path
   d="m 7500,3886 0,-51"
   id="path6687"
   inkscape:connector-curvature="0"
   style="fill:none;stroke:#000000;stroke-width:50" />
       <path
   d="m 7500,3784 0,-51"
   id="path6689"
   inkscape:connector-curvature="0"
   style="fill:none;stroke:#000000;stroke-width:50" />
       <path
   d="m 7500,3682 0,-51"
   id="path6691"
   inkscape:connector-curvature="0"
   style="fill:none;stroke:#000000;stroke-width:50" />
       <path
   d="m 7500,3580 0,-51"
   id="path6693"
   inkscape:connector-curvature="0"
   style="fill:none;stroke:#000000;stroke-width:50" />
       <path
   d="m 7500,3478 0,-51"
   id="path6695"
   inkscape:connector-curvature="0"
   style="fill:none;stroke:#000000;stroke-width:50" />
       <path
   d="m 7500,3376 0,-51"
   id="path6697"
   inkscape:connector-curvature="0"
   style="fill:none;stroke:#000000;stroke-width:50" />
       <path
   d="m 7500,3274 0,-51"
   id="path6699"
   inkscape:connector-curvature="0"
   style="fill:none;stroke:#000000;stroke-width:50" />
       <path
   d="m 7500,3172 0,-51"
   id="path6701"
   inkscape:connector-curvature="0"
   style="fill:none;stroke:#000000;stroke-width:50" />
       <path
   d="m 7500,3070 0,-51"
   id="path6703"
   inkscape:connector-curvature="0"
   style="fill:none;stroke:#000000;stroke-width:50" />
       <path
   d="m 7500,2968 0,-51"
   id="path6705"
   inkscape:connector-curvature="0"
   style="fill:none;stroke:#000000;stroke-width:50" />
       <path
   d="m 7500,2866 0,-51"
   id="path6707"
   inkscape:connector-curvature="0"
   style="fill:none;stroke:#000000;stroke-width:50" />
       <path
   d="m 7500,2764 0,-51"
   id="path6709"
   inkscape:connector-curvature="0"
   style="fill:none;stroke:#000000;stroke-width:50" />
       <path
   d="m 7500,2662 0,-51"
   id="path6711"
   inkscape:connector-curvature="0"
   style="fill:none;stroke:#000000;stroke-width:50" />
       <path
   d="m 7500,2560 0,-51"
   id="path6713"
   inkscape:connector-curvature="0"
   style="fill:none;stroke:#000000;stroke-width:50" />
       <path
   d="m 7500,2458 0,-51"
   id="path6715"
   inkscape:connector-curvature="0"
   style="fill:none;stroke:#000000;stroke-width:50" />
       <path
   d="m 7500,2356 0,-51"
   id="path6717"
   inkscape:connector-curvature="0"
   style="fill:none;stroke:#000000;stroke-width:50" />
       <path
   d="m 7500,2254 0,-51"
   id="path6719"
   inkscape:connector-curvature="0"
   style="fill:none;stroke:#000000;stroke-width:50" />
       <path
   d="m 7500,2152 0,-51"
   id="path6721"
   inkscape:connector-curvature="0"
   style="fill:none;stroke:#000000;stroke-width:50" />
       <path
   d="m 7500,2050 0,-51"
   id="path6723"
   inkscape:connector-curvature="0"
   style="fill:none;stroke:#000000;stroke-width:50" />
       <path
   d="m 7500,1948 0,-51"
   id="path6725"
   inkscape:connector-curvature="0"
   style="fill:none;stroke:#000000;stroke-width:50" />
       <path
   d="m 7500,1846 0,-51"
   id="path6727"
   inkscape:connector-curvature="0"
   style="fill:none;stroke:#000000;stroke-width:50" />
       <path
   d="m 7500,1744 0,-51"
   id="path6729"
   inkscape:connector-curvature="0"
   style="fill:none;stroke:#000000;stroke-width:50" />
       <path
   d="m 7500,1642 0,-51"
   id="path6731"
   inkscape:connector-curvature="0"
   style="fill:none;stroke:#000000;stroke-width:50" />
       <path
   d="m 7500,1540 0,-51"
   id="path6733"
   inkscape:connector-curvature="0"
   style="fill:none;stroke:#000000;stroke-width:50" />
       <path
   d="m 7500,1438 0,-51"
   id="path6735"
   inkscape:connector-curvature="0"
   style="fill:none;stroke:#000000;stroke-width:50" />
       <path
   d="m 7500,1336 0,-36"
   id="path6737"
   inkscape:connector-curvature="0"
   style="fill:none;stroke:#000000;stroke-width:50" />
      </g>
     </g>
     <g
   class="com.sun.star.drawing.LineShape"
   id="g6739">
      <g
   id="id6">
       <path
   d="m 12000,8700 -51,0"
   id="path6742"
   inkscape:connector-curvature="0"
   style="fill:none;stroke:#000000;stroke-width:50" />
       <path
   d="m 11898,8700 -51,0"
   id="path6744"
   inkscape:connector-curvature="0"
   style="fill:none;stroke:#000000;stroke-width:50" />
       <path
   d="m 11796,8700 -51,0"
   id="path6746"
   inkscape:connector-curvature="0"
   style="fill:none;stroke:#000000;stroke-width:50" />
       <path
   d="m 11694,8700 -51,0"
   id="path6748"
   inkscape:connector-curvature="0"
   style="fill:none;stroke:#000000;stroke-width:50" />
       <path
   d="m 11592,8700 -51,0"
   id="path6750"
   inkscape:connector-curvature="0"
   style="fill:none;stroke:#000000;stroke-width:50" />
       <path
   d="m 11490,8700 -51,0"
   id="path6752"
   inkscape:connector-curvature="0"
   style="fill:none;stroke:#000000;stroke-width:50" />
       <path
   d="m 11388,8700 -51,0"
   id="path6754"
   inkscape:connector-curvature="0"
   style="fill:none;stroke:#000000;stroke-width:50" />
       <path
   d="m 11286,8700 -51,0"
   id="path6756"
   inkscape:connector-curvature="0"
   style="fill:none;stroke:#000000;stroke-width:50" />
       <path
   d="m 11184,8700 -51,0"
   id="path6758"
   inkscape:connector-curvature="0"
   style="fill:none;stroke:#000000;stroke-width:50" />
       <path
   d="m 11082,8700 -51,0"
   id="path6760"
   inkscape:connector-curvature="0"
   style="fill:none;stroke:#000000;stroke-width:50" />
       <path
   d="m 10980,8700 -51,0"
   id="path6762"
   inkscape:connector-curvature="0"
   style="fill:none;stroke:#000000;stroke-width:50" />
       <path
   d="m 10878,8700 -51,0"
   id="path6764"
   inkscape:connector-curvature="0"
   style="fill:none;stroke:#000000;stroke-width:50" />
       <path
   d="m 10776,8700 -51,0"
   id="path6766"
   inkscape:connector-curvature="0"
   style="fill:none;stroke:#000000;stroke-width:50" />
       <path
   d="m 10674,8700 -51,0"
   id="path6768"
   inkscape:connector-curvature="0"
   style="fill:none;stroke:#000000;stroke-width:50" />
       <path
   d="m 10572,8700 -51,0"
   id="path6770"
   inkscape:connector-curvature="0"
   style="fill:none;stroke:#000000;stroke-width:50" />
       <path
   d="m 10470,8700 -51,0"
   id="path6772"
   inkscape:connector-curvature="0"
   style="fill:none;stroke:#000000;stroke-width:50" />
       <path
   d="m 10368,8700 -51,0"
   id="path6774"
   inkscape:connector-curvature="0"
   style="fill:none;stroke:#000000;stroke-width:50" />
       <path
   d="m 10266,8700 -51,0"
   id="path6776"
   inkscape:connector-curvature="0"
   style="fill:none;stroke:#000000;stroke-width:50" />
       <path
   d="m 10164,8700 -51,0"
   id="path6778"
   inkscape:connector-curvature="0"
   style="fill:none;stroke:#000000;stroke-width:50" />
       <path
   d="m 10062,8700 -51,0"
   id="path6780"
   inkscape:connector-curvature="0"
   style="fill:none;stroke:#000000;stroke-width:50" />
       <path
   d="m 9960,8700 -51,0"
   id="path6782"
   inkscape:connector-curvature="0"
   style="fill:none;stroke:#000000;stroke-width:50" />
       <path
   d="m 9858,8700 -51,0"
   id="path6784"
   inkscape:connector-curvature="0"
   style="fill:none;stroke:#000000;stroke-width:50" />
       <path
   d="m 9756,8700 -51,0"
   id="path6786"
   inkscape:connector-curvature="0"
   style="fill:none;stroke:#000000;stroke-width:50" />
       <path
   d="m 9654,8700 -51,0"
   id="path6788"
   inkscape:connector-curvature="0"
   style="fill:none;stroke:#000000;stroke-width:50" />
       <path
   d="m 9552,8700 -51,0"
   id="path6790"
   inkscape:connector-curvature="0"
   style="fill:none;stroke:#000000;stroke-width:50" />
       <path
   d="m 9450,8700 -51,0"
   id="path6792"
   inkscape:connector-curvature="0"
   style="fill:none;stroke:#000000;stroke-width:50" />
       <path
   d="m 9348,8700 -51,0"
   id="path6794"
   inkscape:connector-curvature="0"
   style="fill:none;stroke:#000000;stroke-width:50" />
       <path
   d="m 9246,8700 -51,0"
   id="path6796"
   inkscape:connector-curvature="0"
   style="fill:none;stroke:#000000;stroke-width:50" />
       <path
   d="m 9144,8700 -51,0"
   id="path6798"
   inkscape:connector-curvature="0"
   style="fill:none;stroke:#000000;stroke-width:50" />
       <path
   d="m 9042,8700 -51,0"
   id="path6800"
   inkscape:connector-curvature="0"
   style="fill:none;stroke:#000000;stroke-width:50" />
       <path
   d="m 8940,8700 -51,0"
   id="path6802"
   inkscape:connector-curvature="0"
   style="fill:none;stroke:#000000;stroke-width:50" />
       <path
   d="m 8838,8700 -51,0"
   id="path6804"
   inkscape:connector-curvature="0"
   style="fill:none;stroke:#000000;stroke-width:50" />
       <path
   d="m 8736,8700 -51,0"
   id="path6806"
   inkscape:connector-curvature="0"
   style="fill:none;stroke:#000000;stroke-width:50" />
       <path
   d="m 8634,8700 -51,0"
   id="path6808"
   inkscape:connector-curvature="0"
   style="fill:none;stroke:#000000;stroke-width:50" />
       <path
   d="m 8532,8700 -51,0"
   id="path6810"
   inkscape:connector-curvature="0"
   style="fill:none;stroke:#000000;stroke-width:50" />
       <path
   d="m 8430,8700 -51,0"
   id="path6812"
   inkscape:connector-curvature="0"
   style="fill:none;stroke:#000000;stroke-width:50" />
       <path
   d="m 8328,8700 -51,0"
   id="path6814"
   inkscape:connector-curvature="0"
   style="fill:none;stroke:#000000;stroke-width:50" />
       <path
   d="m 8226,8700 -51,0"
   id="path6816"
   inkscape:connector-curvature="0"
   style="fill:none;stroke:#000000;stroke-width:50" />
       <path
   d="m 8124,8700 -51,0"
   id="path6818"
   inkscape:connector-curvature="0"
   style="fill:none;stroke:#000000;stroke-width:50" />
       <path
   d="m 8022,8700 -51,0"
   id="path6820"
   inkscape:connector-curvature="0"
   style="fill:none;stroke:#000000;stroke-width:50" />
       <path
   d="m 7920,8700 -51,0"
   id="path6822"
   inkscape:connector-curvature="0"
   style="fill:none;stroke:#000000;stroke-width:50" />
       <path
   d="m 7818,8700 -51,0"
   id="path6824"
   inkscape:connector-curvature="0"
   style="fill:none;stroke:#000000;stroke-width:50" />
       <path
   d="m 7716,8700 -51,0"
   id="path6826"
   inkscape:connector-curvature="0"
   style="fill:none;stroke:#000000;stroke-width:50" />
       <path
   d="m 7614,8700 -51,0"
   id="path6828"
   inkscape:connector-curvature="0"
   style="fill:none;stroke:#000000;stroke-width:50" />
       <path
   d="m 7512,8700 -51,0"
   id="path6830"
   inkscape:connector-curvature="0"
   style="fill:none;stroke:#000000;stroke-width:50" />
       <path
   d="m 7410,8700 -51,0"
   id="path6832"
   inkscape:connector-curvature="0"
   style="fill:none;stroke:#000000;stroke-width:50" />
       <path
   d="m 7308,8700 -51,0"
   id="path6834"
   inkscape:connector-curvature="0"
   style="fill:none;stroke:#000000;stroke-width:50" />
       <path
   d="m 7206,8700 -51,0"
   id="path6836"
   inkscape:connector-curvature="0"
   style="fill:none;stroke:#000000;stroke-width:50" />
       <path
   d="m 7104,8700 -51,0"
   id="path6838"
   inkscape:connector-curvature="0"
   style="fill:none;stroke:#000000;stroke-width:50" />
       <path
   d="m 7002,8700 -51,0"
   id="path6840"
   inkscape:connector-curvature="0"
   style="fill:none;stroke:#000000;stroke-width:50" />
       <path
   d="m 6900,8700 -51,0"
   id="path6842"
   inkscape:connector-curvature="0"
   style="fill:none;stroke:#000000;stroke-width:50" />
       <path
   d="m 6798,8700 -51,0"
   id="path6844"
   inkscape:connector-curvature="0"
   style="fill:none;stroke:#000000;stroke-width:50" />
       <path
   d="m 6696,8700 -51,0"
   id="path6846"
   inkscape:connector-curvature="0"
   style="fill:none;stroke:#000000;stroke-width:50" />
       <path
   d="m 6594,8700 -51,0"
   id="path6848"
   inkscape:connector-curvature="0"
   style="fill:none;stroke:#000000;stroke-width:50" />
       <path
   d="m 6492,8700 -51,0"
   id="path6850"
   inkscape:connector-curvature="0"
   style="fill:none;stroke:#000000;stroke-width:50" />
       <path
   d="m 6390,8700 -51,0"
   id="path6852"
   inkscape:connector-curvature="0"
   style="fill:none;stroke:#000000;stroke-width:50" />
       <path
   d="m 6288,8700 -51,0"
   id="path6854"
   inkscape:connector-curvature="0"
   style="fill:none;stroke:#000000;stroke-width:50" />
       <path
   d="m 6186,8700 -51,0"
   id="path6856"
   inkscape:connector-curvature="0"
   style="fill:none;stroke:#000000;stroke-width:50" />
       <path
   d="m 6084,8700 -51,0"
   id="path6858"
   inkscape:connector-curvature="0"
   style="fill:none;stroke:#000000;stroke-width:50" />
       <path
   d="m 5982,8700 -51,0"
   id="path6860"
   inkscape:connector-curvature="0"
   style="fill:none;stroke:#000000;stroke-width:50" />
       <path
   d="m 5880,8700 -51,0"
   id="path6862"
   inkscape:connector-curvature="0"
   style="fill:none;stroke:#000000;stroke-width:50" />
       <path
   d="m 5778,8700 -51,0"
   id="path6864"
   inkscape:connector-curvature="0"
   style="fill:none;stroke:#000000;stroke-width:50" />
       <path
   d="m 5676,8700 -51,0"
   id="path6866"
   inkscape:connector-curvature="0"
   style="fill:none;stroke:#000000;stroke-width:50" />
       <path
   d="m 5574,8700 -51,0"
   id="path6868"
   inkscape:connector-curvature="0"
   style="fill:none;stroke:#000000;stroke-width:50" />
       <path
   d="m 5472,8700 -51,0"
   id="path6870"
   inkscape:connector-curvature="0"
   style="fill:none;stroke:#000000;stroke-width:50" />
       <path
   d="m 5370,8700 -51,0"
   id="path6872"
   inkscape:connector-curvature="0"
   style="fill:none;stroke:#000000;stroke-width:50" />
       <path
   d="m 5268,8700 -51,0"
   id="path6874"
   inkscape:connector-curvature="0"
   style="fill:none;stroke:#000000;stroke-width:50" />
       <path
   d="m 5166,8700 -51,0"
   id="path6876"
   inkscape:connector-curvature="0"
   style="fill:none;stroke:#000000;stroke-width:50" />
       <path
   d="m 5064,8700 -51,0"
   id="path6878"
   inkscape:connector-curvature="0"
   style="fill:none;stroke:#000000;stroke-width:50" />
       <path
   d="m 4962,8700 -51,0"
   id="path6880"
   inkscape:connector-curvature="0"
   style="fill:none;stroke:#000000;stroke-width:50" />
       <path
   d="m 4860,8700 -51,0"
   id="path6882"
   inkscape:connector-curvature="0"
   style="fill:none;stroke:#000000;stroke-width:50" />
       <path
   d="m 4758,8700 -51,0"
   id="path6884"
   inkscape:connector-curvature="0"
   style="fill:none;stroke:#000000;stroke-width:50" />
       <path
   d="m 4656,8700 -51,0"
   id="path6886"
   inkscape:connector-curvature="0"
   style="fill:none;stroke:#000000;stroke-width:50" />
       <path
   d="m 4554,8700 -51,0"
   id="path6888"
   inkscape:connector-curvature="0"
   style="fill:none;stroke:#000000;stroke-width:50" />
       <path
   d="m 4452,8700 -51,0"
   id="path6890"
   inkscape:connector-curvature="0"
   style="fill:none;stroke:#000000;stroke-width:50" />
       <path
   d="m 4350,8700 -51,0"
   id="path6892"
   inkscape:connector-curvature="0"
   style="fill:none;stroke:#000000;stroke-width:50" />
       <path
   d="m 4248,8700 -51,0"
   id="path6894"
   inkscape:connector-curvature="0"
   style="fill:none;stroke:#000000;stroke-width:50" />
       <path
   d="m 4146,8700 -51,0"
   id="path6896"
   inkscape:connector-curvature="0"
   style="fill:none;stroke:#000000;stroke-width:50" />
       <path
   d="m 4044,8700 -44,0"
   id="path6898"
   inkscape:connector-curvature="0"
   style="fill:none;stroke:#000000;stroke-width:50" />
      </g>
     </g>
     <g
   class="com.sun.star.drawing.TextShape"
   id="g6900">
      <g
   id="id7">
       <text
   class="TextShape"
   id="text6903"><tspan
     class="TextParagraph"
     font-size="388px"
     font-weight="400"
     id="tspan6905"
     style="font-size:388px;font-weight:400;font-family:'Arial, sans-serif'"><tspan
       class="TextPosition"
       x="4891"
       y="9368"
       id="tspan6907"><tspan
         id="tspan6909"
         style="fill:#000000;stroke:none">Variables</tspan></tspan></tspan></text>

      </g>
     </g>
     <g
   class="com.sun.star.drawing.TextShape"
   id="g6911">
      <g
   id="id8">
       <text
   class="TextShape"
   id="text6914"><tspan
     class="TextParagraph"
     font-size="388px"
     font-weight="400"
     id="tspan6916"
     style="font-size:388px;font-weight:400;font-family:'Arial, sans-serif'"><tspan
       class="TextPosition"
       x="8791"
       y="9369"
       id="tspan6918"><tspan
         id="tspan6920"
         style="fill:#000000;stroke:none">Values</tspan></tspan></tspan></text>

      </g>
     </g>
     <g
   class="com.sun.star.drawing.TextShape"
   id="g6922">
      <g
   id="id9">
       <path
   d="m 6057,6700 -844,0 0,-683 1687,0 0,683 -843,0 z"
   id="path6925"
   inkscape:connector-curvature="0"
   style="fill:#c0c0c0;stroke:none" />
       <text
   class="TextShape"
   id="text6927"><tspan
     class="TextParagraph"
     font-size="388px"
     font-weight="400"
     id="tspan6929"
     style="font-size:388px;font-weight:400;font-family:'Arial, sans-serif'"><tspan
       class="TextPosition"
       x="5463"
       y="6493"
       id="tspan6931"><tspan
         id="tspan6933"
         style="fill:#000000;stroke:none">list_val</tspan></tspan></tspan></text>

      </g>
     </g>
     <g
   class="com.sun.star.drawing.TextShape"
   id="g6935">
      <g
   id="id10">
       <path
   d="m 9317,8401 -717,0 0,-733 1433,0 0,733 -716,0 z"
   id="path6938"
   inkscape:connector-curvature="0"
   style="fill:none;stroke:#000000;stroke-width:50" />
       <text
   class="TextShape"
   id="text6940"><tspan
     class="TextParagraph"
     font-size="388px"
     font-weight="400"
     id="tspan6942"
     style="font-size:388px;font-weight:400;font-family:'Arial, sans-serif'"><tspan
       class="TextPosition"
       x="8875"
       y="8169"
       id="tspan6944"><tspan
         id="tspan6946"
         style="fill:#000000;stroke:none">'alan'</tspan></tspan></tspan></text>

      </g>
     </g>
     <g
   class="com.sun.star.drawing.LineShape"
   id="g6948">
      <g
   id="id11">
       <path
   d="m 7100,6400 1270,0"
   id="path6951"
   inkscape:connector-curvature="0"
   style="fill:none;stroke:#000000" />
       <path
   d="m 8800,6400 -450,-150 0,300 450,-150 z"
   id="path6953"
   inkscape:connector-curvature="0"
   style="fill:#000000;stroke:none" />
      </g>
     </g>
     <g
   class="com.sun.star.drawing.LineShape"
   id="g6955">
      <g
   id="id12">
       <path
   d="m 9300,6400 0,670"
   id="path6958"
   inkscape:connector-curvature="0"
   style="fill:none;stroke:#000000" />
       <path
   d="m 9300,7500 150,-450 -300,0 150,450 z"
   id="path6960"
   inkscape:connector-curvature="0"
   style="fill:#000000;stroke:none" />
      </g>
     </g>
     <g
   class="com.sun.star.drawing.TextShape"
   id="g6962">
      <g
   id="id13">
       <text
   class="TextShape"
   id="text6965"><tspan
     class="TextParagraph"
     font-size="388px"
     font-weight="400"
     id="tspan6967"
     style="font-size:388px;font-weight:400;font-family:'Arial, sans-serif'"><tspan
       class="TextPosition"
       x="8976"
       y="5470"
       id="tspan6969"><tspan
         id="tspan6971"
         style="fill:#000000;stroke:none">'alan'</tspan></tspan></tspan></text>

      </g>
     </g>
     <g
   class="com.sun.star.drawing.LineShape"
   id="g6973">
      <g
   id="id14">
       <path
   d="m 12000,3900 -51,0"
   id="path6976"
   inkscape:connector-curvature="0"
   style="fill:none;stroke:#000000;stroke-width:50" />
       <path
   d="m 11898,3900 -51,0"
   id="path6978"
   inkscape:connector-curvature="0"
   style="fill:none;stroke:#000000;stroke-width:50" />
       <path
   d="m 11796,3900 -51,0"
   id="path6980"
   inkscape:connector-curvature="0"
   style="fill:none;stroke:#000000;stroke-width:50" />
       <path
   d="m 11694,3900 -51,0"
   id="path6982"
   inkscape:connector-curvature="0"
   style="fill:none;stroke:#000000;stroke-width:50" />
       <path
   d="m 11592,3900 -51,0"
   id="path6984"
   inkscape:connector-curvature="0"
   style="fill:none;stroke:#000000;stroke-width:50" />
       <path
   d="m 11490,3900 -51,0"
   id="path6986"
   inkscape:connector-curvature="0"
   style="fill:none;stroke:#000000;stroke-width:50" />
       <path
   d="m 11388,3900 -51,0"
   id="path6988"
   inkscape:connector-curvature="0"
   style="fill:none;stroke:#000000;stroke-width:50" />
       <path
   d="m 11286,3900 -51,0"
   id="path6990"
   inkscape:connector-curvature="0"
   style="fill:none;stroke:#000000;stroke-width:50" />
       <path
   d="m 11184,3900 -51,0"
   id="path6992"
   inkscape:connector-curvature="0"
   style="fill:none;stroke:#000000;stroke-width:50" />
       <path
   d="m 11082,3900 -51,0"
   id="path6994"
   inkscape:connector-curvature="0"
   style="fill:none;stroke:#000000;stroke-width:50" />
       <path
   d="m 10980,3900 -51,0"
   id="path6996"
   inkscape:connector-curvature="0"
   style="fill:none;stroke:#000000;stroke-width:50" />
       <path
   d="m 10878,3900 -51,0"
   id="path6998"
   inkscape:connector-curvature="0"
   style="fill:none;stroke:#000000;stroke-width:50" />
       <path
   d="m 10776,3900 -51,0"
   id="path7000"
   inkscape:connector-curvature="0"
   style="fill:none;stroke:#000000;stroke-width:50" />
       <path
   d="m 10674,3900 -51,0"
   id="path7002"
   inkscape:connector-curvature="0"
   style="fill:none;stroke:#000000;stroke-width:50" />
       <path
   d="m 10572,3900 -51,0"
   id="path7004"
   inkscape:connector-curvature="0"
   style="fill:none;stroke:#000000;stroke-width:50" />
       <path
   d="m 10470,3900 -51,0"
   id="path7006"
   inkscape:connector-curvature="0"
   style="fill:none;stroke:#000000;stroke-width:50" />
       <path
   d="m 10368,3900 -51,0"
   id="path7008"
   inkscape:connector-curvature="0"
   style="fill:none;stroke:#000000;stroke-width:50" />
       <path
   d="m 10266,3900 -51,0"
   id="path7010"
   inkscape:connector-curvature="0"
   style="fill:none;stroke:#000000;stroke-width:50" />
       <path
   d="m 10164,3900 -51,0"
   id="path7012"
   inkscape:connector-curvature="0"
   style="fill:none;stroke:#000000;stroke-width:50" />
       <path
   d="m 10062,3900 -51,0"
   id="path7014"
   inkscape:connector-curvature="0"
   style="fill:none;stroke:#000000;stroke-width:50" />
       <path
   d="m 9960,3900 -51,0"
   id="path7016"
   inkscape:connector-curvature="0"
   style="fill:none;stroke:#000000;stroke-width:50" />
       <path
   d="m 9858,3900 -51,0"
   id="path7018"
   inkscape:connector-curvature="0"
   style="fill:none;stroke:#000000;stroke-width:50" />
       <path
   d="m 9756,3900 -51,0"
   id="path7020"
   inkscape:connector-curvature="0"
   style="fill:none;stroke:#000000;stroke-width:50" />
       <path
   d="m 9654,3900 -51,0"
   id="path7022"
   inkscape:connector-curvature="0"
   style="fill:none;stroke:#000000;stroke-width:50" />
       <path
   d="m 9552,3900 -51,0"
   id="path7024"
   inkscape:connector-curvature="0"
   style="fill:none;stroke:#000000;stroke-width:50" />
       <path
   d="m 9450,3900 -51,0"
   id="path7026"
   inkscape:connector-curvature="0"
   style="fill:none;stroke:#000000;stroke-width:50" />
       <path
   d="m 9348,3900 -51,0"
   id="path7028"
   inkscape:connector-curvature="0"
   style="fill:none;stroke:#000000;stroke-width:50" />
       <path
   d="m 9246,3900 -51,0"
   id="path7030"
   inkscape:connector-curvature="0"
   style="fill:none;stroke:#000000;stroke-width:50" />
       <path
   d="m 9144,3900 -51,0"
   id="path7032"
   inkscape:connector-curvature="0"
   style="fill:none;stroke:#000000;stroke-width:50" />
       <path
   d="m 9042,3900 -51,0"
   id="path7034"
   inkscape:connector-curvature="0"
   style="fill:none;stroke:#000000;stroke-width:50" />
       <path
   d="m 8940,3900 -51,0"
   id="path7036"
   inkscape:connector-curvature="0"
   style="fill:none;stroke:#000000;stroke-width:50" />
       <path
   d="m 8838,3900 -51,0"
   id="path7038"
   inkscape:connector-curvature="0"
   style="fill:none;stroke:#000000;stroke-width:50" />
       <path
   d="m 8736,3900 -51,0"
   id="path7040"
   inkscape:connector-curvature="0"
   style="fill:none;stroke:#000000;stroke-width:50" />
       <path
   d="m 8634,3900 -51,0"
   id="path7042"
   inkscape:connector-curvature="0"
   style="fill:none;stroke:#000000;stroke-width:50" />
       <path
   d="m 8532,3900 -51,0"
   id="path7044"
   inkscape:connector-curvature="0"
   style="fill:none;stroke:#000000;stroke-width:50" />
       <path
   d="m 8430,3900 -51,0"
   id="path7046"
   inkscape:connector-curvature="0"
   style="fill:none;stroke:#000000;stroke-width:50" />
       <path
   d="m 8328,3900 -51,0"
   id="path7048"
   inkscape:connector-curvature="0"
   style="fill:none;stroke:#000000;stroke-width:50" />
       <path
   d="m 8226,3900 -51,0"
   id="path7050"
   inkscape:connector-curvature="0"
   style="fill:none;stroke:#000000;stroke-width:50" />
       <path
   d="m 8124,3900 -51,0"
   id="path7052"
   inkscape:connector-curvature="0"
   style="fill:none;stroke:#000000;stroke-width:50" />
       <path
   d="m 8022,3900 -51,0"
   id="path7054"
   inkscape:connector-curvature="0"
   style="fill:none;stroke:#000000;stroke-width:50" />
       <path
   d="m 7920,3900 -51,0"
   id="path7056"
   inkscape:connector-curvature="0"
   style="fill:none;stroke:#000000;stroke-width:50" />
       <path
   d="m 7818,3900 -51,0"
   id="path7058"
   inkscape:connector-curvature="0"
   style="fill:none;stroke:#000000;stroke-width:50" />
       <path
   d="m 7716,3900 -51,0"
   id="path7060"
   inkscape:connector-curvature="0"
   style="fill:none;stroke:#000000;stroke-width:50" />
       <path
   d="m 7614,3900 -51,0"
   id="path7062"
   inkscape:connector-curvature="0"
   style="fill:none;stroke:#000000;stroke-width:50" />
       <path
   d="m 7512,3900 -51,0"
   id="path7064"
   inkscape:connector-curvature="0"
   style="fill:none;stroke:#000000;stroke-width:50" />
       <path
   d="m 7410,3900 -51,0"
   id="path7066"
   inkscape:connector-curvature="0"
   style="fill:none;stroke:#000000;stroke-width:50" />
       <path
   d="m 7308,3900 -51,0"
   id="path7068"
   inkscape:connector-curvature="0"
   style="fill:none;stroke:#000000;stroke-width:50" />
       <path
   d="m 7206,3900 -51,0"
   id="path7070"
   inkscape:connector-curvature="0"
   style="fill:none;stroke:#000000;stroke-width:50" />
       <path
   d="m 7104,3900 -51,0"
   id="path7072"
   inkscape:connector-curvature="0"
   style="fill:none;stroke:#000000;stroke-width:50" />
       <path
   d="m 7002,3900 -51,0"
   id="path7074"
   inkscape:connector-curvature="0"
   style="fill:none;stroke:#000000;stroke-width:50" />
       <path
   d="m 6900,3900 -51,0"
   id="path7076"
   inkscape:connector-curvature="0"
   style="fill:none;stroke:#000000;stroke-width:50" />
       <path
   d="m 6798,3900 -51,0"
   id="path7078"
   inkscape:connector-curvature="0"
   style="fill:none;stroke:#000000;stroke-width:50" />
       <path
   d="m 6696,3900 -51,0"
   id="path7080"
   inkscape:connector-curvature="0"
   style="fill:none;stroke:#000000;stroke-width:50" />
       <path
   d="m 6594,3900 -51,0"
   id="path7082"
   inkscape:connector-curvature="0"
   style="fill:none;stroke:#000000;stroke-width:50" />
       <path
   d="m 6492,3900 -51,0"
   id="path7084"
   inkscape:connector-curvature="0"
   style="fill:none;stroke:#000000;stroke-width:50" />
       <path
   d="m 6390,3900 -51,0"
   id="path7086"
   inkscape:connector-curvature="0"
   style="fill:none;stroke:#000000;stroke-width:50" />
       <path
   d="m 6288,3900 -51,0"
   id="path7088"
   inkscape:connector-curvature="0"
   style="fill:none;stroke:#000000;stroke-width:50" />
       <path
   d="m 6186,3900 -51,0"
   id="path7090"
   inkscape:connector-curvature="0"
   style="fill:none;stroke:#000000;stroke-width:50" />
       <path
   d="m 6084,3900 -51,0"
   id="path7092"
   inkscape:connector-curvature="0"
   style="fill:none;stroke:#000000;stroke-width:50" />
       <path
   d="m 5982,3900 -51,0"
   id="path7094"
   inkscape:connector-curvature="0"
   style="fill:none;stroke:#000000;stroke-width:50" />
       <path
   d="m 5880,3900 -51,0"
   id="path7096"
   inkscape:connector-curvature="0"
   style="fill:none;stroke:#000000;stroke-width:50" />
       <path
   d="m 5778,3900 -51,0"
   id="path7098"
   inkscape:connector-curvature="0"
   style="fill:none;stroke:#000000;stroke-width:50" />
       <path
   d="m 5676,3900 -51,0"
   id="path7100"
   inkscape:connector-curvature="0"
   style="fill:none;stroke:#000000;stroke-width:50" />
       <path
   d="m 5574,3900 -51,0"
   id="path7102"
   inkscape:connector-curvature="0"
   style="fill:none;stroke:#000000;stroke-width:50" />
       <path
   d="m 5472,3900 -51,0"
   id="path7104"
   inkscape:connector-curvature="0"
   style="fill:none;stroke:#000000;stroke-width:50" />
       <path
   d="m 5370,3900 -51,0"
   id="path7106"
   inkscape:connector-curvature="0"
   style="fill:none;stroke:#000000;stroke-width:50" />
       <path
   d="m 5268,3900 -51,0"
   id="path7108"
   inkscape:connector-curvature="0"
   style="fill:none;stroke:#000000;stroke-width:50" />
       <path
   d="m 5166,3900 -51,0"
   id="path7110"
   inkscape:connector-curvature="0"
   style="fill:none;stroke:#000000;stroke-width:50" />
       <path
   d="m 5064,3900 -51,0"
   id="path7112"
   inkscape:connector-curvature="0"
   style="fill:none;stroke:#000000;stroke-width:50" />
       <path
   d="m 4962,3900 -51,0"
   id="path7114"
   inkscape:connector-curvature="0"
   style="fill:none;stroke:#000000;stroke-width:50" />
       <path
   d="m 4860,3900 -51,0"
   id="path7116"
   inkscape:connector-curvature="0"
   style="fill:none;stroke:#000000;stroke-width:50" />
       <path
   d="m 4758,3900 -51,0"
   id="path7118"
   inkscape:connector-curvature="0"
   style="fill:none;stroke:#000000;stroke-width:50" />
       <path
   d="m 4656,3900 -51,0"
   id="path7120"
   inkscape:connector-curvature="0"
   style="fill:none;stroke:#000000;stroke-width:50" />
       <path
   d="m 4554,3900 -51,0"
   id="path7122"
   inkscape:connector-curvature="0"
   style="fill:none;stroke:#000000;stroke-width:50" />
       <path
   d="m 4452,3900 -51,0"
   id="path7124"
   inkscape:connector-curvature="0"
   style="fill:none;stroke:#000000;stroke-width:50" />
       <path
   d="m 4350,3900 -51,0"
   id="path7126"
   inkscape:connector-curvature="0"
   style="fill:none;stroke:#000000;stroke-width:50" />
       <path
   d="m 4248,3900 -51,0"
   id="path7128"
   inkscape:connector-curvature="0"
   style="fill:none;stroke:#000000;stroke-width:50" />
       <path
   d="m 4146,3900 -51,0"
   id="path7130"
   inkscape:connector-curvature="0"
   style="fill:none;stroke:#000000;stroke-width:50" />
       <path
   d="m 4044,3900 -44,0"
   id="path7132"
   inkscape:connector-curvature="0"
   style="fill:none;stroke:#000000;stroke-width:50" />
      </g>
     </g>
     <g
   class="com.sun.star.drawing.LineShape"
   id="g7134">
      <g
   id="id15">
       <path
   d="M 7201,2000 8508,4615"
   id="path7137"
   inkscape:connector-curvature="0"
   style="fill:none;stroke:#000000" />
       <path
   d="m 8700,5000 -67,-470 -268,135 335,335 z"
   id="path7139"
   inkscape:connector-curvature="0"
   style="fill:#000000;stroke:none" />
      </g>
     </g>
     <g
   class="com.sun.star.drawing.TextShape"
   id="g7141">
      <g
   id="id16">
       <path
   d="m 5981,2283 -941,0 0,-683 1882,0 0,683 -941,0 z"
   id="path7144"
   inkscape:connector-curvature="0"
   style="fill:#c0c0c0;stroke:none" />
       <text
   class="TextShape"
   id="text7146"><tspan
     class="TextParagraph"
     font-size="388px"
     font-weight="400"
     id="tspan7148"
     style="font-size:388px;font-weight:400;font-family:'Arial, sans-serif'"><tspan
       class="TextPosition"
       x="5290"
       y="2076"
       id="tspan7150"><tspan
         id="tspan7152"
         style="fill:#000000;stroke:none">a_string</tspan></tspan></tspan></text>

      </g>
     </g>
     <g
   class="com.sun.star.drawing.TextShape"
   id="g7154">
      <g
   id="id17">
       <path
   d="m 6218,3400 -704,0 0,-683 1408,0 0,683 -704,0 z"
   id="path7157"
   inkscape:connector-curvature="0"
   style="fill:#c0c0c0;stroke:none" />
       <text
   class="TextShape"
   id="text7159"><tspan
     class="TextParagraph"
     font-size="388px"
     font-weight="400"
     id="tspan7161"
     style="font-size:388px;font-weight:400;font-family:'Arial, sans-serif'"><tspan
       class="TextPosition"
       x="5764"
       y="3193"
       id="tspan7163"><tspan
         id="tspan7165"
         style="fill:#000000;stroke:none">a_list</tspan></tspan></tspan></text>

      </g>
     </g>
     <g
   class="com.sun.star.drawing.LineShape"
   id="g7167">
      <g
   id="id18">
       <path
   d="M 7101,3100 8588,5726"
   id="path7170"
   inkscape:connector-curvature="0"
   style="fill:none;stroke:#000000" />
       <path
   d="m 8800,6100 -91,-465 -261,147 352,318 z"
   id="path7172"
   inkscape:connector-curvature="0"
   style="fill:#000000;stroke:none" />
      </g>
     </g>
     <g
   class="com.sun.star.drawing.TextShape"
   id="g7174">
      <g
   id="id19">
       <text
   class="TextShape"
   id="text7177"><tspan
     class="TextParagraph"
     font-size="388px"
     font-style="italic"
     font-weight="400"
     id="tspan7179"
     style="font-size:388px;font-style:italic;font-weight:400;font-family:'Arial, sans-serif'"><tspan
       class="TextPosition"
       x="1431"
       y="2569"
       id="tspan7181"><tspan
         id="tspan7183"
         style="fill:#000000;stroke:none">appender</tspan></tspan></tspan></text>

      </g>
     </g>
     <g
   class="com.sun.star.drawing.CustomShape"
   id="g7185">
      <g
   id="id20">
       <path
   d="m 3599,1400 c -30,0 -61,91 -61,183 l 0,734 c 0,91 -30,183 -60,183 30,0 60,92 60,183 l 0,734 c 0,92 31,184 61,184"
   id="path7188"
   inkscape:connector-curvature="0"
   style="fill:none;stroke:#000000;stroke-width:50" />
       <path
   d="m 3478,1400 0,0 z"
   id="path7190"
   inkscape:connector-curvature="0"
   style="fill:none;stroke:#000000;stroke-width:50" />
       <path
   d="m 3600,3601 0,0 z"
   id="path7192"
   inkscape:connector-curvature="0"
   style="fill:none;stroke:#000000;stroke-width:50" />
      </g>
     </g>
     <g
   class="com.sun.star.drawing.TextShape"
   id="g7194">
      <g
   id="id21">
       <path
   d="m 9277,6702 -276,0 0,-733 552,0 0,733 -276,0 z"
   id="path7197"
   inkscape:connector-curvature="0"
   style="fill:none;stroke:#000000;stroke-width:50" />
      </g>
     </g>
    </g>
   </g>
  </g>
 </g>
</svg>