<?xml version="1.0" encoding="UTF-8" standalone="no"?>
<svg
   xmlns:ooo="http://xml.openoffice.org/svg/export"
   xmlns:dc="http://purl.org/dc/elements/1.1/"
   xmlns:cc="http://creativecommons.org/ns#"
   xmlns:rdf="http://www.w3.org/1999/02/22-rdf-syntax-ns#"
   xmlns:svg="http://www.w3.org/2000/svg"
   xmlns="http://www.w3.org/2000/svg"
   xmlns:sodipodi="http://sodipodi.sourceforge.net/DTD/sodipodi-0.dtd"
   xmlns:inkscape="http://www.inkscape.org/namespaces/inkscape"
   version="1.2"
   width="444.5975"
   height="239.17323"
   viewBox="0 0 12547.53 6750.0001"
   preserveAspectRatio="xMidYMid"
   clip-path="url(#presentation_clip_path)"
   xml:space="preserve"
   id="svg2"
   inkscape:version="0.48.2 r9819"
   sodipodi:docname="x-for-directories.svg"
   style="fill-rule:evenodd;stroke-width:28.22200012;stroke-linejoin:round"><metadata
   id="metadata283"><rdf:RDF><cc:Work
       rdf:about=""><dc:format>image/svg+xml</dc:format><dc:type
         rdf:resource="http://purl.org/dc/dcmitype/StillImage" /></cc:Work></rdf:RDF></metadata><sodipodi:namedview
   pagecolor="#ffffff"
   bordercolor="#666666"
   borderopacity="1"
   objecttolerance="10"
   gridtolerance="10"
   guidetolerance="10"
   inkscape:pageopacity="0"
   inkscape:pageshadow="2"
   inkscape:window-width="640"
   inkscape:window-height="480"
   id="namedview281"
   showgrid="false"
   fit-margin-top="0"
   fit-margin-left="0"
   fit-margin-right="0"
   fit-margin-bottom="0"
   inkscape:zoom="0.23838384"
   inkscape:cx="308.88885"
   inkscape:cy="-214.19291"
   inkscape:window-x="0"
   inkscape:window-y="0"
   inkscape:window-maximized="0"
   inkscape:current-layer="svg2" />
 <defs
   class="ClipPathGroup"
   id="defs4">
  <clipPath
   id="presentation_clip_path"
   clipPathUnits="userSpaceOnUse">
   <rect
   x="0"
   y="0"
   width="21590"
   height="27940"
   id="rect7" />
  </clipPath>
 </defs>
 <defs
   class="TextShapeIndex"
   id="defs9">
  <g
   ooo:slide="id1"
   ooo:id-list="id3 id4 id5 id6 id7 id8 id9 id10 id11 id12 id13 id14 id15 id16 id17 id18 id19 id20 id21 id22 id23 id24 id25 id26 id27"
   id="g11" />
 </defs>
 <defs
   class="EmbeddedBulletChars"
   id="defs13">
  <g
   id="bullet-char-template(57356)"
   transform="scale(4.8828125e-4,-4.8828125e-4)">
   <path
   d="M 580,1141 1163,571 580,0 -4,571 580,1141 z"
   id="path16"
   inkscape:connector-curvature="0" />
  </g>
  <g
   id="bullet-char-template(57354)"
   transform="scale(4.8828125e-4,-4.8828125e-4)">
   <path
   d="m 8,1128 1129,0 L 1137,0 8,0 8,1128 z"
   id="path19"
   inkscape:connector-curvature="0" />
  </g>
  <g
   id="bullet-char-template(10146)"
   transform="scale(4.8828125e-4,-4.8828125e-4)">
   <path
   d="M 174,0 602,739 174,1481 1456,739 174,0 z m 1184,739 -1049,607 350,-607 699,0 z"
   id="path22"
   inkscape:connector-curvature="0" />
  </g>
  <g
   id="bullet-char-template(10132)"
   transform="scale(4.8828125e-4,-4.8828125e-4)">
   <path
   d="M 2015,739 1276,0 717,0 l 543,543 -1086,0 0,393 1086,0 -543,545 557,0 741,-742 z"
   id="path25"
   inkscape:connector-curvature="0" />
  </g>
  <g
   id="bullet-char-template(10007)"
   transform="scale(4.8828125e-4,-4.8828125e-4)">
   <path
   d="m 0,-2 c -7,16 -16,29 -25,39 l 381,530 c -94,256 -141,385 -141,387 0,25 13,38 40,38 9,0 21,-2 34,-5 21,4 42,12 65,25 l 27,-13 111,-251 280,301 64,-25 24,25 c 21,-10 41,-24 62,-43 C 886,937 835,863 770,784 769,783 710,716 594,584 L 774,223 c 0,-27 -21,-55 -63,-84 l 16,-20 C 717,90 699,76 672,76 641,76 570,178 457,381 L 164,-76 c -22,-34 -53,-51 -92,-51 -42,0 -63,17 -64,51 -7,9 -10,24 -10,44 0,9 1,19 2,30 z"
   id="path28"
   inkscape:connector-curvature="0" />
  </g>
  <g
   id="bullet-char-template(10004)"
   transform="scale(4.8828125e-4,-4.8828125e-4)">
   <path
   d="M 285,-33 C 182,-33 111,30 74,156 52,228 41,333 41,471 c 0,78 14,145 41,201 34,71 87,106 158,106 53,0 88,-31 106,-94 l 23,-176 c 8,-64 28,-97 59,-98 l 735,706 c 11,11 33,17 66,17 42,0 63,-15 63,-46 l 0,-122 c 0,-36 -10,-64 -30,-84 L 442,47 C 390,-6 338,-33 285,-33 z"
   id="path31"
   inkscape:connector-curvature="0" />
  </g>
  <g
   id="bullet-char-template(9679)"
   transform="scale(4.8828125e-4,-4.8828125e-4)">
   <path
   d="M 813,0 C 632,0 489,54 383,161 276,268 223,411 223,592 c 0,181 53,324 160,431 106,107 249,161 430,161 179,0 323,-54 432,-161 108,-107 162,-251 162,-431 0,-180 -54,-324 -162,-431 C 1136,54 992,0 813,0 z"
   id="path34"
   inkscape:connector-curvature="0" />
  </g>
  <g
   id="bullet-char-template(8226)"
   transform="scale(4.8828125e-4,-4.8828125e-4)">
   <path
   d="m 346,457 c -73,0 -137,26 -191,78 -54,51 -81,114 -81,188 0,73 27,136 81,188 54,52 118,78 191,78 73,0 134,-26 185,-79 51,-51 77,-114 77,-187 0,-75 -25,-137 -76,-188 -50,-52 -112,-78 -186,-78 z"
   id="path37"
   inkscape:connector-curvature="0" />
  </g>
  <g
   id="bullet-char-template(8211)"
   transform="scale(4.8828125e-4,-4.8828125e-4)">
   <path
   d="m -4,459 1139,0 0,147 -1139,0 0,-147 z"
   id="path40"
   inkscape:connector-curvature="0" />
  </g>
 </defs>
 <defs
   class="TextEmbeddedBitmaps"
   id="defs42" />
 <g
   id="g44"
   transform="translate(-2077.4702,-1175)">
  <g
   id="id2"
   class="Master_Slide">
   <g
   id="bg-id2"
   class="Background" />
   <g
   id="bo-id2"
   class="BackgroundObjects" />
  </g>
 </g>
 <g
   class="SlideGroup"
   id="g49"
   transform="translate(-2077.4702,-1175)">
  <g
   id="g51">
   <g
   id="id1"
   class="Slide"
   clip-path="url(#presentation_clip_path)">
    <g
   class="Page"
   id="g54">
     <g
   class="Group"
   id="g56">
      <g
   class="com.sun.star.drawing.CustomShape"
   id="g58">
       <g
   id="id3">
        <path
   d="m 9050,2500 -1150,0 0,-1100 2300,0 0,1100 -1150,0 z"
   id="path61"
   inkscape:connector-curvature="0"
   style="fill:none;stroke:#000000;stroke-width:50" />
        <text
   class="TextShape"
   id="text63"><tspan
     class="TextParagraph"
     font-size="388px"
     font-weight="400"
     id="tspan65"
     style="font-size:388px;font-weight:400;font-family:'Arial, sans-serif'"><tspan
       class="TextPosition"
       x="8695"
       y="2085"
       id="tspan67"><tspan
         id="tspan69"
         style="fill:#000000;stroke:none">vlad</tspan></tspan></tspan></text>

       </g>
      </g>
      <g
   class="com.sun.star.drawing.CustomShape"
   id="g71">
       <g
   id="id4">
        <path
   d="m 7900,1400 1001,0 -251,-200 -500,0 -250,200 z"
   id="path74"
   inkscape:connector-curvature="0"
   style="fill:none;stroke:#000000;stroke-width:50" />
       </g>
      </g>
     </g>
     <g
   class="Group"
   id="g76">
      <g
   class="com.sun.star.drawing.CustomShape"
   id="g78">
       <g
   id="id5">
        <path
   d="m 8950,5300 -1150,0 0,-1100 2300,0 0,1100 -1150,0 z"
   id="path81"
   inkscape:connector-curvature="0"
   style="fill:none;stroke:#000000;stroke-width:50" />
        <text
   class="TextShape"
   id="text83"><tspan
     class="TextParagraph"
     font-size="388px"
     font-weight="400"
     id="tspan85"
     style="font-size:388px;font-weight:400;font-family:'Arial, sans-serif'"><tspan
       class="TextPosition"
       x="8518"
       y="4885"
       id="tspan87"><tspan
         id="tspan89"
         style="fill:#000000;stroke:none">mars</tspan></tspan></tspan></text>

       </g>
      </g>
      <g
   class="com.sun.star.drawing.CustomShape"
   id="g91">
       <g
   id="id6">
        <path
   d="m 7800,4200 1001,0 -251,-200 -500,0 -250,200 z"
   id="path94"
   inkscape:connector-curvature="0"
   style="fill:none;stroke:#000000;stroke-width:50" />
       </g>
      </g>
     </g>
     <g
   class="Group"
   id="g96">
      <g
   class="com.sun.star.drawing.CustomShape"
   id="g98">
       <g
   id="id7">
        <path
   d="m 4050,5300 -1150,0 0,-1100 2300,0 0,1100 -1150,0 z"
   id="path101"
   inkscape:connector-curvature="0"
   style="fill:none;stroke:#000000;stroke-width:50" />
        <text
   class="TextShape"
   id="text103"><tspan
     class="TextParagraph"
     font-size="388px"
     font-weight="400"
     id="tspan105"
     style="font-size:388px;font-weight:400;font-family:'Arial, sans-serif'"><tspan
       class="TextPosition"
       x="3532"
       y="4885"
       id="tspan107"><tspan
         id="tspan109"
         style="fill:#000000;stroke:none">venus</tspan></tspan></tspan></text>

       </g>
      </g>
      <g
   class="com.sun.star.drawing.CustomShape"
   id="g111">
       <g
   id="id8">
        <path
   d="m 2900,4200 1001,0 -251,-200 -500,0 -250,200 z"
   id="path114"
   inkscape:connector-curvature="0"
   style="fill:none;stroke:#000000;stroke-width:50" />
       </g>
      </g>
     </g>
     <g
   class="Group"
   id="g116">
      <g
   class="com.sun.star.drawing.CustomShape"
   id="g118">
       <g
   id="id9">
        <path
   d="m 13450,5400 -1150,0 0,-1100 2300,0 0,1100 -1150,0 z"
   id="path121"
   inkscape:connector-curvature="0"
   style="fill:none;stroke:#000000;stroke-width:50" />
        <text
   class="TextShape"
   id="text123"><tspan
     class="TextParagraph"
     font-size="388px"
     font-weight="400"
     id="tspan125"
     style="font-size:388px;font-weight:400;font-family:'Arial, sans-serif'"><tspan
       class="TextPosition"
       x="13029"
       y="4985"
       id="tspan127"><tspan
         id="tspan129"
         style="fill:#000000;stroke:none">pluto</tspan></tspan></tspan></text>

       </g>
      </g>
      <g
   class="com.sun.star.drawing.CustomShape"
   id="g131">
       <g
   id="id10">
        <path
   d="m 12300,4300 1001,0 -251,-200 -500,0 -250,200 z"
   id="path134"
   inkscape:connector-curvature="0"
   style="fill:none;stroke:#000000;stroke-width:50" />
       </g>
      </g>
     </g>
     <g
   class="com.sun.star.drawing.LineShape"
   id="g136">
      <g
   id="id11">
       <path
   d="m 4200,3100 9300,0"
   id="path139"
   inkscape:connector-curvature="0"
   style="fill:none;stroke:#000000" />
      </g>
     </g>
     <g
   class="com.sun.star.drawing.LineShape"
   id="g141">
      <g
   id="id12">
       <path
   d="m 4200,3100 0,470"
   id="path144"
   inkscape:connector-curvature="0"
   style="fill:none;stroke:#000000" />
       <path
   d="m 4200,4000 150,-450 -300,0 150,450 z"
   id="path146"
   inkscape:connector-curvature="0"
   style="fill:#000000;stroke:none" />
      </g>
     </g>
     <g
   class="com.sun.star.drawing.LineShape"
   id="g148">
      <g
   id="id13">
       <path
   d="m 9100,3100 0,470"
   id="path151"
   inkscape:connector-curvature="0"
   style="fill:none;stroke:#000000" />
       <path
   d="m 9100,4000 150,-450 -300,0 150,450 z"
   id="path153"
   inkscape:connector-curvature="0"
   style="fill:#000000;stroke:none" />
      </g>
     </g>
     <g
   class="com.sun.star.drawing.LineShape"
   id="g155">
      <g
   id="id14">
       <path
   d="m 13500,3100 0,470"
   id="path158"
   inkscape:connector-curvature="0"
   style="fill:none;stroke:#000000" />
       <path
   d="m 13500,4000 150,-450 -300,0 150,450 z"
   id="path160"
   inkscape:connector-curvature="0"
   style="fill:#000000;stroke:none" />
      </g>
     </g>
     <g
   class="com.sun.star.drawing.LineShape"
   id="g162">
      <g
   id="id15">
       <path
   d="m 13501,5400 0,770"
   id="path165"
   inkscape:connector-curvature="0"
   style="fill:none;stroke:#000000" />
       <path
   d="m 13501,6600 150,-450 -300,0 150,450 z"
   id="path167"
   inkscape:connector-curvature="0"
   style="fill:#000000;stroke:none" />
      </g>
     </g>
     <g
   class="com.sun.star.drawing.LineShape"
   id="g169">
      <g
   id="id16">
       <path
   d="m 9100,2500 0,600"
   id="path172"
   inkscape:connector-curvature="0"
   style="fill:none;stroke:#000000" />
      </g>
     </g>
     <g
   class="Group"
   id="g174">
      <g
   class="com.sun.star.drawing.CustomShape"
   id="g176">
       <g
   id="id17">
        <path
   d="m 13450,7900 -1150,0 0,-1100 2300,0 0,1100 -1150,0 z"
   id="path179"
   inkscape:connector-curvature="0"
   style="fill:none;stroke:#000000;stroke-width:50" />
        <text
   class="TextShape"
   id="text181"><tspan
     class="TextParagraph"
     font-size="388px"
     font-weight="400"
     id="tspan183"
     style="font-size:388px;font-weight:400;font-family:'Arial, sans-serif'"><tspan
       class="TextPosition"
       x="12976"
       y="7485"
       id="tspan185"><tspan
         id="tspan187"
         style="fill:#000000;stroke:none">notes</tspan></tspan></tspan></text>

       </g>
      </g>
      <g
   class="com.sun.star.drawing.CustomShape"
   id="g189">
       <g
   id="id18">
        <path
   d="m 12300,6800 1001,0 -251,-200 -500,0 -250,200 z"
   id="path192"
   inkscape:connector-curvature="0"
   style="fill:none;stroke:#000000;stroke-width:50" />
       </g>
      </g>
     </g>
     <g
   class="com.sun.star.drawing.LineShape"
   id="g194">
      <g
   id="id19">
       <path
   d="m 9101,5400 0,770"
   id="path197"
   inkscape:connector-curvature="0"
   style="fill:none;stroke:#000000" />
       <path
   d="m 9101,6600 150,-450 -300,0 150,450 z"
   id="path199"
   inkscape:connector-curvature="0"
   style="fill:#000000;stroke:none" />
      </g>
     </g>
     <g
   class="Group"
   id="g201">
      <g
   class="com.sun.star.drawing.CustomShape"
   id="g203">
       <g
   id="id20">
        <path
   d="m 9050,7900 -1150,0 0,-1100 2300,0 0,1100 -1150,0 z"
   id="path206"
   inkscape:connector-curvature="0"
   style="fill:none;stroke:#000000;stroke-width:50" />
        <text
   class="TextShape"
   id="text208"><tspan
     class="TextParagraph"
     font-size="388px"
     font-weight="400"
     id="tspan210"
     style="font-size:388px;font-weight:400;font-family:'Arial, sans-serif'"><tspan
       class="TextPosition"
       x="8576"
       y="7485"
       id="tspan212"><tspan
         id="tspan214"
         style="fill:#000000;stroke:none">notes</tspan></tspan></tspan></text>

       </g>
      </g>
      <g
   class="com.sun.star.drawing.CustomShape"
   id="g216">
       <g
   id="id21">
        <path
   d="m 7900,6800 1001,0 -251,-200 -500,0 -250,200 z"
   id="path219"
   inkscape:connector-curvature="0"
   style="fill:none;stroke:#000000;stroke-width:50" />
       </g>
      </g>
     </g>
     <g
   class="com.sun.star.drawing.LineShape"
   id="g221">
      <g
   id="id22">
       <path
   d="m 4201,5400 0,770"
   id="path224"
   inkscape:connector-curvature="0"
   style="fill:none;stroke:#000000" />
       <path
   d="m 4201,6600 150,-450 -300,0 150,450 z"
   id="path226"
   inkscape:connector-curvature="0"
   style="fill:#000000;stroke:none" />
      </g>
     </g>
     <g
   class="Group"
   id="g228">
      <g
   class="com.sun.star.drawing.CustomShape"
   id="g230">
       <g
   id="id23">
        <path
   d="m 4150,7900 -1150,0 0,-1100 2300,0 0,1100 -1150,0 z"
   id="path233"
   inkscape:connector-curvature="0"
   style="fill:none;stroke:#000000;stroke-width:50" />
        <text
   class="TextShape"
   id="text235"><tspan
     class="TextParagraph"
     font-size="388px"
     font-weight="400"
     id="tspan237"
     style="font-size:388px;font-weight:400;font-family:'Arial, sans-serif'"><tspan
       class="TextPosition"
       x="3676"
       y="7485"
       id="tspan239"><tspan
         id="tspan241"
         style="fill:#000000;stroke:none">notes</tspan></tspan></tspan></text>

       </g>
      </g>
      <g
   class="com.sun.star.drawing.CustomShape"
   id="g243">
       <g
   id="id24">
        <path
   d="m 3000,6800 1001,0 -251,-200 -500,0 -250,200 z"
   id="path246"
   inkscape:connector-curvature="0"
   style="fill:none;stroke:#000000;stroke-width:50" />
       </g>
      </g>
     </g>
     <g
   class="com.sun.star.drawing.TextShape"
   id="g248">
      <g
   id="id25">
       <text
   class="TextShape"
   id="text251"><tspan
     class="TextParagraph"
     font-size="423px"
     font-weight="400"
     id="tspan253"
     style="font-size:423px;font-weight:400;font-family:'Arial, sans-serif'"><tspan
       class="TextPosition"
       x="2050"
       y="4885"
       id="tspan255"><tspan
         id="tspan257"
         style="fill:#000000;stroke:none">r-x</tspan></tspan></tspan></text>

      </g>
     </g>
     <g
   class="com.sun.star.drawing.TextShape"
   id="g259">
      <g
   id="id26">
       <text
   class="TextShape"
   id="text262"><tspan
     class="TextParagraph"
     font-size="423px"
     font-weight="400"
     id="tspan264"
     style="font-size:423px;font-weight:400;font-family:'Arial, sans-serif'"><tspan
       class="TextPosition"
       x="6951"
       y="4886"
       id="tspan266"><tspan
         id="tspan268"
         style="fill:#000000;stroke:none">r--</tspan></tspan></tspan></text>

      </g>
     </g>
     <g
   class="com.sun.star.drawing.TextShape"
   id="g270">
      <g
   id="id27">
       <text
   class="TextShape"
   id="text273"><tspan
     class="TextParagraph"
     font-size="423px"
     font-weight="400"
     id="tspan275"
     style="font-size:423px;font-weight:400;font-family:'Arial, sans-serif'"><tspan
       class="TextPosition"
       x="11552"
       y="4887"
       id="tspan277"><tspan
         id="tspan279"
         style="fill:#000000;stroke:none">--x</tspan></tspan></tspan></text>

      </g>
     </g>
    </g>
   </g>
  </g>
 </g>
</svg>