<?xml version="1.0" encoding="utf-8"?>
<!-- Generator: Adobe Illustrator 15.0.2, SVG Export Plug-In . SVG Version: 6.00 Build 0)  -->
<!DOCTYPE svg PUBLIC "-//W3C//DTD SVG 1.1//EN" "http://www.w3.org/Graphics/SVG/1.1/DTD/svg11.dtd">
<svg version="1.1" xmlns="http://www.w3.org/2000/svg" xmlns:xlink="http://www.w3.org/1999/xlink" x="0px" y="0px" width="596px"
	 height="489px" viewBox="0 0 596 489" enable-background="new 0 0 596 489" xml:space="preserve">
<g id="zones">
	<rect x="38.105" y="321.636" fill="#E9EBF4" stroke="#000000" stroke-width="2" width="526.474" height="136.955"/>
	<rect x="38.105" y="84.602" fill="#E0EFDA" stroke="#000000" stroke-width="2" width="526.474" height="136.955"/>
	<text transform="matrix(1 0 0 1 47 347.5576)" font-family="'Helvetica'" font-size="21">Local</text>
	<text transform="matrix(1 0 0 1 55.9995 111.0566)" font-family="'Helvetica'" font-size="21">Github</text>
</g>
<g id="step1">
	<path fill="#DCEFBE" stroke="#050505" stroke-width="0.8991" d="M248,199.508c0,8.209-5.583,14.864-12.471,14.864H62.813
		c-6.887,0-12.471-6.655-12.471-14.864v-67.504c0-8.208,5.584-14.864,12.471-14.864h172.716c6.887,0,12.471,6.655,12.471,14.864
		V199.508z"/>
	<g>
		<path fill="#79AD3D" d="M230.338,176.771c0,9.374-9.152,16.973-20.441,16.973H88.782c-11.29,0-20.442-7.599-20.442-16.973v-11.946
			c0-9.374,9.153-16.972,20.442-16.972h121.114c11.289,0,20.441,7.599,20.441,16.972V176.771z"/>
		<text transform="matrix(1 0 0 1 83.3398 175.8535)" fill="#FFFFFF" font-family="'Helvetica'" font-size="14">me/YYYY-MM-DD-site</text>
	</g>
	<path fill="#4F47D9" d="M217.341,412.826c0,9.373-9.152,16.973-20.441,16.973H75.785c-11.29,0-20.442-7.6-20.442-16.973v-11.945
		c0-9.374,9.153-16.973,20.442-16.973h121.114c11.289,0,20.441,7.599,20.441,16.973V412.826z"/>
	<text transform="matrix(1 0 0 1 76.3428 411.9082)" fill="#FFFFFF" font-family="'Helvetica'" font-size="14">YYYY-MM-DD-site</text>
	<text transform="matrix(1 0 0 1 73.3418 137.7969)" font-family="'Helvetica'" font-size="14">me</text>
	<g>
		<line fill="#FFFFFF" x1="136.342" y1="379.797" x2="136.342" y2="193.744"/>
		<g>
			
				<line fill="none" stroke="#231F20" stroke-width="2" stroke-miterlimit="10" x1="136.342" y1="367.727" x2="136.342" y2="205.814"/>
			<g>
				<path fill="#231F20" d="M136.342,379.797c2.107-5.68,5.703-12.727,9.512-17.095l-9.512,3.44l-9.51-3.44
					C130.641,367.07,134.236,374.117,136.342,379.797z"/>
			</g>
			<g>
				<path fill="#231F20" d="M136.342,193.744c2.107,5.68,5.703,12.727,9.512,17.095l-9.512-3.44l-9.51,3.44
					C130.641,206.471,134.236,199.424,136.342,193.744z"/>
			</g>
		</g>
	</g>
	<rect x="107.342" y="271.854" fill="#FFFFFF" width="66" height="27.943"/>
	<text transform="matrix(1 0 0 1 115.8735 291.7705)" font-family="'Helvetica'" font-size="17">origin</text>
</g>
<g id="step2">
	<path fill="#DCEFBE" stroke="#050505" stroke-width="0.8991" d="M552,199.508c0,8.209-5.584,14.864-12.471,14.864H366.812
		c-6.887,0-12.471-6.655-12.471-14.864v-67.504c0-8.208,5.584-14.864,12.471-14.864h172.717c6.887,0,12.471,6.655,12.471,14.864
		V199.508z"/>
	<g>
		<path fill="#79AD3D" d="M534.338,176.771c0,9.374-9.152,16.973-20.441,16.973H392.782c-11.29,0-20.442-7.599-20.442-16.973
			v-11.946c0-9.374,9.152-16.972,20.442-16.972h121.114c11.289,0,20.441,7.599,20.441,16.972V176.771z"/>
		<text transform="matrix(1 0 0 1 387.3398 175.8535)" fill="#FFFFFF" font-family="'Helvetica'" font-size="14">swcarpentry/bc</text>
	</g>
	<text transform="matrix(1 0 0 1 377.3418 137.7969)" font-family="'Helvetica'" font-size="14">swcarpentry</text>
	<g>
		<line fill="#FFFFFF" x1="181" y1="379.797" x2="432" y2="193.744"/>
		<g>
			
				<line fill="none" stroke="#231F20" stroke-width="2.0605" stroke-miterlimit="10" x1="190.99" y1="372.392" x2="432" y2="193.744"/>
			<g>
				<path fill="#231F20" d="M181,379.797c5.994-1.74,14.032-3.088,19.984-2.615l-8.683-5.762l-2.987-9.982
					C188.036,367.271,184.409,374.569,181,379.797z"/>
			</g>
		</g>
	</g>
	<rect x="278" y="268.854" fill="#FFFFFF" width="66" height="27.943"/>
	<text transform="matrix(1 0 0 1 286.5317 288.7705)" font-family="'Helvetica'" font-size="17">swcarpentry</text>
</g>
<g id="step3">
	<path fill="#DCEFBE" stroke="#050505" stroke-width="1.0884" d="M340,199.508c0,8.209-8.183,14.864-18.275,14.864H68.618
		c-10.093,0-18.276-6.655-18.276-14.864v-67.504c0-8.208,8.183-14.864,18.276-14.864h253.107c10.093,0,18.275,6.655,18.275,14.864
		V199.508z"/>
	<g>
		<path fill="#79AD3D" d="M230.338,176.771c0,9.374-9.152,16.973-20.441,16.973H88.782c-11.29,0-20.442-7.599-20.442-16.973v-11.946
			c0-9.374,9.153-16.972,20.442-16.972h121.114c11.289,0,20.441,7.599,20.441,16.972V176.771z"/>
		<text transform="matrix(1 0 0 1 83.3398 175.8535)" fill="#FFFFFF" font-family="'Helvetica'" font-size="14">me/YYYY-MM-DD-site</text>
	</g>
	<g>
		<path fill="#79AD3D" d="M307,176.771c0,9.374-3.766,16.973-8.411,16.973h-49.837c-4.646,0-8.412-7.599-8.412-16.973v-11.946
			c0-9.374,3.766-16.972,8.412-16.972h49.837c4.645,0,8.411,7.599,8.411,16.972V176.771z"/>
		<text transform="matrix(1 0 0 1 255.3398 175.8535)" fill="#FFFFFF" font-family="'Helvetica'" font-size="14">me/bc</text>
	</g>
	<text transform="matrix(1 0 0 1 73.3418 137.7969)" font-family="'Helvetica'" font-size="14">me</text>
	<g>
		<g>
			<path fill="none" stroke="#231F20" stroke-width="2.0605" stroke-miterlimit="10" d="M488,147.854
				c0-69.6-53.033-101.299-102.309-101.299c-26.854,0-51.776,8.972-70.179,25.262c-17.842,15.794-28.404,37.613-30.924,63.614"/>
			<g>
				<path fill="#231F20" d="M284,147.854c-1.852-5.96-5.159-13.41-8.834-18.116l9.594,4.069l9.975-3.011
					C290.573,135.078,286.482,142.127,284,147.854z"/>
			</g>
		</g>
	</g>
	<g>
		<g>
			<path fill="none" stroke="#231F20" stroke-width="2.0605" stroke-miterlimit="10" d="M264,147.854
				c0-37.386,13.229-68.858,38.256-91.013c22.062-19.531,51.694-30.287,83.436-30.287c31.821,0,61.583,10.787,83.806,30.375
				c22.338,19.69,35.338,46.647,37.993,78.499"/>
			<g>
				<path fill="#231F20" d="M508,147.854c-2.433-5.748-6.46-12.834-10.583-17.153l9.949,3.1l9.629-3.982
					C513.277,134.491,509.903,141.91,508,147.854z"/>
			</g>
		</g>
	</g>
	<rect x="318.17" y="48.08" fill="#FFFFFF" width="37.83" height="27.943"/>
	<text transform="matrix(1 0 0 1 325.3438 67.833)" font-family="'Helvetica'" font-size="17">fork</text>
	<rect x="409.17" y="14.137" fill="#FFFFFF" width="45.66" height="27.943"/>
	<text transform="matrix(1 0 0 1 418.8711 35.4995)" font-family="'Helvetica'" font-size="17">pull request</text>
	<g>
		<line fill="#FFFFFF" x1="136.342" y1="379.797" x2="136.342" y2="193.744"/>
		<g>
			
				<line fill="none" stroke="#231F20" stroke-width="2" stroke-miterlimit="10" x1="136.342" y1="367.727" x2="136.342" y2="205.814"/>
			<g>
				<path fill="#231F20" d="M136.342,379.797c2.107-5.68,5.703-12.727,9.512-17.095l-9.512,3.44l-9.51-3.44
					C130.641,367.07,134.236,374.117,136.342,379.797z"/>
			</g>
			<g>
				<path fill="#231F20" d="M136.342,193.744c2.107,5.68,5.703,12.727,9.512,17.095l-9.512-3.44l-9.51,3.44
					C130.641,206.471,134.236,199.424,136.342,193.744z"/>
			</g>
		</g>
	</g>
	<g>
		<line fill="#FFFFFF" x1="168" y1="379.797" x2="267" y2="193.744"/>
		<g>
			<line fill="none" stroke="#231F20" stroke-width="2" stroke-miterlimit="10" x1="173.67" y1="369.142" x2="261.33" y2="204.4"/>
			<g>
				<path fill="#231F20" d="M168,379.797c4.528-4.024,11.013-8.556,16.427-10.623l-10.013-1.431l-6.779-7.505
					C168.945,365.884,168.809,373.794,168,379.797z"/>
			</g>
			<g>
				<path fill="#231F20" d="M267,193.744c-0.808,6.004-0.943,13.914,0.367,19.56l-6.781-7.505l-10.011-1.43
					C255.989,202.301,262.473,197.769,267,193.744z"/>
			</g>
		</g>
	</g>
	<rect x="107.342" y="271.854" fill="#FFFFFF" width="66" height="27.943"/>
	<text transform="matrix(1 0 0 1 115.8735 291.7705)" font-family="'Helvetica'" font-size="17">origin</text>
	<rect x="181" y="268.854" fill="#FFFFFF" width="66" height="27.943"/>
	<text transform="matrix(1 0 0 1 189.5317 288.7705)" font-family="'Helvetica'" font-size="17">upstream</text>
</g>
</svg>
